<?xml version="1.0" encoding="UTF-8" standalone="no"?>
<!-- Created with Inkscape (http://www.inkscape.org/) -->

<svg
   xmlns:dc="http://purl.org/dc/elements/1.1/"
   xmlns:cc="http://creativecommons.org/ns#"
   xmlns:rdf="http://www.w3.org/1999/02/22-rdf-syntax-ns#"
   xmlns:svg="http://www.w3.org/2000/svg"
   xmlns="http://www.w3.org/2000/svg"
   xmlns:sodipodi="http://sodipodi.sourceforge.net/DTD/sodipodi-0.dtd"
   xmlns:inkscape="http://www.inkscape.org/namespaces/inkscape"
   width="68.489281mm"
   height="68.489281mm"
   viewBox="0 0 68.489281 68.489281"
   version="1.1"
   id="svg4861"
   inkscape:version="0.92.4 (5da689c313, 2019-01-14)"
   sodipodi:docname="attention-camera.svg"
   inkscape:export-filename="C:\Users\argus\Downloads\_git\team-achievements\worlds_best_team_leader.png"
   inkscape:export-xdpi="372.09601"
   inkscape:export-ydpi="372.09601">
  <defs
     id="defs4855" />
  <sodipodi:namedview
     id="base"
     pagecolor="#ffffff"
     bordercolor="#666666"
     borderopacity="1.0"
     inkscape:pageopacity="0.0"
     inkscape:pageshadow="2"
     inkscape:zoom="1.3232369"
     inkscape:cx="-96.503765"
     inkscape:cy="109.35638"
     inkscape:document-units="mm"
     inkscape:current-layer="g829"
     showgrid="false"
     inkscape:window-width="1920"
     inkscape:window-height="1017"
     inkscape:window-x="-8"
     inkscape:window-y="-8"
     inkscape:window-maximized="1" />
  <metadata
     id="metadata4858">
    <rdf:RDF>
      <cc:Work
         rdf:about="">
        <dc:format>image/svg+xml</dc:format>
        <dc:type
           rdf:resource="http://purl.org/dc/dcmitype/StillImage" />
        <dc:title />
      </cc:Work>
    </rdf:RDF>
  </metadata>
  <g
     inkscape:label="Ebene 1"
     inkscape:groupmode="layer"
     id="layer1"
     transform="translate(-74.612497,-102.49346)">
    <g
       id="g829">
      <rect
         inkscape:export-ydpi="372.29999"
         inkscape:export-xdpi="372.29999"
         y="102.62575"
         x="74.744789"
         height="68.224701"
         width="68.224701"
         id="rect817-9-3-3-89-8-6"
         style="opacity:1;vector-effect:none;fill:#ffffff;fill-opacity:1;stroke:#000000;stroke-width:0.26458332;stroke-linecap:butt;stroke-linejoin:miter;stroke-miterlimit:4;stroke-dasharray:none;stroke-dashoffset:0;stroke-opacity:1" />
      <rect
         inkscape:export-ydpi="372.29999"
         inkscape:export-xdpi="372.29999"
         y="104.61012"
         x="76.729164"
         height="64.255951"
         width="64.255951"
         id="rect817-1-8-6-9-0"
         style="opacity:1;vector-effect:none;fill:#616161;fill-opacity:1;stroke:none;stroke-width:9.26041698;stroke-linecap:butt;stroke-linejoin:miter;stroke-miterlimit:4;stroke-dasharray:none;stroke-dashoffset:0;stroke-opacity:1" />
      <text
         inkscape:export-ydpi="372.29999"
         inkscape:export-xdpi="372.29999"
         id="text837-4-8-4-6-4"
         y="112.28127"
         x="83.01944"
         style="font-style:normal;font-weight:normal;font-size:4.57989931px;line-height:1.25;font-family:sans-serif;letter-spacing:0px;word-spacing:0px;fill:#ffffff;fill-opacity:1;stroke:#ffffff;stroke-width:0.414;stroke-miterlimit:4;stroke-dasharray:none;stroke-opacity:1"
         xml:space="preserve"><tspan
           style="font-style:normal;font-variant:normal;font-weight:normal;font-stretch:normal;font-size:4.57989931px;font-family:Comfortaa;-inkscape-font-specification:'Comfortaa, Normal';font-variant-ligatures:normal;font-variant-caps:normal;font-variant-numeric:normal;font-feature-settings:normal;text-align:start;writing-mode:lr-tb;text-anchor:start;fill:#ffffff;fill-opacity:1;stroke:#ffffff;stroke-width:0.414;stroke-miterlimit:4;stroke-dasharray:none;stroke-opacity:1"
           y="112.28127"
           x="83.01944"
           id="tspan835-3-3-3-4-8"
           sodipodi:role="line">Achievement unlocked</tspan></text>
      <text
         inkscape:export-ydpi="372.29999"
         inkscape:export-xdpi="372.29999"
         id="text837-3-3-1-3-3-8"
         y="165.2917"
         x="83.87928"
         style="font-style:normal;font-weight:normal;font-size:4.57989931px;line-height:1.25;font-family:sans-serif;letter-spacing:0px;word-spacing:0px;fill:#ffffff;fill-opacity:1;stroke:#ffffff;stroke-width:0.414;stroke-miterlimit:4;stroke-dasharray:none;stroke-opacity:1"
         xml:space="preserve"><tspan
           style="font-style:normal;font-variant:normal;font-weight:normal;font-stretch:normal;font-size:4.57989931px;font-family:Comfortaa;-inkscape-font-specification:'Comfortaa, Normal';font-variant-ligatures:normal;font-variant-caps:normal;font-variant-numeric:normal;font-feature-settings:normal;text-align:start;letter-spacing:0.39687499px;writing-mode:lr-tb;text-anchor:start;fill:#ffffff;fill-opacity:1;stroke:#ffffff;stroke-width:0.414;stroke-miterlimit:4;stroke-dasharray:none;stroke-opacity:1"
           y="165.2917"
           x="83.87928"
           id="tspan835-0-3-8-3-3-8"
           sodipodi:role="line">Attention: Camera!</tspan></text>
      <g
         transform="matrix(0.03905522,0,0,0.03905522,83.234506,113.03522)"
         id="g74">
        <path
           style="fill:none"
           inkscape:connector-curvature="0"
           d="m 656.4441,477.7736 c -5.4502,-4.67 -10.6001,-9.72 -16.03,-14.36 -2.5,-3.02 -5.3101,-5.7599 -8.0901,-8.52 l 0.01,-0.17 c -11.71,-12.53 -21.8101,-26.45 -30.8801,-40.98 -0.98,-1.6799 -1.9399,-3.3799 -2.8999,-5.0599 -3.95,0.6 -7.8701,1.2999 -11.8,1.9701 -1.4399,0.2599 -2.8398,0.6399 -4.23,1.0399 -8.3799,0.91 -16.5701,3.27 -24.95,4.35 -1.99,6.88 -4.8599,13.46 -7.22,20.2 -1.23,2.26 -2.27,4.61 -3.26,6.99 -3.01,5.94 -6.01,11.89 -9.4199,17.63 -0.3801,0.61 -1.7751,2.743 -1.8901,2.76 -2.71,4.95 -6.2,9.4 -9.1699,14.19 43.2799,0.0799 86.56,0.1499 129.83,-0.0401 z"
           id="path2" />
        <path
           style="fill:none"
           inkscape:connector-curvature="0"
           d="m 519.0439,801.8936 c 1.76,0 3.54,0.01 5.3101,0.03 0.02,-74.27 0.02,-148.54 0.01,-222.81 -1.8,-0.01 -3.5901,-0.02 -5.3701,-0.01 0.0701,74.2598 -0.0298,148.5298 0.05,222.7899 z"
           id="path4" />
        <path
           style="fill:none"
           inkscape:connector-curvature="0"
           d="m 514.394,579.0635 -0.6001,0.01 c -1.76,0.02 -3.51,0.1 -5.24,0.39 0.3501,19.44 0.0601,38.89 0.1499,58.33 -0.0198,54.7 0.0601,109.4 -0.0298,164.09 1.3398,-0.01 2.6799,-0.01 4.0298,-0.01 l 1.2302,0.31 c 0.48,-1.12 0.6899,-2.27 0.6499,-3.47 -0.2599,-73.21 0.18,-146.4399 -0.1899,-219.65 z"
           id="path6" />
        <path
           style="fill:none"
           inkscape:connector-curvature="0"
           d="m 503.624,578.9736 c -1.77,0.06 -3.52,0.14 -5.28,0.19 0.1099,74.2599 0.01,148.52 0.05,222.78 l 1.47,-0.06 c 0.48,-0.01 1.4299,-0.03 1.9099,-0.05 l 1.4001,0.43 c 0.3298,-1.15 0.49,-2.31 0.5,-3.49 -0.08,-73.2601 0.0299,-146.5301 -0.05,-219.8 z"
           id="path8" />
        <path
           style="fill:none"
           inkscape:connector-curvature="0"
           d="m 568.5239,746.7736 c 0,-32 0.01,-64 0,-96 -0.1399,-23.73 0.3301,-47.48 -0.26,-71.21 l 0.03,-0.42 c -1.74,0 -3.48,0.01 -5.21,0.01 l 0.03,0.33 c -0.52,17.4 -0.1699,34.82 -0.28,52.23 -0.01,53.7 0.01,107.4 0.01,161.1 -0.01,3.11 -0.1699,6.25 0.3701,9.35 l 1.52,-0.3 1.96,0.04 1.5498,0.04 c 0.6703,-18.3701 0.0802,-36.78 0.2801,-55.17 z"
           id="path10" />
        <path
           style="fill:none"
           inkscape:connector-curvature="0"
           d="m 488.0239,579.1235 c 0.04,74.16 -0.0598,148.32 0.05,222.48 0.5,0.1 1.51,0.31 2.01,0.42 0.3201,0 0.96,0.02 1.28,0.03 0.46,-0.18 1.3701,-0.55 1.8301,-0.73 0.1899,-74.06 0.01,-148.14 0.0898,-222.2 z"
           id="path12" />
        <path
           style="fill:none"
           inkscape:connector-curvature="0"
           d="m 547.594,578.9636 c -1.76,0.05 -3.52,0.15 -5.27,0.36 0.27,74.2 0.0901,148.4 0.0901,222.59 1.4399,-0.02 2.8799,-0.03 4.3298,-0.03 l 0.9702,-0.02 c -0.1401,-74.3001 0.1099,-148.6001 -0.1201,-222.9 z"
           id="path14" />
        <path
           style="fill:none"
           inkscape:connector-curvature="0"
           d="m 558.4241,579.0735 -0.6501,0.02 c -1.78,0.03 -3.5701,0 -5.28,0.5 0.5,5.36 0.1702,10.75 0.26,16.13 -0.0701,68.72 0.1501,137.44 -0.1099,206.16 1.3499,-0.01 2.71,0 4.0701,0.01 l 1.2598,0.13 c 0.3101,-1.74 0.53,-3.51 0.5701,-5.26 -0.12,-72.57 0.12,-145.13 -0.12,-217.69 z"
           id="path16" />
        <path
           style="fill:none"
           inkscape:connector-curvature="0"
           d="m 461.344,579.2236 c -29.6499,-0.09 -59.3201,-0.1 -88.9799,0 0.1399,74.24 0.04,148.48 0.05,222.71 0.52,-0.04 1.5701,-0.14 2.0999,-0.19 0.49,0.08 1.4702,0.23 1.96,0.3 l 1.1602,-0.1201 c 0.05,-29.59 -0.1401,-59.18 0.1001,-88.77 20.7397,0.2 41.4799,0 62.2299,0.11 0.0298,-1.63 0.0898,-3.25 0.1599,-4.86 -20.8,-0.6 -41.6398,-0.13 -62.4599,-0.24 0.1399,-1.77 -0.1602,-3.62 0.3999,-5.31 20.6501,0.2599 41.31,0.02 61.9599,0.12 -0.03,-1.7401 -0.0398,-3.46 -0.05,-5.18 l -0.8699,0.18 c -5.8,-0.36 -11.6001,-0.09 -17.3899,-0.17 -14.7102,0.18 -29.4401,-0.38 -44.1201,0.28 -0.05,-1.76 0,-3.51 0.02,-5.25 20.79,0.07 41.57,-0.03 62.3598,0.05 0,-1.75 0.0103,-3.48 0.03,-5.21 -17.4299,-0.02 -34.8599,-0.01 -52.2897,-0.01 -3.3701,0.01 -6.75,-0.1801 -10.0901,0.3199 0.05,-1.81 0.0701,-3.62 0.04,-5.41 20.78,0.09 41.57,-0.03 62.3498,0.06 -0.01,-1.77 -0.01,-3.54 0,-5.3 -20.8398,0.13 -41.6899,-0.15 -62.52,0.14 0.4001,-1.72 0.23,-3.4901 0.2402,-5.22 20.75,0.11 41.4999,-0.03 62.2597,0.06 -0.01,-1.69 0,-3.38 0.03,-5.05 -20.75,-0.22 -41.4999,-0.12 -62.2499,-0.05 l -0.24,-0.85 c 0.1301,-13.5699 0.02,-27.14 0.05,-40.71 26.3898,-0.03 52.79,-0.05 79.1799,0 1.7202,-0.03 3.4399,-0.29 5.1401,-0.6 l -0.49,-1.57 c 0.1299,-0.39 0.3799,-1.15 0.5,-1.54 l 0.01,-1.44 c -2.7002,-0.53 -5.4702,-0.38 -8.2002,-0.37 -25.3398,0.04 -50.6899,-0.04 -76.0297,0.04 0.02,-1.75 0.01,-3.5 0.1499,-5.23 27.9699,0.16 55.9399,0 83.9099,0.08 l -0.0898,-1.38 c 0,-1.26 0,-2.52 0.01,-3.76 -27.99,-0.04 -55.99,-0.06 -83.9799,0 0.02,-1.7 -0.02,-3.4 0.1799,-5.08 27.9099,0.14 55.8298,-0.01 83.7399,0.07 0,-1.72 0.02,-3.44 0.05,-5.14 l -0.78,0.01 c -27.7,0.05 -55.3999,-0.01 -83.09,0.03 -0.1199,-1.74 -0.0901,-3.48 -0.0798,-5.21 27.9897,0.03 55.9799,-0.02 83.9699,0.03 -0.02,-1.25 -0.04,-2.5 -0.05,-3.73 l 0.1699,-1.4 c -28.1199,0.11 -56.25,-0.13 -84.3698,0.12 0.47,-1.71 0.26,-3.52 0.3599,-5.26 28.0099,-0.14 56.02,0.17 84.02,-0.16 l -0.45,-1.53 c 0.1899,-0.44 0.5601,-1.31 0.75,-1.75 -0.1899,-0.4199 -0.5701,-1.25 -0.77,-1.6599 z"
           id="path18" />
        <path
           style="fill:none"
           inkscape:connector-curvature="0"
           d="m 341.274,579.2136 c 0.1702,74.23 0.05,148.45 0.05,222.68 l 1.23,-0.01 c 1.3401,-0.01 2.6899,-0.01 4.04,0.01 -0.0901,-58.38 -0.01,-116.76 -0.04,-175.14 0.1602,-15.7 -0.3198,-31.43 0.25,-47.11 -1.75,-0.74 -3.6899,-0.43 -5.53,-0.43 z"
           id="path20" />
        <path
           style="fill:none"
           inkscape:connector-curvature="0"
           d="m 477.614,801.9036 c 1.3101,-0.02 2.6299,-0.03 3.96,-0.02 l 1.3,0.03 c -0.01,-74.25 -0.02,-148.51 0,-222.76 -1.71,-0.02 -3.4202,-0.05 -5.1201,-0.07 -0.28,74.27 0,148.5499 -0.1399,222.82 z"
           id="path22" />
        <path
           style="fill:none"
           inkscape:connector-curvature="0"
           d="m 351.8641,579.1036 c -0.05,0.45 -0.1499,1.34 -0.2,1.79 0.01,73.68 0.05,147.36 -0.02,221.03 1.3298,-0.02 2.6699,-0.03 4.01,-0.03 l 1.25,0.03 c -0.05,-74.21 -0.1201,-148.42 0.03,-222.6299 -1.6901,-0.0701 -3.3801,-0.1301 -5.07,-0.1901 z"
           id="path24" />
        <path
           style="fill:none"
           inkscape:connector-curvature="0"
           d="m 336.494,621.8035 c -0.0898,-14.28 0.28,-28.6 -0.3499,-42.86 -1.72,0.07 -3.4299,0.11 -5.1501,0.14 l 0.0601,0.16 c -0.3,74.2 -0.01,148.41 -0.1499,222.62 l 1.1199,0.03 c 1.3801,0 2.78,0.02 4.1702,0.05 0.52,-4.69 0.2598,-9.41 0.29,-14.11 -0.0104,-55.34 0.0297,-110.6899 0.01,-166.03 z"
           id="path26" />
        <path
           style="fill:none"
           inkscape:connector-curvature="0"
           d="m 362.034,579.1235 c 0.0801,74.12 -0.03,148.24 0.0601,222.35 0.47,0.15 1.4099,0.46 1.8799,0.61 0.3401,-0.01 1.0103,-0.03 1.3501,-0.04 l 1.9199,-0.52 c 0.0601,-74.12 -0.04,-148.26 0.04,-222.39 -1.75,-0.01 -3.5,-0.01 -5.25,-0.01 z"
           id="path28" />
        <path
           style="fill:none"
           inkscape:connector-curvature="0"
           d="m 578.644,579.0735 c -1.6799,0.01 -3.3601,0.02 -5.03,0.03 l -0.5701,-0.02 c -0.1199,72.57 -0.05,145.13 -0.0701,217.69 -0.0498,1.74 0.0801,3.5 0.4001,5.24 1.78,-0.09 3.5798,-0.14 5.3799,-0.17 -0.1698,-74.2599 1e-4,-148.5099 -0.1098,-222.77 z"
           id="path30" />
        <path
           style="fill:none"
           inkscape:connector-curvature="0"
           d="m 415.9241,430.6335 c 7.7998,-5.17 15.27,-11.22 20.9299,-18.72 0.4099,-0.38 1.23,-1.15 1.6399,-1.5299 h 0.0801 c 11.6401,-14.43 20.1101,-31.94 22.22,-50.45 1.52,-9.4502 1.73,-19.1301 0.25,-28.6001 0.1501,-1.9399 -0.29,-3.8601 -0.5999,-5.75 -4.5801,-24.3601 -18.2002,-47.0601 -37.9402,-62.1299 -0.3999,-0.27 -1.2,-0.8301 -1.5999,-1.1101 -0.3801,-0.27 -1.1501,-0.8101 -1.53,-1.0801 -0.5601,-1.26 -2.3301,-1.6799 -3.3899,-2.53 -28.6,-19.4099 -67.2101,-22.5398 -98.6901,-8.3599 -26.0798,11.4199 -46.8699,34.1699 -55.9099,61.1699 -7.29,21.3 -7.25,44.98 0.03,66.28 8.21,24.3801 25.96,45.36 48.6299,57.53 18.6702,10.16 40.5701,14.25 61.6599,11.53 0.7402,-0.13 2.2302,-0.38 2.9702,-0.51 14.71,-1.8599 28.8598,-7.6499 41.25,-15.7399 z m -16.2401,-127.16 c 6.7,-0.67 12.83,3.4501 16.22,8.9901 1,3.73 1.6799,7.6099 1.11,11.48 -0.1901,0.5898 -0.5599,1.77 -0.74,2.3599 -0.28,0.6001 -0.58,1.1901 -0.88,1.79 -2.1101,3.8201 -5.74,6.3601 -9.64,8.1001 -2.86,0.49 -5.77,0.47 -8.65,0.2999 -5.98,-1.85 -11.29,-6.52 -12.52,-12.84 -2.53,-9.4899 5.33,-19.84 15.1,-20.18 z m -18.8,65.82 c 1.43,-1.6599 3.04,-3.1499 4.65,-4.6199 3.98,-2.1401 8.69,-3.15 13.13,-2.03 5.94,1.3201 10.8001,6.27 12.2501,12.1399 1.48,5.55 -0.4301,11.7401 -4.49,15.7301 -3.97,4.0299 -10.16,5.83 -15.65,4.33 -6.26,-1.4299 -11.34,-6.8799 -12.42,-13.2 -0.8401,-4.2701 0.3299,-8.68 2.5299,-12.3501 z m -87.1,-31.54 c -2.85,-8.76 3.2,-18.85 12.13,-20.75 7.55,-1.92 16.01,2.3099 19.01,9.49 3.87,8.3099 -0.59,19.1901 -9.27,22.23 -8.67,3.65 -19.5599,-1.89 -21.87,-10.97 z m 55.55,55.2101 c -2.23,7.4799 -9.68,13.2599 -17.62,12.4499 -8.39,-0.55 -15.57,-8.17 -15.31,-16.6201 -0.26,-8.7799 7.62,-16.6599 16.3799,-16.51 7.58,-0.3198 14.34,5.25 16.53,12.3301 0.3001,2.77 0.3001,5.5701 0.0201,8.3501 z m -2.55,-87.8701 c -9.62,-1.1 -16.52,-11.6899 -13.59,-20.95 1.41,-5.15 5.54,-9.4 10.57,-11.1101 10.23,-3.98 22.67,4.6702 22.01,15.7201 0.42,9.7701 -9.4299,18.08 -18.99,16.34 z"
           id="path32" />
        <path
           style="fill:none"
           inkscape:connector-curvature="0"
           d="m 960.814,801.8936 c 1.76,-0.01 3.53,0 5.3201,0.03 -12.6001,-74.28 -25.0901,-148.5699 -37.76,-222.84 -1.74,0.01 -3.46,0.01 -5.1702,0.01 -24.1699,54.94 -48.2998,109.89 -72.48,164.81 -23.4299,-54.94 -47.0098,-109.82 -70.3999,-164.78 -1.8799,-0.02 -3.75,-0.03 -5.6201,-0.03 24.23,56.6 48.52,113.19 72.77,169.78 1.1301,2.69 -1.4399,5.1 -2.3298,7.52 -25.0701,-59.18 -50.5801,-118.16 -75.77,-177.29 h -5.8 c 26.21,61.44 52.79,122.73 79.0701,184.14 -1.05,2.15 -1.95,4.4 -3.3701,6.35 -4.4399,-11.27 -9.4099,-22.32 -14.05,-33.51 -22.21,-52.33 -44.2798,-104.71 -66.5898,-156.99 -2.02,0.01 -4.04,0 -6.04,0.01 27.95,65.91 55.96,131.8 84.03,197.67 -0.95,2.04 -1.8899,4.09 -2.8601,6.13 -29.0898,-67.94 -58.04,-135.93 -87.21,-203.83 -1.8501,0.02 -3.6899,0.04 -5.52,0.08 30.1101,70.18 59.96,140.47 90.1001,210.64 -0.8901,1.96 -1.8501,3.89 -2.9102,5.78 -30.8799,-72.16 -61.5999,-144.38 -92.6099,-216.48 -1.8401,0.01 -3.6602,0.02 -5.47,0.03 -12.47,74.27 -25.1101,148.52 -37.6702,222.78 1.7402,-0.02 3.5,-0.02 5.2603,-0.02 11.9497,-71.07 24,-142.12 35.7998,-213.21 1.78,2.7401 3.28,5.84 3.99,9.04 -11.3298,68.1 -23.0901,136.14 -34.3098,204.27 1.6099,-0.05 3.2197,-0.0699 4.8398,-0.08 11.1802,-65.37 22.3,-130.74 33.3,-196.13 1.4299,3.15 3.7,6.35 3.53,9.93 -10.5,62.06 -20.8801,124.14 -31.4399,186.19 1.77,-0.01 3.54,-0.01 5.3298,0.01 8.4299,-50.11 16.9299,-100.2 25.4001,-150.3 1.73,-9.22 2.8101,-18.57 4.9399,-27.7 1.0698,3.63 4.04,7.07 3.0801,11.03 -9.3601,55.68 -18.7402,111.35 -28.0701,167.02 1.5701,-0.04 3.1399,-0.07 4.72,-0.09 9.1401,-53.72 18.3398,-107.44 27.5701,-161.16 1.1699,3.55 3.6099,7.04 3.05,10.91 -8.3601,50.1 -16.6401,100.22 -25.0103,150.32 1.6602,-0.03 3.3401,-0.04 5.0303,-0.04 8.0598,-47.67 16.23,-95.33 24.3398,-143 1.72,3.02 2.8799,6.3 4.28,9.47 19.1699,44.53 38.1399,89.14 57.3999,133.63 1.95,-0.09 3.9102,-0.16 5.8701,-0.27 30.8499,-71.13 62.1299,-142.08 93.0701,-213.17 0.8398,3.02 2.04,6.29 1.5098,9.42 -29.8298,67.98 -59.5898,136 -89.45,203.97 l 5.2412,-0.005 85.7856,-195.4383 1.7283,10.0479 -81.373,185.3851 0.1379,-10e-5 c 0.6882,-0.0779 2.6887,-0.1099 5.1091,-0.1189 l 77.5884,-176.7629 1.728,10.0479 -73.1824,166.7256 c 2.9155,0.015 5.4509,0.0362 6.2368,0.0284 14.5901,-33.76 29.4402,-67.41 44.0901,-101.14 8.3201,-18.6 16.05,-37.47 24.6401,-55.93 0.1499,3.25 1.7598,6.65 0.7898,9.85 -21.51,49.1 -43.03,98.19 -64.55,147.28 1.9902,-0.03 3.9902,-0.07 6,-0.13 20.2202,-46.16 40.3,-92.39 60.8401,-138.4 7.8603,46.1599 15.7502,92.3199 23.5002,138.5099 z"
           id="path34" />
        <path
           style="fill:none"
           inkscape:connector-curvature="0"
           d="m 677.7239,785.8035 c -29.5999,-0.02 -59.2,0.3 -88.7998,-0.16 0.01,-1.45 -0.03,-2.89 -0.1101,-4.32 27.97,0.12 55.9299,0.01 83.9001,0.06 2.7798,0 5.5898,0.2 8.3398,-0.36 l -0.3899,-1.32 c 0.0198,-0.47 0.05,-1.4 0.0598,-1.86 l 0.27,-1.3 c -2.75,-0.53 -5.5601,-0.34 -8.3298,-0.33 -25.99,0.01 -51.99,-0.04 -77.9802,0.02 -2.0498,-0.0699 -4.1997,0.27 -6.1399,-0.53 0.8701,-1.29 0.8501,-2.56 -0.05,-3.83 l 0.4502,-0.78 c 30.6299,-0.17 61.2598,-0.06 91.8899,-0.06 l -0.1101,-1.44 c 0,-0.42 0.0103,-1.27 0.02,-1.7 l 0.28,-1.58 c -4.72,-0.84 -9.55,-0.18 -14.3098,-0.38 -25.9202,-0.07 -51.8501,0.11 -77.7603,-0.08 0.02,-1.69 0.04,-3.38 0.0701,-5.05 30.6001,0.06 61.2,0.01 91.8,0.03 l -0.0898,-1.04 c -0.0103,-1.3701 0,-2.73 0.01,-4.09 -30.54,0.14 -61.0999,-0.25 -91.6299,0.2 l -0.1401,-0.06 c 0.1101,-58.87 -0.0798,-117.74 0.0901,-176.6 -1.76,-0.1 -3.52,-0.17 -5.27,-0.24 -0.27,74.3 0,148.61 -0.1299,222.92 l 0.8799,-0.03 c 30.55,-0.22 61.1201,0.32 91.6599,-0.26 1.5103,0.26 3.0601,0.29 4.6201,0.38 -0.05,-1.39 -0.0898,-2.78 -0.1099,-4.15 l 0.0898,-1.24 c -30.5801,0.08 -61.1499,-0.03 -91.73,0.06 -0.1001,-1.66 -0.1001,-3.3 -0.1299,-4.94 30.6199,-0.1 61.23,-0.01 91.8398,-0.04 -0.04,-1.31 -0.0698,-2.6 -0.1001,-3.88 l 0.4001,-1.34 c -1.0599,-0.5299 -2.1797,-0.75 -3.3599,-0.68 z"
           id="path36" />
        <path
           style="fill:none"
           inkscape:connector-curvature="0"
           d="m 971.5239,801.9335 c 1.6401,-0.06 3.3101,-0.1 4.98,-0.14 -12.51,-74.2 -25.0398,-148.4 -37.3599,-222.63 -1.79,-0.03 -3.5801,-0.05 -5.3501,-0.07 12.5701,74.28 25.1302,148.5701 37.73,222.84 z"
           id="path38" />
        <path
           style="fill:none"
           inkscape:connector-curvature="0"
           d="m 965.1641,579.1135 c 12.53,74.26 25.1299,148.51 37.6899,222.76 1.73,0.01 3.48,0.02 5.24,0.06 -12.53,-74.29 -25.1099,-148.57 -37.71,-222.84 -1.75,0.0101 -3.49,0.0101 -5.2199,0.02 z"
           id="path40" />
        <path
           style="fill:none"
           inkscape:connector-curvature="0"
           d="m 722.104,366.5535 c 12.27,12.73 27.25,22.8701 43.6499,29.48 l 1.1902,-0.22 c 0.2,0.3201 0.6099,0.9399 0.8098,1.26 9.1301,2.7501 18.27,6.23 27.8701,6.72 11.6699,1.87 23.6199,1.8601 35.3,0.0801 2.5,0.1499 4.95,-0.4401 7.3999,-0.8901 1.3701,-0.25 2.79,-0.48 4.1899,-0.72 8.9399,-2.52 17.8601,-5.2901 26.21,-9.44 1.1602,-0.54 2.28,-1.1199 3.4502,-1.6699 l 0.24,0.03 c 9.5701,-5.23 19.0701,-11.28 26.7898,-18.9102 2.5701,-2.3699 5.3101,-4.6399 7.4402,-7.4399 0.7,-0.79 1.4199,-1.5701 2.1399,-2.3501 2.78,-2.6799 5.03,-5.8398 7.3601,-8.8999 1.76,-2.29 3.8201,-4.4299 5.01,-7.1001 -0.0271,-0.3601 9.0298,-15.45 10.8101,-22.0798 0.2,-0.1602 4.1899,-10.6899 5.3599,-15.8701 7.8,-31.74 3.1899,-66.72 -13.8599,-94.74 -0.48,-0.9199 -0.9402,-1.8301 -1.3801,-2.73 -0.99,-1.6299 -2.1101,-3.1499 -3.3899,-4.53 -2.4202,-4.8899 -6.2002,-9.04 -9.9102,-13 0,0 -6.0193,-5.8191 -5.79,-5.8298 -2.8599,-3.8601 -6.8599,-6.6501 -10.4399,-9.77 -2.01,-1.4202 -10.8,-7.6401 -11.78,-8.3201 -9.3599,-5.6401 -19.3401,-10.3 -29.7898,-13.5 -5.4001,-1.3501 -10.77,-2.9299 -16.29,-3.6799 -2.6201,-0.6802 -5.3301,-1 -8.03,-1 -14.76,-0.6401 -29.8,-0.8701 -44.1902,3.0498 l 0.03,0.5 c -2.01,0.1201 -4.03,0.3801 -5.95,0.99 -8.8101,2.76 -17.3398,6.4202 -25.4099,10.9202 l -0.04,0.27 c -3.51,1.8398 -6.8899,3.9199 -10.05,6.2998 -3.1299,1.53 -5.6899,4.0701 -8.45,6.1702 -3.01,2.6799 -6.52,5 -8.6101,8.54 -0.3198,0.1499 -0.96,0.4399 -1.2798,0.5898 l -0.9402,0.97 c -0.7898,0.6702 -1.5798,1.4202 -1.9199,2.4102 -2.0901,1.71 -3.8899,3.75 -5.26,6.0698 -4.21,4.3901 -7.3999,9.7302 -10.6001,14.9001 -18.2998,30.3999 -22.6299,68.6399 -12.1299,102.47 5.8301,18.99 16.26,36.53 30.0698,50.8 0.04,0.04 0.1301,0.1298 0.1701,0.1699 z m 129.17,-134.0299 c 0.0299,-0.03 0.1,-0.09 0.14,-0.12 4.62,-4.0701 11.0601,-6.22 17.1799,-5.01 7.6201,1.09 14,7.04 16.4,14.25 0.67,2.95 0.6801,5.99 0.64,9 -1.02,5.62 -4.2,10.85 -9,14 -7.4299,5.21 -18.26,4.3999 -25.01,-1.5901 -0.03,-0.0299 -0.1,-0.0898 -0.1399,-0.1299 -8.9,-7.6201 -9.0499,-22.6701 -0.21,-30.4 z m -13.9799,85.2999 c 0.7,-6.59 4.8099,-12.74 10.74,-15.75 6.35,-3.45 14.5399,-3.1199 20.64,0.74 4.58,2.7101 7.3799,7.4301 9.26,12.26 0.3999,3.1901 0.45,6.4401 -0.0901,9.6201 -1.73,5.3699 -5.0499,10.4399 -10.1399,13.1299 -6.27,3.73 -14.53,3.54 -20.6501,-0.3799 -3.6899,-2.1901 -6.23,-5.75 -8.6399,-9.2001 -0.68,-3.42 -1.5701,-6.9 -1.12,-10.42 z m -56.13,-112.1699 c 1.02,-6.76 5.72,-12.41 11.6399,-15.6101 0.54,-0.1699 1.6301,-0.5 2.1702,-0.6699 5.0399,-2.04 10.3999,-1.02 15.3398,0.76 4.05,2.52 7.9102,5.75 9.8501,10.24 2.96,6.61 2.22,14.84 -2.1899,20.64 -4.99,6.9 -14.6001,10.2799 -22.7001,7.35 -9.4601,-2.71 -15.83,-13.0401 -14.11,-22.71 z m 12.9099,110.7199 c 0.04,0.03 0.1101,0.0801 0.1401,0.11 1.3599,1.13 2.6099,2.39 3.73,3.76 0.03,0.0399 0.09,0.11 0.1099,0.15 2.8801,4.1 4.4202,9.23 3.8401,14.24 -0.75,8.26 -7.0601,15.73 -15.14,17.73 -6.33,1.86 -13.46,0.0801 -18.48,-4.1 -6.16,-5.03 -8.9301,-13.89 -6.5,-21.49 1.84,-6.6 7.36,-11.9301 13.92,-13.8 6.22,-2.13 13.1699,-0.38 18.3799,3.4 z m -47.8899,-72 c 5.76,-1.78 12.4199,-1.28 17.5,2.15 6.36,4 10.2,11.65 9.34,19.16 -0.51,10.6199 -10.73,19.52 -21.3099,18.6099 -10.6301,-0.1899 -19.8101,-9.9399 -19.52,-20.5399 -0.0902,-8.5899 5.8898,-16.66 13.9899,-19.38 z"
           id="path42" />
        <path
           style="fill:none"
           inkscape:connector-curvature="0"
           d="m 954.7639,579.1036 c 12.51,74.27 25.01,148.54 37.4001,222.8199 1.76,-0.01 3.53,-0.01 5.3098,0.01 -12.5999,-74.27 -25.0498,-148.57 -37.77,-222.82 -1.6599,-0.01 -3.2997,-0.01 -4.9399,-0.01 z"
           id="path44" />
        <path
           style="fill:none"
           inkscape:connector-curvature="0"
           d="m 944.094,579.1135 c 12.6899,74.2401 25.1401,148.52 37.77,222.77 1.74,0 3.49,0 5.26,0.02 -12.5601,-74.27 -25.1599,-148.54 -37.6902,-222.82 -1.7898,0.0101 -3.5698,0.0101 -5.3398,0.03 z"
           id="path46" />
        <path
           inkscape:connector-curvature="0"
           d="m 795.274,228.3635 c 8.1,2.9299 17.7101,-0.45 22.7001,-7.35 4.4099,-5.8 5.1499,-14.03 2.1899,-20.64 -1.9399,-4.49 -5.8,-7.72 -9.8501,-10.24 -4.9399,-1.78 -10.2999,-2.8 -15.3398,-0.76 -0.54,0.1699 -1.6301,0.5 -2.1702,0.6699 -5.9199,3.2001 -10.6199,8.8501 -11.6399,15.6101 -1.7199,9.67 4.65,20.0001 14.11,22.71 z"
           id="path48" />
        <path
           inkscape:connector-curvature="0"
           d="m 851.4841,262.9236 c 0.0399,0.04 0.1099,0.1 0.1399,0.1299 6.75,5.99 17.5801,6.8 25.01,1.5901 4.8,-3.15 7.98,-8.38 9,-14 0.04,-3.01 0.03,-6.05 -0.64,-9 -2.4,-7.21 -8.7799,-13.16 -16.4,-14.25 -6.1199,-1.21 -12.5599,0.9399 -17.1799,5.01 -0.04,0.03 -0.1101,0.09 -0.14,0.12 -8.84,7.7299 -8.6901,22.7799 0.21,30.4 z"
           id="path50" />
        <path
           inkscape:connector-curvature="0"
           d="m 751.7141,284.2935 c 10.58,0.9102 20.7999,-7.99 21.3099,-18.6099 0.86,-7.51 -2.98,-15.16 -9.34,-19.16 -5.0801,-3.4301 -11.74,-3.9301 -17.5,-2.15 -8.1001,2.72 -14.0801,10.79 -13.99,19.38 -0.2899,10.5999 8.89,20.3499 19.5201,20.5399 z"
           id="path52" />
        <path
           inkscape:connector-curvature="0"
           d="m 343.764,273.0334 c -5.03,1.7101 -9.16,5.9601 -10.57,11.1101 -2.93,9.26 3.97,19.85 13.59,20.95 9.5601,1.74 19.41,-6.5699 18.9901,-16.34 0.6599,-11.0499 -11.7801,-19.7 -22.0101,-15.7201 z"
           id="path54" />
        <path
           inkscape:connector-curvature="0"
           d="m 847.054,337.4436 c 6.1201,3.9199 14.3801,4.1099 20.6501,0.3799 5.09,-2.6899 8.4099,-7.76 10.1399,-13.1299 0.54,-3.1801 0.49,-6.4301 0.0901,-9.6201 -1.8801,-4.83 -4.6801,-9.5499 -9.26,-12.26 -6.1001,-3.8599 -14.29,-4.1899 -20.64,-0.74 -5.9301,3.01 -10.04,9.16 -10.74,15.75 -0.4501,3.52 0.4401,7 1.12,10.42 2.4099,3.4501 4.9499,7.01 8.6399,9.2001 z"
           id="path56" />
        <path
           inkscape:connector-curvature="0"
           d="m 397.104,336.4935 c 2.88,0.17 5.79,0.1901 8.65,-0.2999 3.9,-1.74 7.5299,-4.28 9.64,-8.1001 0.3,-0.6 0.6,-1.1899 0.88,-1.79 0.1801,-0.5898 0.5499,-1.77 0.74,-2.3599 0.5699,-3.8701 -0.11,-7.75 -1.11,-11.48 -3.39,-5.54 -9.52,-9.6602 -16.22,-8.9901 -9.77,0.34 -17.63,10.6901 -15.1,20.1801 1.23,6.3199 6.54,10.99 12.52,12.8399 z"
           id="path58" />
        <path
           inkscape:connector-curvature="0"
           d="m 761.774,326.7736 c -2.4301,7.6 0.34,16.46 6.5,21.49 5.02,4.1801 12.15,5.96 18.48,4.1 8.08,-2 14.39,-9.47 15.14,-17.73 0.5801,-5.01 -0.96,-10.14 -3.8401,-14.24 -0.0199,-0.04 -0.0798,-0.1101 -0.1099,-0.15 -1.1201,-1.37 -2.3701,-2.63 -3.73,-3.76 -0.03,-0.0299 -0.1001,-0.08 -0.1401,-0.11 -5.21,-3.78 -12.1599,-5.53 -18.3799,-3.4 -6.56,1.8699 -12.08,7.2 -13.92,13.8 z"
           id="path60" />
        <path
           inkscape:connector-curvature="0"
           d="m 324.924,326.4935 c -3,-7.1801 -11.46,-11.41 -19.01,-9.49 -8.93,1.9 -14.98,11.99 -12.13,20.75 2.3101,9.08 13.2,14.62 21.8701,10.97 8.6799,-3.0399 13.1399,-13.92 9.2699,-22.23 z"
           id="path62" />
        <path
           inkscape:connector-curvature="0"
           d="m 390.774,394.8435 c 5.49,1.5 11.6801,-0.3 15.65,-4.33 4.0599,-3.99 5.97,-10.1801 4.49,-15.7301 -1.45,-5.8699 -6.3101,-10.8198 -12.2501,-12.1399 -4.44,-1.12 -9.15,-0.1101 -13.13,2.03 -1.61,1.47 -3.22,2.96 -4.65,4.6199 -2.2,3.6702 -3.37,8.0801 -2.53,12.3501 1.0801,6.3201 6.1601,11.7701 12.4201,13.2 z"
           id="path64" />
        <path
           inkscape:connector-curvature="0"
           d="m 332.784,372.2834 c -8.7599,-0.1499 -16.64,7.7301 -16.3799,16.51 -0.26,8.4501 6.92,16.0701 15.31,16.6201 7.94,0.81 15.39,-4.97 17.62,-12.4499 0.28,-2.78 0.28,-5.5801 -0.02,-8.3501 -2.1901,-7.0801 -8.9501,-12.6499 -16.5301,-12.3301 z"
           id="path66" />
        <path
           inkscape:connector-curvature="0"
           d="m 897.9341,1045.9735 c -2.01,-10.84 -4.5801,-21.58 -6.45,-32.4399 0.1899,-0.21 0.5798,-0.64 0.7699,-0.86 6.17,-0.38 12.37,0.14 18.5499,-0.2201 -0.0199,-14.23 -0.01,-28.46 0.1001,-42.6899 0.02,-0.36 0.05,-1.07 0.0701,-1.43 -0.3,-14.06 -0.2301,-28.13 -0.05,-42.19 -66.76,0.02 -133.51,0.03 -200.26,0 -27.3,1.13 -54.64,0.39 -81.96,0.59 -36.67,0.02 -73.3301,0.01 -110,0 -6.1602,-0.06 -12.3601,0.29 -18.4801,-0.58 0.13,28.91 0,57.81 0.0699,86.71 7.4401,-0.06 14.8801,-0.01 22.3201,-0.02 -0.11,0.55 -0.3301,1.66 -0.4399,2.2101 -0.02,0.1 -0.0701,0.2899 -0.0901,0.38 -9.73,47.09 -19.05,94.26 -28.61,141.39 -3.45,17.6499 -7.35,35.23 -10.49,52.9399 h 33 c 13.1901,-65.65 26.4501,-131.29 39.67,-196.9301 15.01,-0.02 30.02,0.07 45.03,-0.05 0.6499,4.9299 0.8799,9.91 1.1399,14.88 0.26,6.99 1.2201,13.97 1.1201,20.98 -1.51,7.35 -3.9,14.5 -5.73,21.78 -12.6602,46.4399 -25.1901,92.9099 -37.9001,139.34 h 33.6801 c 5.55,-19.89 10.77,-39.88 16.33,-59.76 0.6301,7.38 1.1501,14.79 1.3601,22.21 0.28,3.9301 0.6,7.8601 0.8199,11.8101 0.0499,1.01 0.1,2.04 0.15,3.1 l 0.0701,1.3 c 0.6099,7.1 0.9399,14.22 1.4199,21.34 h 38.71 c 0.04,-0.3101 0.1201,-0.9301 0.17,-1.24 -0.16,-1.5601 -0.28,-3.1 -0.38,-4.63 -1.3301,-20.46 -2.73,-40.92 -3.75,-61.39 -0.0601,-0.92 -0.1799,-2.78 -0.24,-3.7 -0.77,-9.8 -1.4,-19.61 -1.8401,-29.41 -0.1299,-1.8101 -0.26,-3.58 -0.3499,-5.37 -0.28,-3.59 -0.6101,-7.1801 -0.6401,-10.78 -0.5599,-7.09 -0.9299,-14.2 -1.3199,-21.2999 -0.96,-11.3401 -1.4301,-22.7201 -2.24,-34.0701 -0.1901,-2.39 -0.2899,-4.8199 0.41,-7.12 1.62,-5.99 3.27,-11.98 4.8999,-17.96 16.27,0.06 32.54,0.08 48.8201,0 5.85,-0.89 11.8101,-0.7001 17.7,-0.2001 5.96,0.51 11.9501,0.08 17.9301,0.3301 8.84,0.22 17.6901,0 26.5299,0.08 -0.3198,10.98 -0.8899,21.95 -1.5199,32.92 l -0.0499,0.8199 c -0.1501,2.17 -0.3,4.35 -0.3901,6.55 -1.0699,22.26 -2.1499,44.5399 -3.47,66.7899 -0.1,3.0901 -0.29,6.1801 -0.47,9.28 -1.22,25.5601 -2.4299,51.13 -3.99,76.6801 l -0.0701,1.3199 c 0.01,0.6 0.02,1.8 0.03,2.4 h 38.8 c 0.37,-8.03 0.72,-16.0601 1.3101,-24.08 0.0399,-0.67 0.1199,-2.02 0.1599,-2.7001 0.01,-0.85 0.03,-1.6899 0.0701,-2.52 0.1499,-4.4099 0.46,-8.7999 0.74,-13.1899 0.8099,-20.47 2.01,-40.92 3.1299,-61.38 9.25,34.67 18.67,69.29 28.2001,103.87 h 33.46 c -14.2799,-52.36 -28.5199,-104.74 -42.66,-157.14 -0.49,-1.62 -0.9399,-3.23 -1.3699,-4.84 -3.24,-11.5701 -6.27,-23.2001 -9.4601,-34.78 4.2101,-0.53 8.4301,0.13 12.66,-0.04 6.22,-0.1799 12.4399,-0.1599 18.6699,-0.05 9.02,0.1799 18.05,0.07 27.0801,0.1 2.08,10.9399 4.38,21.85 6.55,32.78 l 0.1799,0.87 0.27,1.28 c 10.87,53.95 21.61,107.9199 32.6799,161.8199 h 33 c -10.96,-53.28 -21.54,-106.64 -32.3599,-159.95 -0.2799,-1.3 -0.5399,-2.57 -0.7999,-3.84 z"
           id="path68" />
        <path
           inkscape:connector-curvature="0"
           d="m 1268.7739,745.9536 c 0.01,-4.89 0.06,-9.79 0.01,-14.68 -0.06,-10.99 -0.02,-21.97 -0.01,-32.96 -0.015,-4.5483 -0.027,-9.0966 -0.031,-13.6436 h -2e-4 v -30.5464 c -0.01,0 -0.019,10e-5 -0.029,10e-5 0,-3.4944 0.015,-6.9887 0.029,-10.4831 v -20.5211 c -0.01,-1.3828 -0.01,-2.7659 0,-4.1492 V 594.61 c 0,-2.3292 -0.012,-4.658 -0.029,-6.9865 0.08,-33 0.05,-66.01 0.02,-99.01 l -0.01,-0.64 c -0.1099,-12.1801 0.2402,-24.36 -0.1499,-36.54 -5.6802,3.28 -11.1602,6.89 -16.8999,10.06 -0.8601,0.47 -1.71,0.93 -2.5303,1.41 -14.25,9.1299 -28.9097,17.65 -43.3398,26.5 -15.04,9.11 -30.1001,18.2 -45.1299,27.33 -6.73,3.84 -13.0901,8.41 -20.0303,11.8 -22.6199,0.42 -45.2698,0.08 -67.8896,0.17 -4.02,0.09 -8.04,0.12 -12.0503,-0.01 -6.6099,-0.02 -13.21,0.05 -19.8098,0.01 -0.03,19.02 -0.02,38.04 0,57.06 0,0.46 0.01,1.37 0.01,1.83 0.01,5.36 -0.03,10.71 -0.09,16.07 -0.5701,0.2 -1.72,0.6 -2.29,0.8 0.5801,-0.17 1.75,-0.53 2.3301,-0.71 0.02,9.78 0.04,19.56 0.02,29.33 0,7.2 0.04,14.41 0.02,21.61 v 0.84 c -0.05,5.27 -0.01,10.54 -0.03,15.81 v 0.47 c 0.04,16.58 -0.1001,33.16 0.07,49.74 7.54,0.18 15.0901,0.12 22.6301,0.08 6.0701,0 12.1501,-0.01 18.23,0 10.73,0.07 21.47,-0.04 32.2,0.08 h 0.3901 c 5.8599,-0.14 11.72,-0.07 17.5898,-0.08 4.0303,0.17 8.54,-0.86 12.0103,1.79 12.0098,7.6 24.52,14.41 36.3198,22.35 1.0701,0.54 2.1401,1.1 3.23,1.7 1.6099,0.91 3.1802,1.9 4.77,2.88 0.3701,0.22 1.1001,0.67 1.47,0.9 3.9802,2.25 7.74,4.91 11.9299,6.8 l 2.4993,1.5454 c 0.064,-0.0472 0.1233,-0.0903 0.1709,-0.1254 0.3093,0.2842 0.6292,0.5533 0.9517,0.8194 l 26.958,16.6692 -2e-4,2e-4 c 12.1406,7.3602 24.2781,14.7265 36.4604,22.0211 0.08,-17.0699 0.02,-34.14 0.02,-51.2 0,-0.4599 0.01,-1.3698 0.01,-1.8298 z"
           id="path70" />
        <path
           inkscape:connector-curvature="0"
           d="m 1045.4641,390.5435 c 2.0498,-4.3699 3.8999,-8.8398 5.71,-13.3101 0.7998,-2.1899 1.6399,-4.3699 2.52,-6.5398 5.5698,-15 9.5498,-30.5601 12.23,-46.3201 0.05,-0.3101 0.1499,-0.9399 0.2,-1.26 6.8601,-44.71 1.8201,-91.22 -15.0901,-133.21 -0.1499,-0.3601 -0.45,-1.0701 -0.6001,-1.4202 -2.1199,-4.97 -4.4299,-9.8499 -6.6799,-14.75 -3.01,-6.27 -6.3599,-12.3699 -9.8999,-18.3499 -8.78,-14.8501 -19.29,-28.6101 -30.79,-41.46 -22.55,-24.4102 -49.79,-44.5 -79.97,-58.4402 -59.0901,-27.6299 -129.03,-30.75 -190.4102,-8.72 l -0.7998,0.3 c -38.26,13.6899 -72.9102,37 -100.4102,66.8801 -11.45,12.5999 -21.4099,26.4299 -30.5598,40.7698 -3.2302,6.01 -6.6401,11.9302 -9.6401,18.0701 -2.5,5.1501 -4.8201,10.3901 -7.0701,15.6602 l -0.5598,1.3098 c -6.7102,16.8901 -11.76,34.4502 -14.7,52.3901 -10.3301,2.04 -20.6702,4.1299 -31.05,5.8499 -4.5801,-8.25 -10.4001,-15.7 -15.73,-23.46 -0.0601,-0.0698 -0.1702,-0.21 -0.23,-0.28 -3.78,-3.8198 -6.99,-8.1499 -10.7,-12.02 -7.4302,-8.0298 -15.5601,-15.3899 -24.1001,-22.22 l -0.6401,-0.51 c -11.4099,-8.6199 -23.5098,-16.3899 -36.3599,-22.6799 -1.1802,-0.5801 -2.3601,-1.1599 -3.54,-1.71 -5.6099,-2.53 -11.29,-4.9299 -17.02,-7.1799 -5.26,-1.53 -10.4199,-3.3901 -15.72,-4.8201 -36.35,-10.0801 -75.4599,-9.9299 -111.78,0.24 -31.8501,8.9099 -61.5,25.5801 -85.6699,48.1699 -24.78,22.99 -43.8401,52.1201 -54.9302,84.0601 -12.77,36.6101 -14.98,76.8101 -6.4099,114.6301 8.6001,38.39 28.5,74.14 56.48,101.78 26.6101,26.58 60.5901,45.53 97.0601,54.64 -0.1699,7.7 -0.0701,15.4 -0.0801,23.11 -14.0398,0.19 -28.0798,-0.02 -42.1299,0.11 -0.1301,-0.51 -0.4001,-1.52 -0.53,-2.02 -15.8701,-5.86 -31.72,-11.74 -47.5701,-17.64 -2.1101,-0.83 -4.3999,-0.88 -6.6399,-0.86 -10.23,0.08 -20.46,0.02 -30.6899,0.04 5.7998,11.89 11.48,23.83 17.23,35.74 1.7798,3.9 3.98,7.64 5.2798,11.76 l 0.1702,0.33 c 6.21,11.23 11.21,23.12 16.98,34.6 5.26,10.91 10.4399,21.85 15.75,32.7401 6.74,-1.98 13.5598,-3.71 20.3499,-5.52 3.6001,-5.84 7.1802,-11.69 10.7603,-17.54 l 0.5,-0.81 c 1.4497,-0.8199 3.1199,-0.81 4.7397,-0.81 10.3101,0.08 20.6201,0.1 30.9202,-0.01 1.71,-0.01 3.4199,0.2 5.0701,0.62 -0.25,86.75 -0.0801,173.5099 -0.0801,260.2599 22.23,-0.01 44.47,0 66.71,-0.01 -2.55,19.33 -5.25,38.64 -7.73,57.97 -48.9299,9.39 -97.8901,18.67 -146.8401,27.9901 l -0.7,0.1499 c -4.04,0.51 -8.1001,2.14 -12.1499,1.8 -10.4702,-5.13 -20.73,-10.72 -31.0901,-16.05 -1.28,-0.53 -2.5801,-1.56 -4.04,-1.08 -40.6699,7.74 -81.3401,15.55 -122.03,23.25 l -0.71,0.15 c -1.28,0.23 -2.5698,0.47 -3.8599,0.71 2.7998,23.92 6,47.8 8.77,71.73 29.0098,-5.2999 57.95,-10.97 86.9299,-16.4199 13.8599,-2.79 27.8699,-5 41.6399,-8.11 7.0601,-6.2301 13.1899,-13.49 20.1899,-19.8 l 0.1301,-0.14 c 2.6799,-2.98 5.5,-5.83 8.3601,-8.62 1.0098,-1.14 2.52,-1.49 3.9399,-1.8099 30.51,-6.5 60.99,-13.16 91.5,-19.6901 0.6799,-0.14 2.02,-0.4299 2.6899,-0.58 14.4299,-3.13 28.8701,-6.2201 43.3,-9.36 l 0.72,-0.17 c 9.1099,-1.92 18.1899,-3.93 27.3,-5.85 l 0.73,-0.1801 c 1.3201,-0.3199 2.6499,-0.61 3.98,-0.89 3.9399,-24.62 8.0601,-49.22 12.0798,-73.82 l 0.2402,-1.11 c 89.3298,-0.14 178.6699,-0.02 267.9999,-0.0601 10.23,0.26 20.5,-0.56 30.6899,0.47 86.45,-0.28 172.9099,-0.02 259.3501,-0.13 25.5698,0.17 51.1499,-0.29 76.6997,0.23 -0.5498,-23.83 -0.1,-47.69 -0.2397,-71.54 -0.1301,-55.98 0.25,-111.96 -0.02,-167.95 -0.26,-5.48 -0.26,-10.97 0.1699,-16.44 0.1401,-22.57 0.02,-45.14 0.05,-67.71 -0.3901,-33.22 -0.08,-66.45 -0.1599,-99.6801 0.05,-3.37 0.02,-6.75 -0.04,-10.12 -18.4001,-0.1 -36.8101,0.21 -55.2002,-0.15 4.73,-4.1801 9.53,-8.26 14.05,-12.67 l 2.8301,-3.03 c 2.3298,-2.15 4.5999,-4.37 6.77,-6.68 12.27,-13.41 23.3999,-27.92 32.5598,-43.64 l 0.6401,-1.03 c 3.5601,-6.1 6.8301,-12.37 9.9199,-18.7199 0.1805,-0.35 0.5203,-1.0499 0.7005,-1.4 z m -709.2699,411.4 c -1.3901,-0.03 -2.79,-0.05 -4.1702,-0.05 l -1.1199,-0.03 c 0.1399,-74.21 -0.1501,-148.42 0.1499,-222.62 l -0.0601,-0.16 c 1.7202,-0.03 3.4302,-0.07 5.1501,-0.14 0.6299,14.26 0.26,28.58 0.3499,42.86 0.02,55.34 -0.02,110.69 -0.01,166.03 -0.0302,4.7001 0.2301,9.42 -0.2899,14.11 z m 10.3598,-175.19 c 0.03,58.38 -0.05,116.76 0.04,175.14 -1.3501,-0.02 -2.7,-0.02 -4.04,-0.01 l -1.23,0.01 c 0,-74.23 0.1201,-148.45 -0.05,-222.68 1.8401,0 3.78,-0.31 5.53,0.43 -0.5698,15.68 -0.0898,31.41 -0.25,47.11 z m 10.3501,175.17 -1.25,-0.03 c -1.3401,0 -2.6802,0.01 -4.01,0.03 0.0701,-73.67 0.03,-147.35 0.02,-221.03 0.05,-0.45 0.1499,-1.34 0.2,-1.79 1.6899,0.06 3.3799,0.12 5.0701,0.19 -0.1502,74.21 -0.0801,148.4201 -0.0301,222.63 z m 10.3399,-0.3999 -1.9199,0.52 c -0.3398,0.01 -1.01,0.03 -1.3501,0.04 -0.47,-0.15 -1.4099,-0.46 -1.8799,-0.61 -0.0901,-74.11 0.02,-148.23 -0.0601,-222.35 1.75,0 3.5,0 5.25,0.01 -0.0801,74.1299 0.02,148.27 -0.04,222.39 z m -57.2,-366.1701 c -22.6699,-12.17 -40.4199,-33.15 -48.6299,-57.53 -7.28,-21.3 -7.3201,-44.98 -0.03,-66.28 9.04,-27 29.8301,-49.75 55.9099,-61.1699 31.48,-14.1799 70.0901,-11.05 98.6901,8.3599 1.0598,0.8501 2.8298,1.27 3.3899,2.53 0.3799,0.27 1.1499,0.8101 1.53,1.0801 0.3999,0.28 1.2,0.8401 1.5999,1.1101 19.74,15.0698 33.3601,37.7698 37.9402,62.1299 0.3098,1.8899 0.75,3.8101 0.5999,5.75 1.48,9.47 1.27,19.1499 -0.25,28.6001 -2.1099,18.51 -10.5798,36.02 -22.22,50.45 h -0.0801 c -0.4099,0.3799 -1.23,1.1499 -1.6399,1.5299 -5.6599,7.5 -13.1301,13.55 -20.9299,18.72 -12.3901,8.09 -26.54,13.88 -41.2499,15.74 -0.74,0.13 -2.23,0.38 -2.9702,0.51 -21.0899,2.7199 -42.9898,-1.3701 -61.66,-11.5301 z m 151.77,148.8101 c -28,0.33 -56.01,0.02 -84.02,0.16 -0.0999,1.74 0.1101,3.55 -0.3599,5.26 28.1198,-0.25 56.2499,-0.01 84.3698,-0.12 l -0.1699,1.4 c 0.01,1.23 0.03,2.48 0.05,3.73 -27.99,-0.05 -55.9802,0 -83.9699,-0.03 -0.0103,1.73 -0.04,3.47 0.0798,5.21 27.6901,-0.04 55.3901,0.02 83.09,-0.03 l 0.78,-0.01 c -0.03,1.7 -0.05,3.42 -0.05,5.14 -27.9102,-0.08 -55.8301,0.07 -83.7399,-0.07 -0.2,1.68 -0.1599,3.38 -0.1799,5.08 27.9899,-0.06 55.9899,-0.04 83.9799,0 -0.01,1.24 -0.01,2.5 -0.01,3.76 l 0.0898,1.38 c -27.97,-0.08 -55.9399,0.08 -83.9099,-0.08 -0.1401,1.73 -0.1299,3.48 -0.1499,5.23 25.3398,-0.08 50.6899,0 76.0297,-0.04 2.73,-0.01 5.5,-0.16 8.2002,0.37 l -0.01,1.44 c -0.1201,0.39 -0.3701,1.15 -0.5,1.54 l 0.49,1.57 c -1.7002,0.31 -3.4199,0.57 -5.1401,0.6 -26.3899,-0.05 -52.79,-0.03 -79.1799,0 -0.03,13.57 0.0801,27.14 -0.05,40.71 l 0.24,0.85 c 20.75,-0.07 41.4999,-0.17 62.2499,0.05 -0.03,1.67 -0.0398,3.36 -0.03,5.05 -20.7598,-0.09 -41.5097,0.05 -62.2597,-0.06 -0.0103,1.73 0.1599,3.5 -0.2402,5.22 20.8301,-0.29 41.6801,-0.01 62.52,-0.14 -0.01,1.76 -0.01,3.53 0,5.3 -20.7798,-0.09 -41.5698,0.03 -62.3498,-0.06 0.03,1.79 0.01,3.6 -0.04,5.41 3.3401,-0.5 6.72,-0.31 10.0901,-0.3199 17.4299,0 34.8598,-0.01 52.2897,0.01 -0.0198,1.73 -0.03,3.46 -0.03,5.21 -20.7898,-0.08 -41.5698,0.02 -62.3598,-0.05 -0.02,1.74 -0.0701,3.49 -0.02,5.25 14.6799,-0.66 29.4099,-0.1 44.1201,-0.28 5.7898,0.08 11.5898,-0.19 17.3899,0.17 l 0.8699,-0.18 c 0.0103,1.72 0.02,3.4399 0.05,5.18 -20.6499,-0.1 -41.3098,0.14 -61.9599,-0.12 -0.5601,1.69 -0.26,3.54 -0.3999,5.31 20.8201,0.11 41.6599,-0.36 62.4599,0.24 -0.0701,1.61 -0.1301,3.23 -0.1599,4.86 -20.75,-0.11 -41.4902,0.09 -62.2299,-0.11 -0.2402,29.59 -0.05,59.18 -0.1001,88.77 l -1.1602,0.1201 c -0.4897,-0.07 -1.47,-0.22 -1.96,-0.3 -0.5298,0.05 -1.5798,0.15 -2.0999,0.19 -0.01,-74.23 0.0898,-148.47 -0.05,-222.71 29.6599,-0.1 59.33,-0.09 88.9799,0 0.2,0.41 0.5801,1.24 0.77,1.66 -0.1899,0.44 -0.5601,1.31 -0.75,1.75 z m 21.06,217.75 -1.3,-0.03 c -1.3301,-0.01 -2.6499,0 -3.96,0.02 0.1399,-74.27 -0.1401,-148.55 0.1399,-222.82 1.7,0.02 3.4102,0.05 5.1201,0.07 -0.02,74.25 -0.01,148.51 0,222.76 z m 10.3201,-0.5901 c -0.46,0.18 -1.3701,0.55 -1.8301,0.73 -0.3201,-0.01 -0.96,-0.03 -1.28,-0.03 -0.5,-0.11 -1.51,-0.32 -2.01,-0.42 -0.1099,-74.16 -0.01,-148.32 -0.05,-222.48 h 5.26 c -0.0801,74.06 0.1,148.14 -0.0899,222.2 z m 9.98,0.94 -1.4001,-0.43 c -0.48,0.02 -1.4299,0.04 -1.9099,0.05 l -1.47,0.06 c -0.04,-74.26 0.0598,-148.52 -0.05,-222.78 1.76,-0.05 3.51,-0.13 5.28,-0.19 0.0798,73.27 -0.03,146.54 0.05,219.8 -0.01,1.1801 -0.1702,2.34 -0.5,3.49 z m 10.76,-0.08 -1.2302,-0.31 c -1.3499,0 -2.6899,0 -4.0298,0.01 0.0898,-54.69 0.01,-109.39 0.0298,-164.09 -0.0898,-19.44 0.2002,-38.89 -0.1499,-58.33 1.73,-0.29 3.48,-0.37 5.24,-0.39 l 0.6001,-0.01 c 0.3699,73.21 -0.0701,146.44 0.1899,219.65 0.04,1.2001 -0.1699,2.35 -0.6499,3.47 z m 10.4199,-0.26 c -1.77,-0.02 -3.55,-0.03 -5.3101,-0.03 -0.0798,-74.26 0.02,-148.53 -0.05,-222.79 1.78,-0.01 3.5701,0 5.3701,0.01 0.01,74.2701 0.01,148.5402 -0.01,222.8101 z m 2.26,-324.11 c 2.97,-4.79 6.46,-9.24 9.1699,-14.19 0.115,-0.017 1.51,-2.15 1.8901,-2.76 3.4099,-5.74 6.4099,-11.69 9.4199,-17.63 0.99,-2.38 2.03,-4.73 3.26,-6.99 2.3601,-6.74 5.23,-13.32 7.22,-20.2 8.3799,-1.08 16.5701,-3.4399 24.95,-4.35 1.3901,-0.4 2.79,-0.78 4.23,-1.0399 3.9299,-0.6702 7.8501,-1.3701 11.8,-1.9701 0.96,1.6801 1.9199,3.38 2.8999,5.0599 9.0701,14.5301 19.1702,28.4501 30.8801,40.98 l -0.01,0.17 c 2.78,2.76 5.5901,5.5 8.0901,8.52 5.4299,4.64 10.5798,9.69 16.03,14.36 -43.2699,0.1902 -86.55,0.1202 -129.83,0.0401 z m 20.1299,324.07 c -1.45,0 -2.8899,0.01 -4.3298,0.03 0,-74.19 0.1799,-148.39 -0.0901,-222.59 1.75,-0.21 3.51,-0.31 5.27,-0.36 0.23,74.3 -0.02,148.6 0.1201,222.9 z m 11.23,0.1401 -1.2598,-0.13 c -1.3601,-0.01 -2.7202,-0.02 -4.0701,-0.01 0.26,-68.72 0.0398,-137.44 0.1099,-206.16 -0.0898,-5.38 0.24,-10.77 -0.26,-16.13 1.71,-0.5 3.5,-0.47 5.28,-0.5 l 0.6501,-0.02 c 0.24,72.56 0,145.12 0.1199,217.69 -0.04,1.7499 -0.26,3.52 -0.57,5.26 z m 10.27,-0.0801 -1.5498,-0.04 -1.96,-0.04 -1.52,0.3 c -0.54,-3.1 -0.3801,-6.2401 -0.3701,-9.35 0,-53.7 -0.02,-107.4 -0.01,-161.1 0.1101,-17.41 -0.24,-34.83 0.28,-52.23 l -0.03,-0.33 c 1.73,0 3.47,-0.01 5.21,-0.01 l -0.03,0.42 c 0.5901,23.73 0.1201,47.48 0.26,71.21 0.01,32 0,64 0,96 -0.2,18.3901 0.3901,36.8 -0.2801,55.17 z m 5.1301,0.07 c -0.3201,-1.74 -0.45,-3.5 -0.4001,-5.24 0.02,-72.56 -0.0498,-145.12 0.0701,-217.69 l 0.5701,0.02 c 1.6699,-0.01 3.3501,-0.02 5.03,-0.03 0.1099,74.26 -0.0601,148.51 0.1099,222.77 -1.8001,0.03 -3.5999,0.08 -5.38,0.17 z m 107.4099,-10.3099 c -30.6099,0.03 -61.22,-0.06 -91.8398,0.04 0.0298,1.64 0.0298,3.28 0.1299,4.94 30.5801,-0.09 61.1499,0.02 91.73,-0.06 l -0.0898,1.24 c 0.02,1.37 0.0598,2.76 0.1099,4.15 -1.5601,-0.09 -3.1099,-0.12 -4.6201,-0.38 -30.5398,0.58 -61.1099,0.04 -91.6599,0.26 l -0.8799,0.03 c 0.1299,-74.31 -0.1401,-148.62 0.1299,-222.92 1.75,0.07 3.51,0.14 5.27,0.24 -0.1699,58.86 0.02,117.73 -0.0901,176.6 l 0.1401,0.06 c 30.53,-0.45 61.0898,-0.06 91.6299,-0.2 -0.01,1.36 -0.02,2.72 -0.01,4.09 l 0.0898,1.04 c -30.6001,-0.02 -61.2,0.03 -91.8,-0.03 -0.03,1.67 -0.05,3.36 -0.0701,5.05 25.9102,0.19 51.8401,0.01 77.7603,0.08 4.7598,0.2 9.5898,-0.46 14.3098,0.38 l -0.28,1.58 c -0.01,0.43 -0.02,1.28 -0.02,1.7 l 0.1101,1.44 c -30.6301,0 -61.26,-0.11 -91.8899,0.06 l -0.4502,0.78 c 0.9001,1.27 0.9202,2.54 0.05,3.83 1.9402,0.8 4.0901,0.46 6.1399,0.53 25.9902,-0.06 51.9902,-0.01 77.9802,-0.02 2.7698,-0.01 5.5798,-0.2 8.3298,0.33 l -0.27,1.3 c -0.01,0.46 -0.04,1.39 -0.0598,1.86 l 0.3899,1.32 c -2.75,0.56 -5.5601,0.36 -8.3398,0.36 -27.9702,-0.05 -55.9302,0.06 -83.9001,-0.06 0.0801,1.43 0.1199,2.87 0.1101,4.32 29.5999,0.46 59.2,0.14 88.7998,0.16 1.1802,-0.07 2.3,0.15 3.3601,0.68 l -0.4001,1.34 c 0.0301,1.28 0.0599,2.57 0.0999,3.88 z m 23.21,-578.5901 c 3.2002,-5.1699 6.3901,-10.51 10.6001,-14.9001 1.3701,-2.3198 3.1699,-4.3599 5.26,-6.0698 0.3401,-0.99 1.1301,-1.74 1.9199,-2.4102 l 0.9402,-0.97 c 0.3198,-0.1499 0.96,-0.4399 1.2798,-0.5898 2.0901,-3.54 5.6001,-5.8601 8.6101,-8.54 2.76,-2.1001 5.3201,-4.6401 8.45,-6.1702 3.1602,-2.3799 6.54,-4.46 10.05,-6.2998 l 0.04,-0.27 c 8.0701,-4.5 16.5999,-8.1602 25.4099,-10.9202 1.9199,-0.6099 3.9399,-0.8699 5.95,-0.99 l -0.03,-0.5 c 14.3901,-3.9199 29.4302,-3.6899 44.1902,-3.0498 2.7,0 5.4099,0.3198 8.03,1 5.52,0.75 10.8899,2.3298 16.29,3.6799 10.4497,3.2 20.4299,7.8599 29.7898,13.5 0.98,0.6799 9.77,6.8999 11.78,8.3201 3.5801,3.1199 7.5801,5.9099 10.4399,9.77 -0.2292,0.0107 5.79,5.8298 5.79,5.8298 3.71,3.96 7.49,8.1101 9.9102,13 1.2798,1.3801 2.3999,2.9001 3.3899,4.53 0.4399,0.8999 0.9001,1.8101 1.3801,2.73 17.0498,28.02 21.6599,63 13.8599,94.74 -1.1699,5.1802 -5.1599,15.71 -5.3599,15.8701 -1.7803,6.6299 -10.8372,21.7197 -10.8101,22.0798 -1.1899,2.6702 -3.25,4.8101 -5.01,7.1001 -2.3301,3.0601 -4.5801,6.22 -7.3601,8.8999 -0.72,0.78 -1.4399,1.5601 -2.1399,2.3501 -2.1301,2.8 -4.8701,5.0701 -7.4402,7.4399 -7.7197,7.6301 -17.2197,13.6802 -26.7898,18.9102 l -0.24,-0.03 c -1.1702,0.55 -2.29,1.1299 -3.4502,1.6699 -8.3499,4.1499 -17.27,6.92 -26.21,9.44 -1.3999,0.24 -2.8198,0.47 -4.1899,0.72 -2.45,0.4501 -4.8999,1.04 -7.3999,0.8901 -11.6802,1.78 -23.6301,1.7899 -35.3,-0.0801 -9.6001,-0.49 -18.74,-3.97 -27.8701,-6.72 -0.2,-0.3201 -0.6099,-0.9399 -0.8098,-1.26 l -1.1902,0.22 c -16.3999,-6.6099 -31.3799,-16.75 -43.6499,-29.48 -0.04,-0.04 -0.1301,-0.1299 -0.1702,-0.1699 -13.8098,-14.27 -24.2397,-31.8101 -30.0698,-50.8 -10.4999,-33.8301 -6.1698,-72.0701 12.13,-102.47 z m 272.51,588.6801 c -1.6699,0.04 -3.3398,0.08 -4.98,0.14 -12.5999,-74.27 -25.1599,-148.56 -37.73,-222.84 1.77,0.02 3.5601,0.04 5.3501,0.07 12.3201,74.23 24.8499,148.43 37.3599,222.63 z m -100.03,-0.01 c -2.0098,0.06 -4.0098,0.1 -6,0.13 21.52,-49.09 43.04,-98.1801 64.55,-147.28 0.97,-3.2 -0.6399,-6.6 -0.7898,-9.85 -8.5901,18.46 -16.3201,37.33 -24.6401,55.93 -14.6499,33.73 -29.5,67.38 -44.0901,101.14 -0.7859,0.008 -3.3213,-0.0134 -6.2368,-0.0284 l 73.1824,-166.7256 -1.728,-10.0479 -77.5884,176.7629 c -2.4204,0.009 -4.4209,0.041 -5.1091,0.1189 l -0.1379,10e-5 81.373,-185.3851 -1.7283,-10.0479 -85.7857,195.4384 -5.2412,0.005 c 29.8601,-67.97 59.6201,-135.99 89.45,-203.97 0.5303,-3.13 -0.6699,-6.4 -1.5098,-9.42 -30.9402,71.09 -62.2202,142.04 -93.0701,213.17 -1.96,0.11 -3.9202,0.18 -5.8701,0.27 -19.26,-44.49 -38.23,-89.1 -57.3999,-133.63 -1.4001,-3.17 -2.5601,-6.45 -4.28,-9.47 -8.1099,47.67 -16.28,95.33 -24.3398,143 -1.6902,0 -3.3701,0.01 -5.0303,0.04 8.3701,-50.1 16.6501,-100.22 25.0103,-150.32 0.5598,-3.87 -1.8801,-7.36 -3.05,-10.91 -9.2302,53.72 -18.4299,107.44 -27.5701,161.16 -1.5801,0.02 -3.1499,0.05 -4.72,0.09 9.3298,-55.67 18.71,-111.34 28.0701,-167.02 0.96,-3.96 -2.0103,-7.4 -3.0801,-11.03 -2.1299,9.13 -3.21,18.48 -4.9399,27.7 -8.4702,50.1 -16.9702,100.19 -25.4001,150.3 -1.7898,-0.02 -3.5598,-0.02 -5.3298,-0.01 10.5598,-62.05 20.9399,-124.13 31.4399,-186.19 0.1699,-3.58 -2.1001,-6.78 -3.53,-9.93 -11,65.39 -22.1199,130.76 -33.3,196.13 -1.6201,0.01 -3.23,0.03 -4.8398,0.08 11.2197,-68.1299 22.98,-136.17 34.3098,-204.27 -0.71,-3.2 -2.21,-6.3 -3.99,-9.04 -11.7998,71.09 -23.8501,142.14 -35.7998,213.21 -1.7603,0 -3.52,0 -5.2603,0.02 12.5601,-74.26 25.2002,-148.51 37.6702,-222.78 1.8098,-0.01 3.6299,-0.02 5.47,-0.03 31.01,72.1 61.73,144.32 92.6099,216.48 1.0601,-1.89 2.02,-3.82 2.9102,-5.78 -30.1401,-70.17 -59.99,-140.46 -90.1001,-210.64 1.8301,-0.04 3.6699,-0.06 5.52,-0.08 29.1699,67.9 58.1201,135.89 87.21,203.83 0.9702,-2.04 1.9102,-4.09 2.8601,-6.13 -28.0701,-65.87 -56.0801,-131.76 -84.03,-197.67 2,-0.01 4.02,0 6.04,-0.01 22.3101,52.28 44.3799,104.66 66.5898,156.99 4.6401,11.19 9.6101,22.24 14.05,33.51 1.4202,-1.95 2.3201,-4.2 3.3701,-6.35 -26.28,-61.41 -52.8601,-122.7 -79.0701,-184.14 h 5.8 c 25.1899,59.1299 50.7,118.11 75.77,177.29 0.8899,-2.42 3.46,-4.83 2.3298,-7.52 -24.25,-56.59 -48.54,-113.18 -72.77,-169.78 1.8701,0 3.7402,0.01 5.6201,0.03 23.3901,54.96 46.97,109.84 70.3999,164.78 24.1802,-54.92 48.3101,-109.87 72.48,-164.81 1.7102,0 3.4302,0 5.1702,-0.01 12.6699,74.27 25.1599,148.56 37.76,222.84 -1.79,-0.03 -3.5601,-0.04 -5.3201,-0.03 -7.75,-46.19 -15.6399,-92.35 -23.5,-138.51 -20.5402,46.01 -40.62,92.2399 -60.8402,138.4 z m 84.3594,67.8414 c -13.2317,0 -23.9583,-10.7265 -23.9583,-23.9583 0,-13.2319 10.7266,-23.9584 23.9583,-23.9584 13.2319,0 23.9585,10.7265 23.9585,23.9584 -10e-5,13.2318 -10.7266,23.9583 -23.9585,23.9583 z m 21.0307,-67.7415 c -12.6299,-74.25 -25.0801,-148.53 -37.77,-222.77 1.77,-0.02 3.55,-0.02 5.3398,-0.03 12.5303,74.28 25.1301,148.55 37.6902,222.82 -1.77,-0.02 -3.52,-0.02 -5.26,-0.02 z m 10.3001,0.04 c -12.3901,-74.28 -24.8901,-148.55 -37.4001,-222.8199 1.6401,0 3.28,0 4.9399,0.01 12.7202,74.25 25.1702,148.55 37.77,222.82 -1.7798,-0.0199 -3.5498,-0.0199 -5.3098,-0.01 z m 15.9299,0.01 c -1.76,-0.04 -3.51,-0.05 -5.24,-0.06 -12.5601,-74.25 -25.1599,-148.5 -37.6899,-222.76 1.73,-0.01 3.47,-0.01 5.22,-0.02 12.6,74.27 25.1799,148.5501 37.7099,222.84 z"
           id="path72" />
      </g>
    </g>
  </g>
</svg>
