<?xml version="1.0" encoding="UTF-8" standalone="no"?>
<!-- Created with Inkscape (http://www.inkscape.org/) -->

<svg
   xmlns:dc="http://purl.org/dc/elements/1.1/"
   xmlns:cc="http://creativecommons.org/ns#"
   xmlns:rdf="http://www.w3.org/1999/02/22-rdf-syntax-ns#"
   xmlns:svg="http://www.w3.org/2000/svg"
   xmlns="http://www.w3.org/2000/svg"
   xmlns:sodipodi="http://sodipodi.sourceforge.net/DTD/sodipodi-0.dtd"
   xmlns:inkscape="http://www.inkscape.org/namespaces/inkscape"
   width="68.489281mm"
   height="68.489281mm"
   viewBox="0 0 68.489281 68.489281"
   version="1.1"
   id="svg13993"
   inkscape:version="0.92.4 (5da689c313, 2019-01-14)"
   sodipodi:docname="delivery-man.svg">
  <defs
     id="defs13987" />
  <sodipodi:namedview
     id="base"
     pagecolor="#ffffff"
     bordercolor="#666666"
     borderopacity="1.0"
     inkscape:pageopacity="0.0"
     inkscape:pageshadow="2"
     inkscape:zoom="0.98994949"
     inkscape:cx="15.163356"
     inkscape:cy="-72.601947"
     inkscape:document-units="mm"
     inkscape:current-layer="layer1"
     showgrid="false"
     inkscape:window-width="1920"
     inkscape:window-height="1027"
     inkscape:window-x="1912"
     inkscape:window-y="22"
     inkscape:window-maximized="1" />
  <metadata
     id="metadata13990">
    <rdf:RDF>
      <cc:Work
         rdf:about="">
        <dc:format>image/svg+xml</dc:format>
        <dc:type
           rdf:resource="http://purl.org/dc/dcmitype/StillImage" />
        <dc:title />
      </cc:Work>
    </rdf:RDF>
  </metadata>
  <g
     inkscape:label="Layer 1"
     inkscape:groupmode="layer"
     id="layer1"
     transform="translate(-246.21369,-201.52321)">
    <g
       id="g142">
      <rect
         inkscape:export-ydpi="372.29999"
         inkscape:export-xdpi="372.29999"
         y="201.6555"
         x="246.34598"
         height="68.224701"
         width="68.224701"
         id="rect817-9-3-3-89-8-6-8-3-7-6-7"
         style="opacity:1;vector-effect:none;fill:#ffffff;fill-opacity:1;stroke:#000000;stroke-width:0.26458332;stroke-linecap:butt;stroke-linejoin:miter;stroke-miterlimit:4;stroke-dasharray:none;stroke-dashoffset:0;stroke-opacity:1" />
      <rect
         inkscape:export-ydpi="372.29999"
         inkscape:export-xdpi="372.29999"
         y="203.63988"
         x="248.33037"
         height="64.255951"
         width="64.255951"
         id="rect817-1-8-6-9-0-3-8-5-4-0"
         style="opacity:1;vector-effect:none;fill:#616161;fill-opacity:1;stroke:none;stroke-width:9.26041698;stroke-linecap:butt;stroke-linejoin:miter;stroke-miterlimit:4;stroke-dasharray:none;stroke-dashoffset:0;stroke-opacity:1" />
      <text
         inkscape:export-ydpi="372.29999"
         inkscape:export-xdpi="372.29999"
         id="text837-4-8-4-6-4-1-8-3-0-5"
         y="211.31105"
         x="253.91983"
         style="font-style:normal;font-weight:normal;font-size:4.57989931px;line-height:1.25;font-family:sans-serif;letter-spacing:0px;word-spacing:0px;fill:#ffffff;fill-opacity:1;stroke:#ffffff;stroke-width:0.414;stroke-miterlimit:4;stroke-dasharray:none;stroke-opacity:1"
         xml:space="preserve"><tspan
           style="font-style:normal;font-variant:normal;font-weight:normal;font-stretch:normal;font-size:4.57989931px;font-family:Comfortaa;-inkscape-font-specification:'Comfortaa, Normal';font-variant-ligatures:normal;font-variant-caps:normal;font-variant-numeric:normal;font-feature-settings:normal;text-align:start;writing-mode:lr-tb;text-anchor:start;fill:#ffffff;fill-opacity:1;stroke:#ffffff;stroke-width:0.414;stroke-miterlimit:4;stroke-dasharray:none;stroke-opacity:1"
           y="211.31105"
           x="253.91983"
           id="tspan835-3-3-3-4-8-8-3-8-7-0"
           sodipodi:role="line">Achievement unlocked</tspan></text>
      <text
         inkscape:export-ydpi="372.29999"
         inkscape:export-xdpi="372.29999"
         id="text837-3-3-1-3-3-8-9-1-8-3-1"
         y="262.98041"
         x="259.27563"
         style="font-style:normal;font-variant:normal;font-weight:normal;font-stretch:normal;font-size:4.57976103px;line-height:1.25;font-family:sans-serif;-inkscape-font-specification:'sans-serif, Normal';font-variant-ligatures:normal;font-variant-caps:normal;font-variant-numeric:normal;font-feature-settings:normal;text-align:start;letter-spacing:0px;word-spacing:0px;writing-mode:lr-tb;text-anchor:start;fill:#ffffff;fill-opacity:1;stroke:#ffffff;stroke-width:0.414;stroke-miterlimit:4;stroke-dasharray:none;stroke-opacity:1"
         xml:space="preserve"><tspan
           y="262.98041"
           x="259.27563"
           id="tspan3776"
           sodipodi:role="line">The delivery man!</tspan></text>
      <g
         transform="matrix(0.08519176,0,0,0.08519176,258.84893,214.22177)"
         id="g3907">
        <path
           inkscape:connector-curvature="0"
           style="fill:#ffe17d"
           d="M 249.03,10.865 28.063,117.537 c -2.77,1.337 -4.531,4.143 -4.531,7.219 v 262.485 c 0,3.076 1.761,5.881 4.531,7.219 L 249.03,501.135 c 4.404,2.126 9.536,2.126 13.94,0 L 483.937,394.461 c 2.77,-1.337 4.531,-4.143 4.531,-7.219 V 124.757 c 0,-3.076 -1.761,-5.881 -4.531,-7.219 L 262.97,10.865 c -4.404,-2.126 -9.536,-2.126 -13.94,0 z"
           id="path3831" />
        <path
           inkscape:connector-curvature="0"
           style="fill:#ffc350"
           d="m 24.865,120.368 c -0.843,1.283 -1.333,2.793 -1.333,4.388 v 262.485 c 0,3.077 1.761,5.881 4.531,7.219 L 249.03,501.135 c 2.202,1.063 4.586,1.595 6.97,1.595 V 231.951 Z"
           id="path3833" />
        <path
           inkscape:connector-curvature="0"
           style="fill:#ffd164"
           d="m 487.135,120.368 c 0.843,1.283 1.333,2.793 1.333,4.388 v 262.485 c 0,3.077 -1.761,5.881 -4.531,7.219 L 262.97,501.135 c -2.202,1.063 -4.586,1.595 -6.97,1.595 V 231.951 Z"
           id="path3835" />
        <polygon
           style="fill:#ff8087"
           points="408.807,158.052 176.86,46 115.718,75.636 348.185,187.863 "
           id="polygon3837" />
        <path
           inkscape:connector-curvature="0"
           style="fill:#e6646e"
           d="m 348.185,187.863 v 86.94 c 0,2.955 3.089,4.894 5.751,3.609 l 50.34,-24.302 c 2.771,-1.337 4.531,-4.143 4.531,-7.219 v -88.839 z"
           id="path3839" />
        <path
           inkscape:connector-curvature="0"
           d="M 491.729,112.97 259.261,0.746 c -2.061,-0.994 -4.461,-0.994 -6.521,0 L 20.271,112.97 c -2.592,1.251 -4.239,3.876 -4.239,6.754 v 272.549 c 0,2.878 1.647,5.503 4.239,6.754 l 232.468,112.226 c 1.03,0.497 2.146,0.746 3.261,0.746 1.115,0 2.23,-0.249 3.261,-0.746 L 491.729,399.027 c 2.592,-1.251 4.239,-3.876 4.239,-6.754 V 119.725 c 0,-2.879 -1.648,-5.503 -4.239,-6.755 z M 256,15.828 471.217,119.725 408.83,149.843 c -0.395,-0.301 -0.812,-0.579 -1.27,-0.8 L 193.805,45.853 Z M 176.867,54.333 391.771,158.079 347.756,179.328 132.941,75.623 Z m 178.819,137.823 41.113,-19.848 v 78.546 l -41.113,19.848 z M 263.5,492.551 V 236.658 l 51.873,-25.042 c 3.73,-1.801 5.294,-6.284 3.493,-10.015 -1.801,-3.729 -6.284,-5.295 -10.015,-3.493 L 256,223.623 235.204,213.583 c -3.731,-1.803 -8.214,-0.237 -10.015,3.493 -1.801,3.73 -0.237,8.214 3.493,10.015 l 19.818,9.567 V 492.55 L 31.032,387.566 V 131.673 l 165.6,79.945 c 1.051,0.508 2.162,0.748 3.255,0.748 2.788,0 5.466,-1.562 6.759,-4.241 1.801,-3.73 0.237,-8.214 -3.493,-10.015 L 40.783,119.724 115.288,83.756 340.582,192.52 c 0.033,0.046 0.07,0.087 0.104,0.132 v 89.999 c 0,2.581 1.327,4.98 3.513,6.353 1.214,0.762 2.599,1.147 3.988,1.147 1.112,0 2.227,-0.247 3.26,-0.746 l 56.113,-27.089 c 2.592,-1.251 4.239,-3.875 4.239,-6.754 v -90.495 l 69.169,-33.392 v 255.893 z"
           id="path3841" />
        <path
           inkscape:connector-curvature="0"
           d="M 92.926,358.48 58.811,342.011 c -3.732,-1.803 -8.214,-0.237 -10.015,3.493 -1.801,3.73 -0.237,8.214 3.493,10.015 l 34.115,16.469 c 1.051,0.508 2.162,0.748 3.255,0.748 2.788,0 5.466,-1.562 6.759,-4.241 1.802,-3.731 0.238,-8.214 -3.492,-10.015 z"
           id="path3843" />
        <path
           inkscape:connector-curvature="0"
           d="M 124.323,338.042 58.858,306.438 c -3.731,-1.801 -8.214,-0.237 -10.015,3.494 -1.8,3.73 -0.236,8.214 3.494,10.015 l 65.465,31.604 c 1.051,0.507 2.162,0.748 3.255,0.748 2.788,0 5.466,-1.562 6.759,-4.241 1.801,-3.731 0.237,-8.216 -3.493,-10.016 z"
           id="path3845" />
        <g
           id="g3847" />
        <g
           id="g3849" />
        <g
           id="g3851" />
        <g
           id="g3853" />
        <g
           id="g3855" />
        <g
           id="g3857" />
        <g
           id="g3859" />
        <g
           id="g3861" />
        <g
           id="g3863" />
        <g
           id="g3865" />
        <g
           id="g3867" />
        <g
           id="g3869" />
        <g
           id="g3871" />
        <g
           id="g3873" />
        <g
           id="g3875" />
      </g>
    </g>
  </g>
</svg>
