<?xml version="1.0" encoding="UTF-8" standalone="no"?>
<!-- Created with Inkscape (http://www.inkscape.org/) -->

<svg
   xmlns:dc="http://purl.org/dc/elements/1.1/"
   xmlns:cc="http://creativecommons.org/ns#"
   xmlns:rdf="http://www.w3.org/1999/02/22-rdf-syntax-ns#"
   xmlns:svg="http://www.w3.org/2000/svg"
   xmlns="http://www.w3.org/2000/svg"
   xmlns:sodipodi="http://sodipodi.sourceforge.net/DTD/sodipodi-0.dtd"
   xmlns:inkscape="http://www.inkscape.org/namespaces/inkscape"
   width="68.489281mm"
   height="68.489281mm"
   viewBox="0 0 68.489281 68.489281"
   version="1.1"
   id="svg8"
   inkscape:version="0.92.4 (5da689c313, 2019-01-14)"
   sodipodi:docname="survived-the-first-week.svg">
  <defs
     id="defs2" />
  <sodipodi:namedview
     id="base"
     pagecolor="#ffffff"
     bordercolor="#666666"
     borderopacity="1.0"
     inkscape:pageopacity="0.0"
     inkscape:pageshadow="2"
     inkscape:zoom="0.35"
     inkscape:cx="-394.85715"
     inkscape:cy="89.428567"
     inkscape:document-units="mm"
     inkscape:current-layer="layer1"
     showgrid="false"
     inkscape:window-width="1874"
     inkscape:window-height="1016"
     inkscape:window-x="46"
     inkscape:window-y="27"
     inkscape:window-maximized="1" />
  <metadata
     id="metadata5">
    <rdf:RDF>
      <cc:Work
         rdf:about="">
        <dc:format>image/svg+xml</dc:format>
        <dc:type
           rdf:resource="http://purl.org/dc/dcmitype/StillImage" />
        <dc:title></dc:title>
      </cc:Work>
    </rdf:RDF>
  </metadata>
  <g
     inkscape:label="Layer 1"
     inkscape:groupmode="layer"
     id="layer1"
     transform="translate(-73.100598,-107.02917)">
    <g
       transform="translate(58.964293,82.587795)"
       id="g925"
       inkscape:export-xdpi="372.29999"
       inkscape:export-ydpi="372.29999">
      <rect
         y="24.573664"
         x="14.268597"
         height="68.224701"
         width="68.224701"
         id="rect817-9"
         style="opacity:1;vector-effect:none;fill:#ffffff;fill-opacity:1;stroke:#000000;stroke-width:0.26458332;stroke-linecap:butt;stroke-linejoin:miter;stroke-miterlimit:4;stroke-dasharray:none;stroke-dashoffset:0;stroke-opacity:1" />
      <rect
         y="26.558039"
         x="16.252972"
         height="64.255951"
         width="64.255951"
         id="rect817"
         style="opacity:1;vector-effect:none;fill:#616161;fill-opacity:1;stroke:none;stroke-width:9.26041698;stroke-linecap:butt;stroke-linejoin:miter;stroke-miterlimit:4;stroke-dasharray:none;stroke-dashoffset:0;stroke-opacity:1" />
      <g
         transform="matrix(0.08569705,0,0,0.08569705,30.076658,52.245164)"
         id="g3814">
        <rect
           x="-66.467003"
           y="-154.24001"
           width="560.12"
           height="449"
           style="fill:#d00000"
           id="rect3812" />
        <path
           d="m 202.16,-89.25 v 3.4062 l 8.5625,14.469 v 5.5625 l -13.75,-8.9688 h -2.5938 v 23.562 h 2.5938 l 13.75,-7.9062 v 13.438 c -9.4878,1.3894 -16.781,9.5636 -16.781,19.438 0,10.848 8.7766,19.656 19.625,19.656 10.8484,0 19.656,-8.8078 19.656,-19.656 0,-9.557 -6.8304,-17.493 -15.875,-19.25 v -12.688 l 13.688,7.875 h 2.4375 v -22.312 h -2.4375 l -13.688,8.9062 v -7.6562 l 8.5625,-14.469 v -3.4062 h -23.75 z m 8.5625,48.469 v 11.719 c -3.7431,-0.65317 -7.1578,-2.2504 -10.031,-4.5 2.1016,-3.6911 5.7275,-6.3829 10.031,-7.2188 z m 6.625,0.21875 c 4.3138,1.1397 7.858,4.1699 9.6875,8.1562 -2.8405,1.8546 -6.1503,3.0516 -9.6875,3.4688 z m -40.562,18.281 c -4.9311,0 -8.9375,4.0064 -8.9375,8.9375 0,4.9311 4.0064,8.9062 8.9375,8.9062 4.9311,0 8.9375,-3.9751 8.9375,-8.9062 0,-4.9311 -4.0064,-8.9375 -8.9375,-8.9375 z m 73.594,0 c -4.9311,0 -8.9375,4.0064 -8.9375,8.9375 0,4.9311 4.0064,8.9062 8.9375,8.9062 4.9311,0 8.9375,-3.9751 8.9375,-8.9062 0,-4.9311 -4.0064,-8.9375 -8.9375,-8.9375 z m -40.37,2.093 c 5.1895,0 9.9577,1.7531 13.781,4.6875 -2.6581,2.5268 -6.2618,4.0625 -10.219,4.0625 -5.277,0 -9.9051,-2.7532 -12.531,-6.9062 2.7483,-1.1831 5.788,-1.8438 8.9688,-1.8438 z m -56.781,3.9688 c -4.54,0 -8.22,3.682 -8.22,8.219 0,4.5366 3.6821,8.2188 8.2188,8.2188 4.5366,0 8.2188,-3.6821 8.2188,-8.2188 0,-4.5366 -3.6821,-8.2188 -8.2188,-8.2188 z m 120.72,0 c -4.5366,0 -8.2188,3.6821 -8.2188,8.2188 0,4.5366 3.6821,8.2188 8.2188,8.2188 4.5366,0 8.2188,-3.6821 8.2188,-8.2188 0,-4.5366 -3.6821,-8.2188 -8.2188,-8.2188 z m -142.16,10.188 c -4.0435,0 -7.3125,3.269 -7.3125,7.3125 0,4.0435 3.269,7.3438 7.3125,7.3438 4.0435,0 7.3125,-3.3002 7.3125,-7.3438 0,-4.0435 -3.269,-7.3125 -7.3125,-7.3125 z m 163.59,0 c -4.0435,0 -7.3125,3.269 -7.3125,7.3125 0,4.0435 3.269,7.3438 7.3125,7.3438 4.0435,0 7.3125,-3.3002 7.3125,-7.3438 0,-4.0435 -3.269,-7.3125 -7.3125,-7.3125 z m -107,2.875 -3.3125,0.5 c -28.038,4.2214 -54.342,15.253 -75.25,26.875 -20.908,11.622 -36.244,23.623 -43,30.906 l 6.375,5.9062 c 5.4374,-5.8617 20.638,-17.97 40.875,-29.219 19.385,-10.775 43.572,-20.888 68.969,-25.25 3.7182,8.329 7.244,16.016 10.906,34.844 h 8.5312 c -4.2316,-21.755 -8.6818,-32.154 -12.781,-41.5 l -1.3125,-3.0625 z m 50.406,0 -1.3125,3.0625 c -4.0994,9.3458 -8.5496,19.745 -12.781,41.5 h 8.5312 c 3.66,-18.827 7.19,-26.514 10.9,-34.844 25.396,4.3615 49.584,14.475 68.969,25.25 20.237,11.249 35.438,23.357 40.875,29.219 l 6.375,-5.9062 c -6.7559,-7.2831 -22.092,-19.284 -43,-30.906 -20.908,-11.622 -47.212,-22.654 -75.25,-26.875 l -3.3125,-0.5 z m -25.22,0.5935 c -4.1421,0 -7.5,3.3579 -7.5,7.5 0,4.1421 3.3579,7.5 7.5,7.5 4.1421,0 7.5,-3.3579 7.5,-7.5 0,-4.1421 -3.3579,-7.5 -7.5,-7.5 z m -100.72,6 c -3.7476,0 -6.7812,3.0336 -6.7812,6.7812 0,3.7476 3.0336,6.7812 6.7812,6.7812 3.7476,0 6.8125,-3.0336 6.8125,-6.7812 0,-3.7476 -3.0648,-6.7812 -6.8125,-6.7812 z m 201.47,0 c -3.7476,0 -6.8125,3.0336 -6.8125,6.7812 0,3.7476 3.0648,6.7812 6.8125,6.7812 3.7476,0 6.7812,-3.0336 6.7812,-6.7812 0,-3.7476 -3.0336,-6.7812 -6.7812,-6.7812 z m -220.75,12.125 c -3.5504,0 -6.4062,2.8871 -6.4062,6.4375 0,3.5504 2.8558,6.4375 6.4062,6.4375 3.5504,0 6.4375,-2.8871 6.4375,-6.4375 0,-3.5504 -2.8871,-6.4375 -6.4375,-6.4375 z m 240.03,0 c -3.5504,0 -6.4375,2.8871 -6.4375,6.4375 0,3.5504 2.8871,6.4375 6.4375,6.4375 3.5504,0 6.4062,-2.8871 6.4062,-6.4375 0,-3.5504 -2.8558,-6.4375 -6.4062,-6.4375 z m -120.03,1 c -3.5504,0 -6.4062,2.8871 -6.4062,6.4375 0,3.5504 2.8558,6.4062 6.4062,6.4062 3.5504,0 6.4375,-2.8558 6.4375,-6.4062 0,-3.5504 -2.8871,-6.4375 -6.4375,-6.4375 z m -137.12,11.875 c -3.1559,0 -5.7188,2.5628 -5.7188,5.7188 0,3.1559 2.5628,5.7188 5.7188,5.7188 3.1559,0 5.7188,-2.5628 5.7188,-5.7188 0,-3.1559 -2.5628,-5.7188 -5.7188,-5.7188 z m 274.28,0 c -3.1559,0 -5.7188,2.5628 -5.7188,5.7188 0,3.1559 2.5628,5.7188 5.7188,5.7188 3.1559,0 5.7188,-2.5628 5.7188,-5.7188 0,-3.1559 -2.5628,-5.7188 -5.7188,-5.7188 z m -230,1.4375 c -8.2614,12.82 -7.9197,29.321 -2.875,47.844 -38.372,-16.331 -51.581,32.884 -22.5,47.844 -2.2223,-11.944 -0.09328,-24.688 12.875,-26.062 6.9358,-0.73515 15.083,1.2267 16.062,13.938 0.68919,8.9417 -6.889,30.291 -30.719,30 -14.891,-0.18488 -30.791,-5.7619 -37.844,-29.625 -2.629,-8.8952 -2.584,-8.4612 6.1562,-4.8438 3.4207,1.4158 7.7547,4.3537 14.906,10.531 -0.5061,-9.9924 -5.339,-35.35 -10.344,-42.844 -6.683,4.7247 -7.3964,10.293 -20,13.906 4.4783,-8.6677 8.6326,-17.513 15,-27.125 -13.266,0.98971 -21.246,4.1704 -30,6.0625 2.0528,8.5134 4.138,16.918 7.125,23.562 -6.568,12.733 -1.0718,18.457 5.7188,24.656 2.7653,2.5245 15.251,39.258 8.9375,51.781 -3.3285,6.6026 -1.3824,13.663 3.2188,16.781 5.1474,3.4888 9.7717,7.9714 13.969,12.594 5.3747,5.9192 4.1245,6.5307 10.719,2.9062 23.214,-12.759 73.828,-21.531 132.47,-21.531 58.641,0 109.25,8.7721 132.47,21.531 6.5943,3.6244 5.3441,3.013 10.719,-2.9062 4.1971,-4.6224 8.8214,-9.105 13.969,-12.594 4.6011,-3.1186 6.5473,-10.179 3.2188,-16.781 -6.3134,-12.523 6.1722,-49.257 8.9375,-51.781 6.7906,-6.1993 12.287,-11.923 5.7188,-24.656 2.987,-6.645 5.0722,-15.049 7.125,-23.562 -8.7536,-1.8921 -16.734,-5.0728 -30,-6.0625 6.3674,9.6123 10.522,18.457 15,27.125 -12.604,-3.6134 -13.317,-9.1816 -20,-13.906 -5.0048,7.494 -9.8376,32.851 -10.344,42.844 7.1515,-6.1775 11.486,-9.1155 14.906,-10.531 8.7402,-3.6175 8.7852,-4.0515 6.1562,4.8438 -7.0527,23.863 -22.953,29.44 -37.844,29.625 -23.83,0.29143 -31.408,-21.058 -30.719,-30 0.97969,-12.711 9.1268,-14.673 16.062,-13.938 12.968,1.3746 15.097,14.118 12.875,26.062 29.081,-14.96 15.872,-64.175 -22.5,-47.844 5.0447,-18.523 5.3864,-35.024 -2.875,-47.844 -9.9879,10.038 -21.693,18.539 -17.844,45.688 -7.2252,-5.1822 -13.514,-10.399 -20,-8.9062 -8.7446,2.0131 -16.702,5.5638 -18.219,19.281 -1.0588,9.5783 4.4498,18.712 11.781,24.625 0.97739,-9.3992 2.7156,-17.593 13.219,-17.844 12.06,-0.28828 14.3,9.6723 13.938,17.5 -0.5018,10.839 -15.165,23.558 -33.938,22.156 -18.816,-1.4048 -35.124,-17.443 -34.844,-36.875 5.9567,1.4291 13.451,7.6211 16.906,10.594 0.66534,0.57252 2.9894,0.5297 3.6562,0.5625 v -40.625 c -0.8738,0.01942 -2.6668,-0.23033 -3.7188,0.40625 -5.3972,3.2662 -11.811,13.635 -15.562,12.719 2.9142,-11.91 10.874,-26.232 11.062,-31.094 h -38.625 c 0.18826,4.8616 8.1483,19.184 11.062,31.094 -3.7511,0.91664 -10.165,-9.4525 -15.562,-12.719 -1.0519,-0.63658 -2.845,-0.38683 -3.7188,-0.40625 v 40.625 c 0.66683,-0.0328 2.9909,0.01 3.6562,-0.5625 3.4548,-2.9726 10.95,-9.1646 16.906,-10.594 0.28066,19.432 -16.027,35.47 -34.844,36.875 -18.772,1.4015 -33.436,-11.317 -33.938,-22.156 -0.36239,-7.8277 1.8771,-17.788 13.938,-17.5 10.503,0.25105 12.241,8.4446 13.219,17.844 7.3315,-5.9126 12.84,-15.047 11.781,-24.625 -1.5164,-13.717 -9.4742,-17.268 -18.219,-19.281 -6.4861,-1.4932 -12.775,3.724 -20,8.9062 3.8494,-27.148 -7.8559,-35.65 -17.844,-45.688 z m 92.844,3.6562 c -2.5642,0 -4.625,2.0608 -4.625,4.625 0,2.5642 2.0608,4.6562 4.625,4.6562 2.5642,0 4.6562,-2.0921 4.6562,-4.6562 0,-2.5642 -2.0921,-4.625 -4.6562,-4.625 z m -151.06,8.47 c -2.5642,0 -4.6562,2.0921 -4.6562,4.6562 0,2.5642 2.0921,4.625 4.6562,4.625 2.5642,0 4.6562,-2.0608 4.6562,-4.625 0,-2.564 -2.092,-4.656 -4.656,-4.656 z m 302.16,0 c -2.57,0 -4.66,2.092 -4.66,4.656 0,2.5642 2.0921,4.625 4.6562,4.625 2.5642,0 4.6562,-2.0608 4.6562,-4.625 0,-2.564 -2.09,-4.656 -4.65,-4.656 z m -151.1,40.438 c 2.1697,0 3.9375,1.7678 3.9375,3.9375 0,2.1697 -1.7678,3.9375 -3.9375,3.9375 -2.1697,0 -3.9062,-1.7678 -3.9062,-3.9375 0,-2.1697 1.7366,-3.9375 3.9062,-3.9375 z m -171.28,15.374 c 1.5839,-0.03257 3.495,2.5503 4.4062,6.0312 0.97204,3.713 0.41727,7.056 -1.2188,7.4688 -1.636,0.41275 -3.7467,-2.2557 -4.7188,-5.9688 -0.97204,-3.713 -0.41727,-7.056 1.2188,-7.4688 0.10225,-0.0258 0.20691,-0.06033 0.3125,-0.0625 z m 342.62,0 c 0.10559,0.0022 0.21025,0.0367 0.3125,0.0625 1.636,0.41275 2.1908,3.7557 1.2188,7.4688 -0.97204,3.713 -3.0827,6.3815 -4.7188,5.9688 -1.636,-0.41275 -2.1908,-3.7557 -1.2188,-7.4688 0.91129,-3.481 2.8224,-6.0638 4.4062,-6.0312 z m -171.34,38.75 9.2188,14.719 -9.2188,14.75 -9.2188,-14.75 z m -38.219,5.0938 c 2.5642,0 4.6562,2.0608 4.6562,4.625 0,2.5642 -2.0921,4.6562 -4.6562,4.6562 -2.5642,0 -4.625,-2.0921 -4.625,-4.6562 0,-2.5642 2.0608,-4.625 4.625,-4.625 z m 76.5,0 c 2.5642,0 4.625,2.0608 4.625,4.625 0,2.5642 -2.0608,4.6562 -4.625,4.6562 -2.5642,0 -4.6562,-2.0921 -4.6562,-4.6562 0,-2.5642 2.0921,-4.625 4.6562,-4.625 z m -111.78,0.97 c 9.4977,0.18674 17.254,5.2072 18.156,12.312 1.0315,8.1204 -7.2937,15.877 -18.594,17.312 -11.3,1.4353 -21.281,-4.0046 -22.312,-12.125 -1.0315,-8.1204 7.2937,-15.846 18.594,-17.281 1.4125,-0.17942 2.7994,-0.24543 4.1562,-0.21875 z m 147.06,0 c 1.3568,-0.0267 2.7437,0.0393 4.1562,0.21875 11.3,1.4353 19.625,9.1608 18.594,17.281 -1.0315,8.1204 -11.012,13.56 -22.312,12.125 -11.3,-1.4353 -19.625,-9.1921 -18.594,-17.312 0.90253,-7.1054 8.6586,-12.126 18.156,-12.312 z m -193.37,13.13 c 2.5642,0 4.6562,2.0921 4.6562,4.6562 0,2.5642 -2.0921,4.625 -4.6562,4.625 -2.5642,0 -4.6562,-2.0608 -4.6562,-4.625 0,-2.5642 2.0921,-4.6562 4.6562,-4.6562 z m 239.69,0 c 2.5642,0 4.6562,2.0921 4.6562,4.6562 0,2.5642 -2.0921,4.625 -4.6562,4.625 -2.5642,0 -4.6562,-2.0608 -4.6562,-4.625 0,-2.5642 2.0921,-4.6562 4.6562,-4.6562 z m -155.59,5.1875 c 2.5642,0 4.6562,2.0608 4.6562,4.625 0,2.5642 -2.0921,4.6562 -4.6562,4.6562 -2.5642,0 -4.625,-2.0921 -4.625,-4.6562 0,-2.5642 2.0608,-4.625 4.625,-4.625 z m 71.5,0 c 2.5642,0 4.625,2.0608 4.625,4.625 0,2.5642 -2.0608,4.6562 -4.625,4.6562 -2.5642,0 -4.6562,-2.0921 -4.6562,-4.6562 0,-2.5642 2.0921,-4.625 4.6562,-4.625 z m -187.12,4.75 9.9062,8.0625 -2.875,12.469 -9.9375,-8.0938 2.9062,-12.438 z m 302.75,0 2.9062,12.438 -9.9375,8.0938 -2.875,-12.469 9.9062,-8.0625 z m -267.82,8.81 c 2.5642,0 4.625,2.0921 4.625,4.6562 0,2.5642 -2.0608,4.625 -4.625,4.625 -2.5642,0 -4.6562,-2.0608 -4.6562,-4.625 0,-2.5642 2.0921,-4.6562 4.6562,-4.6562 z m 232.88,0 c 2.5642,0 4.6562,2.0921 4.6562,4.6562 0,2.5642 -2.0921,4.625 -4.6562,4.625 -2.5642,0 -4.625,-2.0608 -4.625,-4.625 0,-2.5642 2.0608,-4.6562 4.625,-4.6562 z m -116.44,11.188 c -72.389,0 -131.06,14.81 -131.06,23.219 0,7.6953 58.674,20.875 131.06,20.875 72.389,0 131.06,-13.18 131.06,-20.875 0,-8.4089 -58.674,-23.219 -131.06,-23.219 z"
           style="fill:#ffffff"
           id="path2902"
           inkscape:connector-curvature="0" />
      </g>
      <text
         id="text837"
         y="34.229172"
         x="21.927414"
         style="font-style:normal;font-weight:normal;font-size:4.57989931px;line-height:1.25;font-family:sans-serif;letter-spacing:0px;word-spacing:0px;fill:#ffffff;fill-opacity:1;stroke:#ffffff;stroke-width:0.414;stroke-miterlimit:4;stroke-dasharray:none;stroke-opacity:1"
         xml:space="preserve"><tspan
           style="font-style:normal;font-variant:normal;font-weight:normal;font-stretch:normal;font-size:4.57989931px;font-family:Comfortaa;-inkscape-font-specification:'Comfortaa, Normal';font-variant-ligatures:normal;font-variant-caps:normal;font-variant-numeric:normal;font-feature-settings:normal;text-align:start;writing-mode:lr-tb;text-anchor:start;fill:#ffffff;fill-opacity:1;stroke:#ffffff;stroke-width:0.414;stroke-miterlimit:4;stroke-dasharray:none;stroke-opacity:1"
           y="34.229172"
           x="21.927414"
           id="tspan835"
           sodipodi:role="line">Achievement unlocked</tspan></text>
      <text
         id="text837-3"
         y="85.898521"
         x="21.157667"
         style="font-style:normal;font-weight:normal;font-size:4.57989931px;line-height:1.25;font-family:sans-serif;letter-spacing:0px;word-spacing:0px;fill:#ffffff;fill-opacity:1;stroke:#ffffff;stroke-width:0.414;stroke-miterlimit:4;stroke-dasharray:none;stroke-opacity:1"
         xml:space="preserve"><tspan
           style="font-style:normal;font-variant:normal;font-weight:normal;font-stretch:normal;font-size:4.57989931px;font-family:Comfortaa;-inkscape-font-specification:'Comfortaa, Normal';font-variant-ligatures:normal;font-variant-caps:normal;font-variant-numeric:normal;font-feature-settings:normal;text-align:start;writing-mode:lr-tb;text-anchor:start;fill:#ffffff;fill-opacity:1;stroke:#ffffff;stroke-width:0.414;stroke-miterlimit:4;stroke-dasharray:none;stroke-opacity:1"
           y="85.898521"
           x="21.157667"
           id="tspan835-0"
           sodipodi:role="line">Survived the first Week!</tspan></text>
    </g>
  </g>
</svg>
