<?xml version="1.0" encoding="UTF-8" standalone="no"?>
<!-- Created with Inkscape (http://www.inkscape.org/) -->

<svg
   xmlns:dc="http://purl.org/dc/elements/1.1/"
   xmlns:cc="http://creativecommons.org/ns#"
   xmlns:rdf="http://www.w3.org/1999/02/22-rdf-syntax-ns#"
   xmlns:svg="http://www.w3.org/2000/svg"
   xmlns="http://www.w3.org/2000/svg"
   xmlns:xlink="http://www.w3.org/1999/xlink"
   xmlns:sodipodi="http://sodipodi.sourceforge.net/DTD/sodipodi-0.dtd"
   xmlns:inkscape="http://www.inkscape.org/namespaces/inkscape"
   width="68.489281mm"
   height="68.489281mm"
   viewBox="0 0 68.489281 68.489281"
   version="1.1"
   id="svg7900"
   inkscape:version="0.92.4 (5da689c313, 2019-01-14)"
   sodipodi:docname="the-force-is-with-me.svg">
  <defs
     id="defs7894">
    <linearGradient
       inkscape:collect="always"
       xlink:href="#linear-gradient"
       id="linearGradient1064"
       gradientUnits="userSpaceOnUse"
       gradientTransform="rotate(-45,5375.084,175.25732)"
       x1="1574.36"
       y1="-3275.77"
       x2="1691.5699"
       y2="-3275.77" />
    <linearGradient
       gradientUnits="userSpaceOnUse"
       gradientTransform="rotate(-45,5375.084,175.25732)"
       y2="-3275.77"
       x2="1691.5699"
       y1="-3275.77"
       x1="1574.36"
       id="linear-gradient">
      <stop
         id="stop923"
         stop-color="#623393"
         offset="0" />
      <stop
         id="stop925"
         stop-color="#432b7d"
         offset="0.6" />
      <stop
         id="stop927"
         stop-color="#2c256c"
         offset="1" />
    </linearGradient>
    <linearGradient
       xlink:href="#linear-gradient"
       y2="-3259.8501"
       x2="1691.5699"
       y1="-3259.8501"
       x1="1574.36"
       id="linear-gradient-2" />
    <linearGradient
       inkscape:collect="always"
       xlink:href="#linear-gradient-3"
       id="linearGradient1066"
       gradientUnits="userSpaceOnUse"
       gradientTransform="rotate(-45,5375.084,175.25732)"
       x1="1574.36"
       y1="-3282.1101"
       x2="1691.5699"
       y2="-3282.1101" />
    <linearGradient
       gradientUnits="userSpaceOnUse"
       gradientTransform="rotate(-45,5375.084,175.25732)"
       y2="-3282.1101"
       x2="1691.5699"
       y1="-3282.1101"
       x1="1574.36"
       id="linear-gradient-3">
      <stop
         id="stop931"
         stop-color="#754fa0"
         offset="0" />
      <stop
         id="stop933"
         stop-color="#6d4b9b"
         offset="0.21" />
      <stop
         id="stop935"
         stop-color="#583e8b"
         offset="0.52" />
      <stop
         id="stop937"
         stop-color="#362b73"
         offset="0.9" />
      <stop
         id="stop939"
         stop-color="#2c256c"
         offset="1" />
    </linearGradient>
    <linearGradient
       xlink:href="#linear-gradient-3"
       y2="-3226.4099"
       x2="1691.5699"
       y1="-3226.4099"
       x1="1574.36"
       id="linear-gradient-4" />
    <linearGradient
       xlink:href="#linear-gradient"
       y2="-3254.04"
       x2="1691.5699"
       y1="-3254.04"
       x1="1574.36"
       id="linear-gradient-5" />
    <linearGradient
       xlink:href="#linear-gradient-3"
       y2="-3254.04"
       x2="1704.01"
       y1="-3254.04"
       x1="1563.24"
       id="linear-gradient-6" />
    <linearGradient
       xlink:href="#linear-gradient"
       y2="-3239.6399"
       x2="1704.01"
       y1="-3239.6399"
       x1="1563.24"
       id="linear-gradient-7" />
    <linearGradient
       xlink:href="#linear-gradient"
       y2="-3247.6899"
       x2="1704.01"
       y1="-3247.6899"
       x1="1563.24"
       id="linear-gradient-8" />
    <linearGradient
       xlink:href="#linear-gradient"
       y2="-3268.04"
       x2="1704.01"
       y1="-3268.04"
       x1="1563.24"
       id="linear-gradient-9" />
  </defs>
  <sodipodi:namedview
     id="base"
     pagecolor="#ffffff"
     bordercolor="#666666"
     borderopacity="1.0"
     inkscape:pageopacity="0.0"
     inkscape:pageshadow="2"
     inkscape:zoom="0.35"
     inkscape:cx="-954.85713"
     inkscape:cy="12.285711"
     inkscape:document-units="mm"
     inkscape:current-layer="layer1"
     showgrid="false"
     inkscape:window-width="1874"
     inkscape:window-height="1016"
     inkscape:window-x="46"
     inkscape:window-y="27"
     inkscape:window-maximized="1" />
  <metadata
     id="metadata7897">
    <rdf:RDF>
      <cc:Work
         rdf:about="">
        <dc:format>image/svg+xml</dc:format>
        <dc:type
           rdf:resource="http://purl.org/dc/dcmitype/StillImage" />
        <dc:title></dc:title>
      </cc:Work>
    </rdf:RDF>
  </metadata>
  <g
     inkscape:label="Layer 1"
     inkscape:groupmode="layer"
     id="layer1"
     transform="translate(-219.75535,-83.594643)">
    <g
       transform="translate(107.72321,-92.22619)"
       id="g971"
       inkscape:export-filename="/home/mario/Pictures/achiement-coredns.png"
       inkscape:export-xdpi="372.29999"
       inkscape:export-ydpi="372.29999">
      <rect
         inkscape:export-ydpi="372.29999"
         inkscape:export-xdpi="372.29999"
         y="175.95312"
         x="112.16444"
         height="68.224701"
         width="68.224701"
         id="rect817-9-3-3-89-8"
         style="opacity:1;vector-effect:none;fill:#ffffff;fill-opacity:1;stroke:#000000;stroke-width:0.26458332;stroke-linecap:butt;stroke-linejoin:miter;stroke-miterlimit:4;stroke-dasharray:none;stroke-dashoffset:0;stroke-opacity:1" />
      <rect
         inkscape:export-ydpi="372.29999"
         inkscape:export-xdpi="372.29999"
         y="177.9375"
         x="114.14881"
         height="64.255951"
         width="64.255951"
         id="rect817-1-8-6-9"
         style="opacity:1;vector-effect:none;fill:#616161;fill-opacity:1;stroke:none;stroke-width:9.26041698;stroke-linecap:butt;stroke-linejoin:miter;stroke-miterlimit:4;stroke-dasharray:none;stroke-dashoffset:0;stroke-opacity:1" />
      <text
         inkscape:export-ydpi="372.29999"
         inkscape:export-xdpi="372.29999"
         id="text837-4-8-4-6"
         y="185.60864"
         x="119.82326"
         style="font-style:normal;font-weight:normal;font-size:4.57989931px;line-height:1.25;font-family:sans-serif;letter-spacing:0px;word-spacing:0px;fill:#ffffff;fill-opacity:1;stroke:#ffffff;stroke-width:0.414;stroke-miterlimit:4;stroke-dasharray:none;stroke-opacity:1"
         xml:space="preserve"><tspan
           style="font-style:normal;font-variant:normal;font-weight:normal;font-stretch:normal;font-size:4.57989931px;font-family:Comfortaa;-inkscape-font-specification:'Comfortaa, Normal';font-variant-ligatures:normal;font-variant-caps:normal;font-variant-numeric:normal;font-feature-settings:normal;text-align:start;writing-mode:lr-tb;text-anchor:start;fill:#ffffff;fill-opacity:1;stroke:#ffffff;stroke-width:0.414;stroke-miterlimit:4;stroke-dasharray:none;stroke-opacity:1"
           y="185.60864"
           x="119.82326"
           id="tspan835-3-3-3-4"
           sodipodi:role="line">Achievement unlocked</tspan></text>
      <text
         inkscape:export-ydpi="372.29999"
         inkscape:export-xdpi="372.29999"
         id="text837-3-3-1-3-3"
         y="237.27798"
         x="118.05618"
         style="font-style:normal;font-weight:normal;font-size:4.57989931px;line-height:1.25;font-family:sans-serif;letter-spacing:0px;word-spacing:0px;fill:#ffffff;fill-opacity:1;stroke:#ffffff;stroke-width:0.414;stroke-miterlimit:4;stroke-dasharray:none;stroke-opacity:1"
         xml:space="preserve"><tspan
           style="font-style:normal;font-variant:normal;font-weight:normal;font-stretch:normal;font-size:4.57989931px;font-family:Comfortaa;-inkscape-font-specification:'Comfortaa, Normal';font-variant-ligatures:normal;font-variant-caps:normal;font-variant-numeric:normal;font-feature-settings:normal;text-align:start;letter-spacing:0.39687499px;writing-mode:lr-tb;text-anchor:start;fill:#ffffff;fill-opacity:1;stroke:#ffffff;stroke-width:0.414;stroke-miterlimit:4;stroke-dasharray:none;stroke-opacity:1"
           y="237.27798"
           x="118.05618"
           id="tspan835-0-3-8-3-3"
           sodipodi:role="line">The force is with me!</tspan></text>
      <g
         style="stroke-width:1.78382754;stroke-miterlimit:4;stroke-dasharray:none"
         transform="matrix(0.24827469,0,0,0.24827469,125.992,191.32549)"
         id="g1062">
        <path
           style="fill:url(#linearGradient1064);stroke-width:1.78382754;stroke-miterlimit:4;stroke-dasharray:none"
           inkscape:connector-curvature="0"
           class="cls-1"
           d="m 270.13,399.21 a 15.75,15.75 0 0 0 -2.82,3.82 15.75,15.75 0 0 1 2.82,-3.82 z"
           transform="translate(-224.29,-323.07)"
           id="path952" />
        <path
           style="fill:url(#linear-gradient-2);stroke-width:1.78382754;stroke-miterlimit:4;stroke-dasharray:none"
           inkscape:connector-curvature="0"
           class="cls-2"
           d="m 317.72,365.53 a 8.4,8.4 0 0 1 6,2.47 l 4.89,4.89 v 0 L 323.69,368 a 8.4,8.4 0 0 0 -5.97,-2.47 z"
           transform="translate(-224.29,-323.07)"
           id="path954" />
        <path
           style="fill:url(#linearGradient1066);stroke-width:1.78382754;stroke-miterlimit:4;stroke-dasharray:none"
           inkscape:connector-curvature="0"
           class="cls-3"
           d="m 270.11,371.42 a 13.89,13.89 0 0 1 19.65,0 l 4.09,4.09 12.71,-12.71 a 15.82,15.82 0 0 1 22.34,0 l 4.89,4.89 12.21,-12.24 -26.63,-26.63 a 19.78,19.78 0 0 0 -27.9,0 l -55,55 a 19.79,19.79 0 0 0 -2.92,24.13 l 0.17,-0.17 z"
           transform="translate(-224.29,-323.07)"
           id="path956" />
        <path
           style="fill:url(#linear-gradient-4);stroke-width:1.78382754;stroke-miterlimit:4;stroke-dasharray:none"
           inkscape:connector-curvature="0"
           class="cls-4"
           d="m 341.89,419.27 a 13.9,13.9 0 0 1 -19.65,0 l -4.84,-4.84 -16,16 a 15.82,15.82 0 0 1 -22.34,0 l -4.13,-4.13 -11.93,11.91 24.48,24.48 a 19.78,19.78 0 0 0 27.9,0 l 55,-55 a 19.79,19.79 0 0 0 4.35,-21.28 l -1.78,1.78 z"
           transform="translate(-224.29,-323.07)"
           id="path958" />
        <path
           style="fill:#ffffff;stroke-width:1.78382754;stroke-miterlimit:4;stroke-dasharray:none"
           inkscape:connector-curvature="0"
           class="cls-5"
           d="m 296.16,425.25 v 0 a 8.39,8.39 0 0 1 -2.79,1.85 8.46,8.46 0 0 1 -9.14,-1.85 l -4.13,-4.13 -4.77,-4.77 a 8.44,8.44 0 0 1 0,-11.93 v 0 L 299,380.71 311.76,368 v 0 a 8.39,8.39 0 0 1 4.35,-2.31 8.52,8.52 0 0 1 1.61,-0.15 8.4,8.4 0 0 1 6,2.47 l 4.89,4.89 5.21,-5.21 v 0 l -4.89,-4.89 a 15.82,15.82 0 0 0 -22.34,0 l -12.75,12.7 -23.71,23.71 a 15.75,15.75 0 0 0 -2.82,3.82 q -0.36,0.69 -0.65,1.4 a 15.79,15.79 0 0 0 3.46,17.12 l 4.77,4.77 4.13,4.13 a 15.82,15.82 0 0 0 22.34,0 l 16,-16 -5.21,-5.21 z"
           transform="translate(-224.29,-323.07)"
           id="path960" />
        <path
           style="fill:#2c256c;stroke-width:1.78382754;stroke-miterlimit:4;stroke-dasharray:none"
           inkscape:connector-curvature="0"
           class="cls-6"
           d="m 372.94,388.22 1.78,-1.78 a 19.52,19.52 0 0 0 -2.64,-4.63 c 0.39,2.12 0.68,4.26 0.86,6.41 z"
           transform="translate(-224.29,-323.07)"
           id="path962-0" />
        <path
           style="fill:#5b2d82;stroke-width:1.78382754;stroke-miterlimit:4;stroke-dasharray:none"
           inkscape:connector-curvature="0"
           class="cls-7"
           d="m 233.76,407.77 -0.17,0.17 c 0.11,0.18 0.21,0.37 0.33,0.55 -0.06,-0.24 -0.12,-0.49 -0.16,-0.72 z"
           transform="translate(-224.29,-323.07)"
           id="path964-3" />
        <path
           style="fill:url(#linear-gradient-5);stroke-width:1.78382754;stroke-miterlimit:4;stroke-dasharray:none"
           inkscape:connector-curvature="0"
           class="cls-8"
           d="m 312,389.42 16.53,-16.53 -4.84,-4.89 a 8.4,8.4 0 0 0 -6,-2.47 8.52,8.52 0 0 0 -1.61,0.15 8.39,8.39 0 0 0 -4.35,2.31 l -12.73,12.72 0.91,0.91 a 13.89,13.89 0 0 1 0,19.65 l -19.81,19.85 4.13,4.13 a 8.44,8.44 0 0 0 11.93,0 l 16,-16 -0.15,-0.15 A 13.89,13.89 0 0 1 312,389.42 Z"
           transform="translate(-224.29,-323.07)"
           id="path966-0" />
        <path
           style="fill:url(#linear-gradient-6);stroke-width:1.78382754;stroke-miterlimit:4;stroke-dasharray:none"
           inkscape:connector-curvature="0"
           class="cls-9"
           d="m 312,389.42 16.53,-16.53 -4.84,-4.89 a 8.4,8.4 0 0 0 -6,-2.47 8.52,8.52 0 0 0 -1.61,0.15 8.39,8.39 0 0 0 -4.35,2.31 l -12.73,12.72 0.91,0.91 a 13.89,13.89 0 0 1 0,19.65 l -19.81,19.85 4.13,4.13 a 8.44,8.44 0 0 0 11.93,0 l 16,-16 -0.15,-0.15 A 13.89,13.89 0 0 1 312,389.42 Z"
           transform="translate(-224.29,-323.07)"
           id="path968" />
        <path
           style="fill:#ffffff;stroke-width:1.78382754;stroke-miterlimit:4;stroke-dasharray:none"
           inkscape:connector-curvature="0"
           class="cls-5"
           d="m 296.16,425.25 v 0 a 8.39,8.39 0 0 1 -2.79,1.85 8.39,8.39 0 0 0 2.79,-1.85 z"
           transform="translate(-224.29,-323.07)"
           id="path970" />
        <path
           style="fill:url(#linear-gradient-7);stroke-width:1.78382754;stroke-miterlimit:4;stroke-dasharray:none"
           inkscape:connector-curvature="0"
           class="cls-10"
           d="m 296.16,425.25 v 0 a 8.39,8.39 0 0 1 -2.79,1.85 8.39,8.39 0 0 0 2.79,-1.85 z"
           transform="translate(-224.29,-323.07)"
           id="path972" />
        <path
           style="fill:#ffffff;stroke-width:1.78382754;stroke-miterlimit:4;stroke-dasharray:none"
           inkscape:connector-curvature="0"
           class="cls-5"
           d="m 280.1,421.12 v 0 l 4.13,4.13 a 8.41,8.41 0 0 0 6,2.47 8.41,8.41 0 0 1 -6,-2.47 z"
           transform="translate(-224.29,-323.07)"
           id="path974" />
        <path
           style="fill:url(#linear-gradient-8);stroke-width:1.78382754;stroke-miterlimit:4;stroke-dasharray:none"
           inkscape:connector-curvature="0"
           class="cls-11"
           d="m 280.1,421.12 v 0 l 4.13,4.13 a 8.41,8.41 0 0 0 6,2.47 8.41,8.41 0 0 1 -6,-2.47 z"
           transform="translate(-224.29,-323.07)"
           id="path976" />
        <path
           style="fill:#ffffff;stroke-width:1.78382754;stroke-miterlimit:4;stroke-dasharray:none"
           inkscape:connector-curvature="0"
           class="cls-5"
           d="m 311.76,368 v 0 a 8.39,8.39 0 0 1 4.35,-2.31 8.39,8.39 0 0 0 -4.35,2.31 z"
           transform="translate(-224.29,-323.07)"
           id="path978" />
        <path
           style="fill:url(#linear-gradient-9);stroke-width:1.78382754;stroke-miterlimit:4;stroke-dasharray:none"
           inkscape:connector-curvature="0"
           class="cls-12"
           d="m 311.76,368 v 0 a 8.39,8.39 0 0 1 4.35,-2.31 8.39,8.39 0 0 0 -4.35,2.31 z"
           transform="translate(-224.29,-323.07)"
           id="path980" />
        <path
           style="fill:#2c256c;stroke-width:1.78382754;stroke-miterlimit:4;stroke-dasharray:none"
           inkscape:connector-curvature="0"
           class="cls-6"
           d="m 236.5,411.71 a 19.6,19.6 0 0 1 -2.59,-3.21 c -0.12,-0.18 -0.22,-0.37 -0.33,-0.55 l -5.23,5.23 a 13.89,13.89 0 0 0 0,19.65 l 10.2,10.2 a 13.9,13.9 0 0 0 19.65,0 l 3.25,-3.25 1.16,-1.16 0.39,-0.39 z"
           transform="translate(-224.29,-323.07)"
           id="path982" />
        <path
           style="fill:#5b2d82;stroke-width:1.78382754;stroke-miterlimit:4;stroke-dasharray:none"
           inkscape:connector-curvature="0"
           class="cls-7"
           d="m 270.13,421.56 a 15.79,15.79 0 0 1 -3.46,-17.12 q 0.29,-0.71 0.65,-1.4 a 15.75,15.75 0 0 1 2.82,-3.82 v 0 l 23.71,-23.71 -4.09,-4.09 a 13.89,13.89 0 0 0 -19.65,0 l -36.35,36.35 c 0,0.24 0.11,0.48 0.15,0.72 a 19.6,19.6 0 0 0 2.59,3.21 l 26.5,26.51 11.89,-11.89 z"
           transform="translate(-224.29,-323.07)"
           id="path984" />
        <path
           style="fill:#5b2d82;stroke-width:1.78382754;stroke-miterlimit:4;stroke-dasharray:none"
           inkscape:connector-curvature="0"
           class="cls-7"
           d="m 266.67,404.44 a 15.88,15.88 0 0 0 0.65,13.3 15.88,15.88 0 0 1 -0.65,-13.3 z"
           transform="translate(-224.29,-323.07)"
           id="path986" />
        <path
           style="fill:#5b2d82;stroke-width:1.78382754;stroke-miterlimit:4;stroke-dasharray:none"
           inkscape:connector-curvature="0"
           class="cls-7"
           d="M 280.1,421.12 300,401.27 a 13.89,13.89 0 0 0 0,-19.65 l -0.91,-0.91 -23.71,23.71 a 8.44,8.44 0 0 0 0,11.93 z"
           transform="translate(-224.29,-323.07)"
           id="path988" />
        <path
           style="fill:#5b2d82;stroke-width:1.78382754;stroke-miterlimit:4;stroke-dasharray:none"
           inkscape:connector-curvature="0"
           class="cls-7"
           d="m 275.34,416.35 a 8.41,8.41 0 0 1 -2.47,-6 8.41,8.41 0 0 0 2.47,6 l 4.77,4.77 v 0 z"
           transform="translate(-224.29,-323.07)"
           id="path990" />
        <path
           style="fill:#5b2d82;stroke-width:1.78382754;stroke-miterlimit:4;stroke-dasharray:none"
           inkscape:connector-curvature="0"
           class="cls-7"
           d="m 275.34,404.42 a 8.39,8.39 0 0 0 -1.85,2.79 8.39,8.39 0 0 1 1.85,-2.79 z"
           transform="translate(-224.29,-323.07)"
           id="path992" />
        <path
           style="fill:#2c256c;stroke-width:1.78382754;stroke-miterlimit:4;stroke-dasharray:none"
           inkscape:connector-curvature="0"
           class="cls-6"
           d="M 328.58,372.89 312,389.42 a 13.89,13.89 0 0 0 0,19.65 l 0.15,0.15 20.39,-20.39 a 8.39,8.39 0 0 0 2.31,-4.35 8.52,8.52 0 0 0 0.15,-1.61 8.41,8.41 0 0 0 -2.47,-6 z"
           transform="translate(-224.29,-323.07)"
           id="path994" />
        <path
           style="fill:#2c256c;stroke-width:1.78382754;stroke-miterlimit:4;stroke-dasharray:none"
           inkscape:connector-curvature="0"
           class="cls-6"
           d="m 332.59,388.83 a 8.39,8.39 0 0 0 2.31,-4.35 8.39,8.39 0 0 1 -2.31,4.35 z"
           transform="translate(-224.29,-323.07)"
           id="path996" />
        <path
           style="fill:#623393;stroke-width:1.78382754;stroke-miterlimit:4;stroke-dasharray:none"
           inkscape:connector-curvature="0"
           class="cls-13"
           d="m 332.59,376.9 a 8.41,8.41 0 0 1 2.47,6 8.41,8.41 0 0 0 -2.47,-6 l -4,-4 v 0 z"
           transform="translate(-224.29,-323.07)"
           id="path998" />
        <path
           style="fill:#623393;stroke-width:1.78382754;stroke-miterlimit:4;stroke-dasharray:none"
           inkscape:connector-curvature="0"
           class="cls-13"
           d="m 337.79,394 a 15.71,15.71 0 0 0 3.47,-5.22 15.72,15.72 0 0 1 -3.47,5.22 z"
           transform="translate(-224.29,-323.07)"
           id="path1000" />
        <path
           style="fill:#623393;stroke-width:1.78382754;stroke-miterlimit:4;stroke-dasharray:none"
           inkscape:connector-curvature="0"
           class="cls-13"
           d="m 341.26,388.81 q 0.29,-0.71 0.51,-1.45 a 15.81,15.81 0 0 0 -4,-15.67 l -4,-4 -5.21,5.21 4,4 a 8.41,8.41 0 0 1 2.47,6 8.52,8.52 0 0 1 -0.15,1.61 8.39,8.39 0 0 1 -2.31,4.35 v 0 l -20.37,20.36 5.21,5.21 20.38,-20.43 a 15.72,15.72 0 0 0 3.47,-5.19 z"
           transform="translate(-224.29,-323.07)"
           id="path1002" />
        <path
           style="fill:#623393;stroke-width:1.78382754;stroke-miterlimit:4;stroke-dasharray:none"
           inkscape:connector-curvature="0"
           class="cls-13"
           d="m 383.64,357.87 -10.2,-10.2 a 13.89,13.89 0 0 0 -18.64,-0.91 c -0.35,0.28 -0.68,0.59 -1,0.91 l -6.58,6.58 -1.16,1.16 v 0 l 24.36,24.36 a 20.7,20.7 0 0 1 4.35,6.62 l 8.92,-8.92 a 13.9,13.9 0 0 0 -0.05,-19.6 z"
           transform="translate(-224.29,-323.07)"
           id="path1004" />
        <path
           style="fill:#2c256c;stroke-width:1.78382754;stroke-miterlimit:4;stroke-dasharray:none"
           inkscape:connector-curvature="0"
           class="cls-6"
           d="m 337.79,371.69 a 15.81,15.81 0 0 1 4,15.67 q -0.22,0.73 -0.51,1.45 a 15.71,15.71 0 0 1 -3.47,5.22 v 0 l -20.41,20.39 4.84,4.84 a 13.9,13.9 0 0 0 19.65,0 l 31,-31 c -0.18,-2.15 -0.47,-4.29 -0.85,-6.41 a 19.62,19.62 0 0 0 -1.71,-2 L 346,355.45 333.77,367.68 Z"
           transform="translate(-224.29,-323.07)"
           id="path1006" />
        <path
           style="fill:#2c256c;stroke-width:1.78382754;stroke-miterlimit:4;stroke-dasharray:none"
           inkscape:connector-curvature="0"
           class="cls-6"
           d="m 337.79,371.69 a 15.81,15.81 0 0 1 4,15.67 15.81,15.81 0 0 0 -4,-15.67 l -4,-4 v 0 z"
           transform="translate(-224.29,-323.07)"
           id="path1008" />
      </g>
    </g>
  </g>
</svg>
