<?xml version="1.0" encoding="UTF-8" standalone="no"?>
<svg
   xmlns:dc="http://purl.org/dc/elements/1.1/"
   xmlns:cc="http://creativecommons.org/ns#"
   xmlns:rdf="http://www.w3.org/1999/02/22-rdf-syntax-ns#"
   xmlns:svg="http://www.w3.org/2000/svg"
   xmlns="http://www.w3.org/2000/svg"
   xmlns:sodipodi="http://sodipodi.sourceforge.net/DTD/sodipodi-0.dtd"
   xmlns:inkscape="http://www.inkscape.org/namespaces/inkscape"
   sodipodi:docname="home-office-survivor.svg"
   inkscape:version="1.0 (1.0+r73+1)"
   id="svg11475"
   version="1.1"
   viewBox="0 0 68.489281 68.489281"
   height="68.489281mm"
   width="68.489281mm">
  <defs
     id="defs11469">
    <filter
       inkscape:menu-tooltip="Basic diffuse bevel to use for building textures"
       inkscape:menu="ABCs"
       inkscape:label="Diffuse light"
       id="filter6746-7"
       style="color-interpolation-filters:sRGB">
      <feGaussianBlur
         result="result0"
         in="SourceGraphic"
         stdDeviation="6"
         id="feGaussianBlur6748-8" />
      <feDiffuseLighting
         result="result5"
         surfaceScale="10"
         diffuseConstant="1"
         id="feDiffuseLighting6750-3">
        <feDistantLight
           azimuth="235"
           elevation="25"
           id="feDistantLight6752-8" />
      </feDiffuseLighting>
      <feComposite
         k4="0"
         k3="0.6"
         k2="0"
         operator="arithmetic"
         result="result4"
         in="result5"
         k1="1"
         in2="SourceGraphic"
         id="feComposite6754-2" />
    </filter>
    <filter
       inkscape:menu-tooltip="Basic diffuse bevel to use for building textures"
       inkscape:menu="ABCs"
       inkscape:label="Diffuse light"
       id="filter6746-7-2"
       style="color-interpolation-filters:sRGB">
      <feGaussianBlur
         result="result0"
         in="SourceGraphic"
         stdDeviation="6"
         id="feGaussianBlur6748-8-1" />
      <feDiffuseLighting
         result="result5"
         surfaceScale="10"
         diffuseConstant="1"
         id="feDiffuseLighting6750-3-4">
        <feDistantLight
           azimuth="235"
           elevation="25"
           id="feDistantLight6752-8-6" />
      </feDiffuseLighting>
      <feComposite
         k4="0"
         k3="0.6"
         k2="0"
         operator="arithmetic"
         result="result4"
         in="result5"
         k1="1"
         in2="SourceGraphic"
         id="feComposite6754-2-2" />
    </filter>
  </defs>
  <sodipodi:namedview
     inkscape:document-rotation="0"
     inkscape:window-maximized="1"
     inkscape:window-y="31"
     inkscape:window-x="0"
     inkscape:window-height="964"
     inkscape:window-width="1920"
     showgrid="false"
     inkscape:current-layer="g8350"
     inkscape:document-units="mm"
     inkscape:cy="192.89205"
     inkscape:cx="213.53984"
     inkscape:zoom="1.979899"
     inkscape:pageshadow="2"
     inkscape:pageopacity="0.0"
     borderopacity="1.0"
     bordercolor="#666666"
     pagecolor="#ffffff"
     id="base" />
  <metadata
     id="metadata11472">
    <rdf:RDF>
      <cc:Work
         rdf:about="">
        <dc:format>image/svg+xml</dc:format>
        <dc:type
           rdf:resource="http://purl.org/dc/dcmitype/StillImage" />
        <dc:title />
      </cc:Work>
    </rdf:RDF>
  </metadata>
  <g
     transform="translate(-59.493453,-174.30893)"
     id="layer1"
     inkscape:groupmode="layer"
     inkscape:label="Layer 1">
    <g
       inkscape:export-ydpi="372.72"
       inkscape:export-xdpi="372.72"
       id="g8350"
       transform="translate(44.223215,-237.18006)">
      <rect
         style="opacity:1;vector-effect:none;fill:#ffffff;fill-opacity:1;stroke:#000000;stroke-width:0.26458332;stroke-linecap:butt;stroke-linejoin:miter;stroke-miterlimit:4;stroke-dasharray:none;stroke-dashoffset:0;stroke-opacity:1"
         id="rect817-9-3-3-89-8-6-8-3-0"
         width="68.224701"
         height="68.224701"
         x="15.40253"
         y="411.62128"
         inkscape:export-xdpi="372.29999"
         inkscape:export-ydpi="372.29999" />
      <rect
         style="opacity:1;vector-effect:none;fill:#616161;fill-opacity:1;stroke:none;stroke-width:9.26042;stroke-linecap:butt;stroke-linejoin:miter;stroke-miterlimit:4;stroke-dasharray:none;stroke-dashoffset:0;stroke-opacity:1"
         id="rect817-1-8-6-9-0-3-8-23"
         width="64.255951"
         height="64.255951"
         x="17.386904"
         y="413.60565"
         inkscape:export-xdpi="372.29999"
         inkscape:export-ydpi="372.29999" />
      <text
         xml:space="preserve"
         style="font-style:normal;font-weight:normal;font-size:4.57989931px;line-height:1.25;font-family:sans-serif;letter-spacing:0px;word-spacing:0px;fill:#ffffff;fill-opacity:1;stroke:#ffffff;stroke-width:0.414;stroke-miterlimit:4;stroke-dasharray:none;stroke-opacity:1"
         x="23.061357"
         y="421.27682"
         id="text837-4-8-4-6-4-1-8-5"
         inkscape:export-xdpi="372.29999"
         inkscape:export-ydpi="372.29999"><tspan
           sodipodi:role="line"
           id="tspan835-3-3-3-4-8-8-3-2"
           x="23.061357"
           y="421.27682"
           style="font-style:normal;font-variant:normal;font-weight:normal;font-stretch:normal;font-size:4.57989931px;font-family:Comfortaa;-inkscape-font-specification:'Comfortaa, Normal';font-variant-ligatures:normal;font-variant-caps:normal;font-variant-numeric:normal;font-feature-settings:normal;text-align:start;writing-mode:lr-tb;text-anchor:start;fill:#ffffff;fill-opacity:1;stroke:#ffffff;stroke-width:0.414;stroke-miterlimit:4;stroke-dasharray:none;stroke-opacity:1">Achievement unlocked</tspan></text>
      <text
         xml:space="preserve"
         style="font-style:normal;font-variant:normal;font-weight:normal;font-stretch:normal;font-size:4.5799px;line-height:1.25;font-family:sans-serif;-inkscape-font-specification:sans-serif;letter-spacing:0px;word-spacing:0px;fill:#ffffff;fill-opacity:1;stroke:#ffffff;stroke-width:0.414;stroke-miterlimit:4;stroke-dasharray:none;stroke-opacity:1"
         x="19.670048"
         y="474.54977"
         id="text837-3-3-1-3-3-8-9-1-0"
         inkscape:export-xdpi="372.29999"
         inkscape:export-ydpi="372.29999"><tspan
           sodipodi:role="line"
           id="tspan835-0-3-8-3-3-8-6-8-97"
           x="19.670048"
           y="474.54977"
           style="font-style:normal;font-variant:normal;font-weight:normal;font-stretch:normal;font-size:4.5799px;font-family:Comfortaa;-inkscape-font-specification:Comfortaa;font-variant-ligatures:normal;font-variant-caps:normal;font-variant-numeric:normal;font-feature-settings:normal;text-align:start;letter-spacing:0.529167px;writing-mode:lr-tb;text-anchor:start;fill:#ffffff;fill-opacity:1;stroke:#ffffff;stroke-width:0.414;stroke-miterlimit:4;stroke-dasharray:none;stroke-opacity:1">Homeoffice Survivor!</tspan></text>
      <text
         id="text1622"
         y="462.2702"
         x="55.494301"
         style="font-style:normal;font-weight:normal;font-size:10.5833px;line-height:1.25;font-family:sans-serif;fill:#000000;fill-opacity:1;stroke:none;stroke-width:0.264583"
         xml:space="preserve"><tspan
           style="stroke-width:0.264583"
           y="462.2702"
           x="55.494301"
           id="tspan1620"
           sodipodi:role="line" /></text>
      <g
         transform="matrix(0.08680777,0,0,0.08680777,27.319779,426.40276)"
         id="g570">
        <g
           id="g560">
          <path
             d="m 255.941,74.941 -180.04,131.9 0.04,0.05 v 279.05 h 360 v -279.05 l 0.04,-0.05 z"
             fill="#eefaff"
             id="path548" />
          <path
             d="m 501.881,205.531 -23.53,32.35 C 476.342,236.41 264.822,81.447 255.941,74.941 246.977,81.508 35.521,236.423 33.531,237.881 l -23.53,-32.35 245.94,-179.59 c 1.144,0.835 52.653,38.454 245.94,179.59 z"
             fill="#ff7b79"
             id="path550" />
          <path
             d="m 435.941,45.941 v 111.44 l -60,-43.81 v -67.63 z"
             fill="#8690a6"
             id="path552" />
          <path
             d="m 295.941,205.941 v 140 h 80 c 0,-13.692 0,-125.964 0,-140 z"
             fill="#8690a6"
             id="path554" />
          <path
             d="m 135.941,345.941 v 100 h 120 v -60 h 120 v -40 c -7.047,0 -234.086,0 -240,0 z"
             fill="#ffda8f"
             id="path556" />
          <path
             d="m 255.941,205.941 v 100 c -14.518,0 -105.386,0 -120,0 v -100 z"
             fill="#b3f1ff"
             id="path558" />
        </g>
        <g
           id="g568">
          <circle
             cx="335.94101"
             cy="305.94101"
             r="10"
             id="circle562" />
          <path
             d="m 1.914,211.413 23.53,32.35 c 3.255,4.475 9.533,5.456 13.997,2.185 l 26.5,-19.414 v 259.408 c 0,5.523 4.477,10 10,10 h 135 c 5.523,0 10,-4.477 10,-10 0,-5.523 -4.477,-10 -10,-10 h -65 v -20 h 110 c 5.523,0 10,-4.477 10,-10 v -50 h 100 v 80 h -65 c -5.523,0 -10,4.477 -10,10 0,5.523 4.477,10 10,10 h 135 c 5.523,0 10,-4.477 10,-10 V 226.533 l 26.5,19.414 c 4.474,3.277 10.748,2.282 13.997,-2.185 l 23.53,-32.35 c 3.245,-4.461 2.265,-10.706 -2.189,-13.958 L 445.941,152.3 V 55.94 h 10 c 5.523,0 10,-4.477 10,-10 0,-5.523 -4.477,-10 -10,-10 h -100 c -5.523,0 -10,4.477 -10,10 0,5.523 4.477,10 10,10 h 10 V 93.882 L 261.838,17.865 c -3.513,-2.566 -8.282,-2.565 -11.795,0 L 4.103,197.454 c -4.454,3.253 -5.434,9.498 -2.189,13.959 z m 244.027,224.528 h -100 v -80 h 100 z m 20,-60 v -20 h 100 v 20 z m 100,-140 h -60 v -20 h 60 z m -60,20 h 60 v 80 h -60 z m 120,220 h -40 v -120 h 10 c 5.523,0 10,-4.477 10,-10 0,-5.523 -4.477,-10 -10,-10 h -10 v -130 c 0,-5.523 -4.477,-10 -10,-10 h -80 c -5.523,0 -10,4.477 -10,10 v 130 h -80 v -20 h 50 c 5.523,0 10,-4.477 10,-10 v -100 c 0,-5.523 -4.477,-10 -10,-10 h -120 c -5.523,0 -10,4.477 -10,10 v 100 c 0,5.523 4.477,10 10,10 h 50 v 20 h -70 c -5.523,0 -10,4.477 -10,10 0,5.523 4.477,10 10,10 h 10 v 120 h -40 v -264.06 l 170,-124.544 170,124.544 z m -280,-180 v -80 h 100 v 80 z m 240,-240 h 40 v 81.755 l -40,-29.209 z m -130,-17.618 c 2.56,1.881 228.333,166.733 231.982,169.397 L 476.167,223.883 261.85,66.874 c -1.759,-1.289 -3.834,-1.933 -5.91,-1.933 -2.076,0 -4.151,0.645 -5.91,1.933 L 35.715,223.884 23.959,207.72 Z"
             id="path564" />
          <circle
             cx="255.94099"
             cy="485.94101"
             r="10"
             id="circle566" />
        </g>
      </g>
      <circle
         style="fill:#aa494a;stroke-width:0.995135"
         cx="42.912441"
         cy="426.57162"
         r="2.4868474"
         id="circle572" />
      <circle
         style="fill:#d36767;stroke-width:0.995135"
         cx="42.912441"
         cy="426.57162"
         r="2.2500045"
         id="circle574" />
      <rect
         x="42.794014"
         y="423.61118"
         style="fill:#3a4249;stroke-width:0.995135"
         width="0.23684259"
         height="0.94737035"
         id="rect576" />
      <rect
         x="-134.39566"
         y="404.19379"
         transform="rotate(-23.996824)"
         style="fill:#3a4249;stroke-width:0.995135"
         width="0.23684259"
         height="0.94737035"
         id="rect578" />
      <rect
         x="-216.172"
         y="367.34418"
         transform="rotate(-36.005856)"
         style="fill:#3a4249;stroke-width:0.995135"
         width="0.23684259"
         height="0.94737035"
         id="rect580" />
      <rect
         x="-348.08102"
         y="247.49251"
         transform="rotate(-59.999271)"
         style="fill:#3a4249;stroke-width:0.995135"
         width="0.23684259"
         height="0.94737035"
         id="rect582" />
      <rect
         x="-419.86981"
         y="84.294998"
         transform="rotate(-84.00147)"
         style="fill:#3a4249;stroke-width:0.995135"
         width="0.23684259"
         height="0.94737035"
         id="rect584" />
      <rect
         x="-4.8607678"
         y="428.60208"
         transform="rotate(-5.9985305)"
         style="fill:#3a4249;stroke-width:0.995135"
         width="0.94737035"
         height="0.23684259"
         id="rect586" />
      <rect
         x="-179.03506"
         y="390.7825"
         transform="rotate(-29.992926)"
         style="fill:#3a4249;stroke-width:0.995135"
         width="0.94737035"
         height="0.23684259"
         id="rect588" />
      <rect
         x="-322.83481"
         y="285.33841"
         transform="rotate(-53.99874)"
         style="fill:#3a4249;stroke-width:0.995135"
         width="0.94737035"
         height="0.23684259"
         id="rect590" />
      <rect
         x="-375.20316"
         y="212.58067"
         transform="rotate(-66.000867)"
         style="fill:#3a4249;stroke-width:0.995135"
         width="0.94737035"
         height="0.23684259"
         id="rect592" />
      <rect
         x="42.794014"
         y="428.5849"
         style="fill:#3a4249;stroke-width:0.995135"
         width="0.23684259"
         height="0.94737035"
         id="rect594" />
      <rect
         x="-134.39635"
         y="409.1676"
         transform="rotate(-23.996824)"
         style="fill:#3a4249;stroke-width:0.995135"
         width="0.23684259"
         height="0.94737035"
         id="rect596" />
      <rect
         x="-216.17223"
         y="372.31833"
         transform="rotate(-36.005856)"
         style="fill:#3a4249;stroke-width:0.995135"
         width="0.23684259"
         height="0.94737035"
         id="rect598" />
      <rect
         x="-348.08151"
         y="252.46631"
         transform="rotate(-59.999271)"
         style="fill:#3a4249;stroke-width:0.995135"
         width="0.23684259"
         height="0.94737035"
         id="rect600" />
      <rect
         x="-419.87061"
         y="89.268555"
         transform="rotate(-84.00147)"
         style="fill:#3a4249;stroke-width:0.995135"
         width="0.23684259"
         height="0.94737035"
         id="rect602" />
      <rect
         x="0.11229552"
         y="428.6022"
         transform="rotate(-5.9985305)"
         style="fill:#3a4249;stroke-width:0.995135"
         width="0.94737035"
         height="0.23684259"
         id="rect604" />
      <rect
         x="-174.06068"
         y="390.78101"
         transform="rotate(-29.992926)"
         style="fill:#3a4249;stroke-width:0.995135"
         width="0.94737035"
         height="0.23684259"
         id="rect606" />
      <rect
         x="-317.86099"
         y="285.33774"
         transform="rotate(-53.99874)"
         style="fill:#3a4249;stroke-width:0.995135"
         width="0.94737035"
         height="0.23684259"
         id="rect608" />
      <rect
         x="-370.22934"
         y="212.58073"
         transform="rotate(-66.000867)"
         style="fill:#3a4249;stroke-width:0.995135"
         width="0.94737035"
         height="0.23684259"
         id="rect610" />
      <path
         style="fill:#f2daae;stroke-width:0.995135"
         d="m 44.333506,426.57177 c -0.04577,0 -0.08858,-0.0263 -0.108472,-0.0696 -0.05574,-0.12525 0.03084,-0.23997 0.09455,-0.32234 0.0237,-0.0301 0.07365,-0.0985 0.07263,-0.12035 -0.01579,-0.004 -0.09256,0.0188 -0.133332,0.0301 -0.0985,0.0263 -0.232853,0.0666 -0.323422,-0.0301 -0.08955,-0.0876 -0.04878,-0.21777 -0.01504,-0.32233 0.0097,-0.0339 0.02783,-0.0884 0.02971,-0.11848 -0.02182,0.0113 -0.07067,0.0508 -0.0985,0.0726 -0.0856,0.0666 -0.192081,0.15045 -0.310482,0.0926 -0.11543,-0.0488 -0.120432,-0.18505 -0.124381,-0.2945 -9.97e-4,-0.0301 -0.003,-0.0847 -0.0098,-0.11547 -0.01579,0.0226 -0.0448,0.0696 -0.06269,0.0985 -0.05672,0.0925 -0.127391,0.20912 -0.25873,0.19408 -0.125396,-0.007 -0.176135,-0.13352 -0.215928,-0.2347 -0.01204,-0.0301 -0.03272,-0.0797 -0.04975,-0.10568 -0.0061,0.0264 -0.01805,0.0797 -0.02407,0.11133 -0.02295,0.10756 -0.05074,0.24071 -0.179144,0.26968 -0.120432,0.0376 -0.209985,-0.0666 -0.283628,-0.14745 -0.02182,-0.0264 -0.05871,-0.0666 -0.08361,-0.0858 9.97e-4,0.0263 0.009,0.0827 0.01392,0.11547 0.01505,0.10831 0.03385,0.24372 -0.07661,0.31631 -0.100494,0.0756 -0.22093,0.0113 -0.317441,-0.0377 -0.03197,-0.0188 -0.08756,-0.0459 -0.116445,-0.0519 0.0049,0.0264 0.03574,0.0835 0.05273,0.11658 0.05074,0.0974 0.114451,0.21891 0.03686,0.32835 -0.06567,0.10832 -0.204983,0.0996 -0.306496,0.0926 -0.04776,-0.004 -0.13732,-0.0113 -0.146271,0.0113 -0.0267,0.0598 -0.09651,0.0865 -0.156238,0.0598 -0.05969,-0.0263 -0.08756,-0.0974 -0.0607,-0.15721 0.07661,-0.17113 0.265687,-0.15834 0.379146,-0.15007 0.02483,0.002 0.05774,0.004 0.08162,0.003 -0.0098,-0.0226 -0.02596,-0.0556 -0.0378,-0.0775 -0.05472,-0.10532 -0.13732,-0.26367 -0.01805,-0.39406 0.133333,-0.12939 0.300516,-0.0429 0.40104,0.007 0.01692,0.007 0.03881,0.0226 0.05774,0.0301 -0.002,-0.0226 -0.0049,-0.0459 -0.0079,-0.0647 -0.01579,-0.11848 -0.04081,-0.29676 0.116445,-0.3731 0.166206,-0.0718 0.2866,0.0635 0.365208,0.15232 0.01204,0.0113 0.0267,0.0301 0.04081,0.0448 0.0049,-0.0188 0.009,-0.0407 0.01279,-0.0576 0.02294,-0.10945 0.0607,-0.29261 0.234846,-0.31142 0.179143,-0.0113 0.245791,0.15608 0.290586,0.26592 0.0061,0.0188 0.01392,0.0376 0.02182,0.0545 0.01091,-0.0151 0.02182,-0.0339 0.03197,-0.0497 0.06168,-0.1016 0.157217,-0.25463 0.326393,-0.21514 0.174142,0.0497 0.180122,0.23583 0.184108,0.34716 9.97e-4,0.0188 0.002,0.041 0.003,0.0617 0.01692,-0.0113 0.03498,-0.0263 0.04875,-0.0376 0.09455,-0.0737 0.236839,-0.18505 0.384121,-0.0888 0.147286,0.10833 0.09256,0.27946 0.05671,0.39308 -0.0072,0.0226 -0.01579,0.0489 -0.02182,0.0714 0.02182,-0.004 0.04875,-0.0113 0.06965,-0.0188 0.108472,-0.0301 0.290586,-0.0835 0.395071,0.0666 0.0985,0.15835 -0.0097,0.30052 -0.08162,0.39507 -0.02106,0.0264 -0.05375,0.0707 -0.06168,0.0926 0.0188,0.0568 -0.0079,0.12035 -0.06368,0.14518 -0.01579,0.007 -0.03272,0.0113 -0.04875,0.0113 z"
         id="path612" />
      <circle
         style="fill:#62c4c3;stroke-width:0.995135"
         cx="42.912441"
         cy="423.3743"
         r="0.35526386"
         id="circle614" />
      <circle
         style="fill:#62c4c3;stroke-width:0.995135"
         cx="40.142975"
         cy="424.97354"
         r="0.35526386"
         id="circle616" />
      <path
         style="fill:#62c4c3;stroke-width:0.995135"
         d="m 39.965851,427.86244 c -0.170155,0.0985 -0.227888,0.31631 -0.130362,0.48564 0.0985,0.16925 0.315447,0.22793 0.485629,0.13051 0.169176,-0.0985 0.227888,-0.31556 0.130361,-0.48564 -0.0985,-0.17 -0.316463,-0.22792 -0.485628,-0.13051 z"
         id="path618" />
      <circle
         style="fill:#62c4c3;stroke-width:0.995135"
         cx="42.912441"
         cy="429.7691"
         r="0.35526386"
         id="circle620" />
      <path
         style="fill:#62c4c3;stroke-width:0.995135"
         d="m 45.859049,427.86244 c -0.170153,-0.0974 -0.387108,-0.0399 -0.485627,0.13051 -0.09753,0.17039 -0.03979,0.38714 0.130361,0.48564 0.169177,0.0974 0.387109,0.0387 0.485628,-0.13051 0.09753,-0.16925 0.03979,-0.38709 -0.130362,-0.48564 z"
         id="path622" />
      <circle
         style="fill:#62c4c3;stroke-width:0.995135"
         cx="45.680931"
         cy="424.97354"
         r="0.35526386"
         id="circle624" />
      <circle
         style="fill:#aa494a;stroke-width:0.995135"
         cx="35.959431"
         cy="433.32971"
         r="1.9932592"
         id="circle626" />
      <circle
         style="fill:#d36767;stroke-width:0.995135"
         cx="35.959431"
         cy="433.32971"
         r="1.8041831"
         id="circle628" />
      <rect
         x="35.86488"
         y="430.95627"
         style="fill:#3a4249;stroke-width:0.995135"
         width="0.19007115"
         height="0.7592895"
         id="rect630" />
      <rect
         x="-143.47264"
         y="408.12772"
         transform="rotate(-23.996824)"
         style="fill:#3a4249;stroke-width:0.995135"
         width="0.19007115"
         height="0.7592895"
         id="rect632" />
      <rect
         x="-225.746"
         y="369.31122"
         transform="rotate(-36.005856)"
         style="fill:#3a4249;stroke-width:0.995135"
         width="0.19007115"
         height="0.7592895"
         id="rect634" />
      <rect
         x="-357.38681"
         y="245.4377"
         transform="rotate(-59.999271)"
         style="fill:#3a4249;stroke-width:0.995135"
         width="0.19007115"
         height="0.7592895"
         id="rect636" />
      <rect
         x="-427.29489"
         y="78.673561"
         transform="rotate(-84.00147)"
         style="fill:#3a4249;stroke-width:0.995135"
         width="0.19007115"
         height="0.7592895"
         id="rect638" />
      <rect
         x="-11.894828"
         y="434.62088"
         transform="rotate(-5.9985305)"
         style="fill:#3a4249;stroke-width:0.995135"
         width="0.7592895"
         height="0.19007115"
         id="rect640" />
      <rect
         x="-187.84871"
         y="393.18405"
         transform="rotate(-29.992926)"
         style="fill:#3a4249;stroke-width:0.995135"
         width="0.7592895"
         height="0.19007115"
         id="rect642" />
      <rect
         x="-331.80209"
         y="283.71011"
         transform="rotate(-53.99874)"
         style="fill:#3a4249;stroke-width:0.995135"
         width="0.7592895"
         height="0.19007115"
         id="rect644" />
      <rect
         x="-383.61819"
         y="209.00151"
         transform="rotate(-66.000867)"
         style="fill:#3a4249;stroke-width:0.995135"
         width="0.7592895"
         height="0.19007115"
         id="rect646" />
      <rect
         x="35.86488"
         y="434.94376"
         style="fill:#3a4249;stroke-width:0.995135"
         width="0.19007115"
         height="0.7592895"
         id="rect648" />
      <rect
         x="-143.47333"
         y="412.11563"
         transform="rotate(-23.996824)"
         style="fill:#3a4249;stroke-width:0.995135"
         width="0.19007115"
         height="0.7592895"
         id="rect650" />
      <rect
         x="-225.74664"
         y="373.29892"
         transform="rotate(-36.005856)"
         style="fill:#3a4249;stroke-width:0.995135"
         width="0.19007115"
         height="0.7592895"
         id="rect652" />
      <rect
         x="-357.38794"
         y="249.42577"
         transform="rotate(-59.999271)"
         style="fill:#3a4249;stroke-width:0.995135"
         width="0.19007115"
         height="0.7592895"
         id="rect654" />
      <rect
         x="-427.29498"
         y="82.661377"
         transform="rotate(-84.00147)"
         style="fill:#3a4249;stroke-width:0.995135"
         width="0.19007115"
         height="0.7592895"
         id="rect656" />
      <rect
         x="-7.9073596"
         y="434.62051"
         transform="rotate(-5.9985305)"
         style="fill:#3a4249;stroke-width:0.995135"
         width="0.7592895"
         height="0.19007115"
         id="rect658" />
      <rect
         x="-183.86029"
         y="393.18225"
         transform="rotate(-29.992926)"
         style="fill:#3a4249;stroke-width:0.995135"
         width="0.7592895"
         height="0.19007115"
         id="rect660" />
      <rect
         x="-327.81482"
         y="283.70874"
         transform="rotate(-53.99874)"
         style="fill:#3a4249;stroke-width:0.995135"
         width="0.7592895"
         height="0.19007115"
         id="rect662" />
      <rect
         x="-379.63046"
         y="209.00122"
         transform="rotate(-66.000867)"
         style="fill:#3a4249;stroke-width:0.995135"
         width="0.7592895"
         height="0.19007115"
         id="rect664" />
      <path
         style="fill:#f2daae;stroke-width:0.995135"
         d="m 37.09886,433.32972 c -0.03686,0 -0.07067,-0.0226 -0.08659,-0.0556 -0.0448,-0.10037 0.02482,-0.19219 0.07564,-0.25877 0.0188,-0.0263 0.05871,-0.0786 0.05871,-0.0967 -0.01279,-0.003 -0.07462,0.0151 -0.107494,0.0264 -0.0786,0.0226 -0.187079,0.0538 -0.258728,-0.0264 -0.07263,-0.0707 -0.03979,-0.17527 -0.01279,-0.25877 0.009,-0.0263 0.02295,-0.0707 0.02483,-0.0944 -0.01805,0.0113 -0.05671,0.041 -0.07962,0.0579 -0.06868,0.0538 -0.154245,0.12037 -0.248801,0.0745 -0.09256,-0.0388 -0.09655,-0.14819 -0.09952,-0.23583 -9.97e-4,-0.0264 -0.003,-0.0689 -0.0079,-0.0925 -0.01279,0.0188 -0.03573,0.0556 -0.05074,0.0786 -0.0448,0.0748 -0.10151,0.16737 -0.206975,0.15534 -0.100494,-0.004 -0.141307,-0.10644 -0.173164,-0.18806 -0.0097,-0.0226 -0.0267,-0.0635 -0.03979,-0.0847 -0.0049,0.0226 -0.01505,0.0635 -0.0188,0.0895 -0.0188,0.0865 -0.0408,0.19295 -0.144278,0.2159 -0.09651,0.0301 -0.168161,-0.0538 -0.22691,-0.11735 -0.01805,-0.0226 -0.04776,-0.0538 -0.06766,-0.0689 9.94e-4,0.0226 0.0079,0.0658 0.01204,0.0925 0.01204,0.0865 0.0267,0.19521 -0.06168,0.25388 -0.0806,0.0598 -0.17715,0.0113 -0.254743,-0.0301 -0.02483,-0.0151 -0.06965,-0.0377 -0.09353,-0.0418 0.0041,0.0226 0.02896,0.0677 0.04281,0.0937 0.0408,0.0786 0.09154,0.17527 0.02971,0.26367 -0.05273,0.0865 -0.165189,0.0797 -0.245791,0.0737 -0.03881,-0.003 -0.110464,-0.007 -0.117423,0.007 -0.02182,0.0477 -0.07763,0.0696 -0.125397,0.0477 -0.04776,-0.0226 -0.07064,-0.0786 -0.04875,-0.12638 0.06168,-0.13727 0.212956,-0.12637 0.303525,-0.12035 0.01993,0.002 0.04675,0.003 0.06567,0.003 -0.0079,-0.0188 -0.02106,-0.0448 -0.02971,-0.0628 -0.04378,-0.0847 -0.110465,-0.211 -0.01505,-0.31556 0.107494,-0.10456 0.240827,-0.0339 0.321428,0.007 0.01392,0.007 0.03197,0.0188 0.04679,0.0226 -0.002,-0.0188 -0.0041,-0.0377 -0.0072,-0.0519 -0.01204,-0.0944 -0.03197,-0.23771 0.09353,-0.29939 0.133333,-0.0568 0.229881,0.0519 0.29258,0.12223 0.0098,0.0113 0.02182,0.0226 0.03272,0.0377 0.0041,-0.0151 0.0079,-0.0339 0.01091,-0.0459 0.01805,-0.0888 0.04875,-0.2347 0.188095,-0.24973 0.1433,-0.0113 0.197046,0.12524 0.232853,0.21287 0.0049,0.0113 0.01091,0.0301 0.01805,0.0436 0.009,-0.0151 0.01692,-0.0264 0.02482,-0.0399 0.04977,-0.0816 0.126375,-0.20385 0.261738,-0.17226 0.140329,0.0399 0.144278,0.18919 0.148265,0.27757 0,0.0151 9.97e-4,0.0339 0.002,0.0497 0.01392,-0.0113 0.02783,-0.0226 0.03881,-0.0301 0.07564,-0.0598 0.190051,-0.14818 0.308489,-0.0714 0.117423,0.0876 0.07365,0.22492 0.0448,0.31557 -0.0049,0.0151 -0.01204,0.0388 -0.01692,0.0576 0.01692,-0.004 0.03881,-0.0113 0.05574,-0.0151 0.08658,-0.0226 0.232852,-0.0666 0.316462,0.0538 0.07962,0.12751 -0.0079,0.24072 -0.06469,0.31631 -0.01692,0.0226 -0.04378,0.0568 -0.04975,0.0748 0.01505,0.0459 -0.0072,0.0967 -0.05176,0.11659 -0.01204,0.007 -0.02595,0.007 -0.03881,0.007 z"
         id="path666" />
      <circle
         style="fill:#62c4c3;stroke-width:0.995135"
         cx="35.959431"
         cy="430.7662"
         r="0.28460917"
         id="circle668" />
      <circle
         style="fill:#62c4c3;stroke-width:0.995135"
         cx="33.739277"
         cy="432.04794"
         r="0.28460917"
         id="circle670" />
      <path
         style="fill:#62c4c3;stroke-width:0.995135"
         d="m 33.597969,434.36468 c -0.13732,0.0786 -0.183093,0.25388 -0.105501,0.38909 0.07962,0.1354 0.253765,0.18316 0.390095,0.10456 0.135326,-0.0786 0.182115,-0.25275 0.104485,-0.38909 -0.07962,-0.13615 -0.253765,-0.18317 -0.389098,-0.10456 z"
         id="path672" />
      <circle
         style="fill:#62c4c3;stroke-width:0.995135"
         cx="35.959431"
         cy="435.89313"
         r="0.28460917"
         id="circle674" />
      <path
         style="fill:#62c4c3;stroke-width:0.995135"
         d="m 38.321883,434.36468 c -0.136341,-0.0786 -0.310483,-0.0301 -0.389098,0.10456 -0.0786,0.13615 -0.03197,0.31067 0.104485,0.38909 0.135326,0.0786 0.310483,0.0301 0.389098,-0.10456 0.0786,-0.13541 0.03197,-0.31029 -0.104485,-0.38909 z"
         id="path676" />
      <circle
         style="fill:#62c4c3;stroke-width:0.995135"
         cx="38.179585"
         cy="432.04794"
         r="0.28460917"
         id="circle678" />
      <circle
         style="fill:#aa494a;stroke-width:0.995135"
         cx="24.712389"
         cy="429.80295"
         r="2.2460239"
         id="circle680" />
      <circle
         style="fill:#d36767;stroke-width:0.995135"
         cx="24.712389"
         cy="429.80295"
         r="2.0320697"
         id="circle682" />
      <rect
         x="24.604912"
         y="427.129"
         style="fill:#3a4249;stroke-width:0.995135"
         width="0.21395445"
         height="0.85581779"
         id="rect684" />
      <rect
         x="-152.32654"
         y="400.0307"
         transform="rotate(-23.996824)"
         style="fill:#3a4249;stroke-width:0.995135"
         width="0.21395445"
         height="0.85581779"
         id="rect686" />
      <rect
         x="-232.78421"
         y="359.54562"
         transform="rotate(-36.005856)"
         style="fill:#3a4249;stroke-width:0.995135"
         width="0.21395445"
         height="0.85581779"
         id="rect688" />
      <rect
         x="-359.96936"
         y="233.63257"
         transform="rotate(-59.999271)"
         style="fill:#3a4249;stroke-width:0.995135"
         width="0.21395445"
         height="0.85581779"
         id="rect690" />
      <rect
         x="-424.97491"
         y="66.81765"
         transform="rotate(-84.00147)"
         style="fill:#3a4249;stroke-width:0.995135"
         width="0.21395445"
         height="0.85581779"
         id="rect692" />
      <rect
         x="-23.013056"
         y="429.92538"
         transform="rotate(-5.9985305)"
         style="fill:#3a4249;stroke-width:0.995135"
         width="0.85581779"
         height="0.21395445"
         id="rect694" />
      <rect
         x="-196.12735"
         y="384.49387"
         transform="rotate(-29.992926)"
         style="fill:#3a4249;stroke-width:0.995135"
         width="0.85581779"
         height="0.21395445"
         id="rect696" />
      <rect
         x="-335.86179"
         y="272.52493"
         transform="rotate(-53.99874)"
         style="fill:#3a4249;stroke-width:0.995135"
         width="0.85581779"
         height="0.21395445"
         id="rect698" />
      <rect
         x="-385.27115"
         y="197.27858"
         transform="rotate(-66.000867)"
         style="fill:#3a4249;stroke-width:0.995135"
         width="0.85581779"
         height="0.21395445"
         id="rect700" />
      <rect
         x="24.604912"
         y="431.62097"
         style="fill:#3a4249;stroke-width:0.995135"
         width="0.21395445"
         height="0.85581779"
         id="rect702" />
      <rect
         x="-152.32729"
         y="404.52301"
         transform="rotate(-23.996824)"
         style="fill:#3a4249;stroke-width:0.995135"
         width="0.21395445"
         height="0.85581779"
         id="rect704" />
      <rect
         x="-232.78479"
         y="364.03757"
         transform="rotate(-36.005856)"
         style="fill:#3a4249;stroke-width:0.995135"
         width="0.21395445"
         height="0.85581779"
         id="rect706" />
      <rect
         x="-359.96948"
         y="238.12465"
         transform="rotate(-59.999271)"
         style="fill:#3a4249;stroke-width:0.995135"
         width="0.21395445"
         height="0.85581779"
         id="rect708" />
      <rect
         x="-424.97513"
         y="71.309898"
         transform="rotate(-84.00147)"
         style="fill:#3a4249;stroke-width:0.995135"
         width="0.21395445"
         height="0.85581779"
         id="rect710" />
      <rect
         x="-18.522282"
         y="429.92599"
         transform="rotate(-5.9985305)"
         style="fill:#3a4249;stroke-width:0.995135"
         width="0.85581779"
         height="0.21395445"
         id="rect712" />
      <rect
         x="-191.63551"
         y="384.49329"
         transform="rotate(-29.992926)"
         style="fill:#3a4249;stroke-width:0.995135"
         width="0.85581779"
         height="0.21395445"
         id="rect714" />
      <rect
         x="-331.36914"
         y="272.52356"
         transform="rotate(-53.99874)"
         style="fill:#3a4249;stroke-width:0.995135"
         width="0.85581779"
         height="0.21395445"
         id="rect716" />
      <rect
         x="-380.77921"
         y="197.27927"
         transform="rotate(-66.000867)"
         style="fill:#3a4249;stroke-width:0.995135"
         width="0.85581779"
         height="0.21395445"
         id="rect718" />
      <path
         style="fill:#f2daae;stroke-width:0.995135"
         d="m 25.995122,429.80297 c -0.0408,0 -0.07962,-0.0226 -0.09753,-0.0628 -0.05074,-0.11359 0.02783,-0.21702 0.08556,-0.29149 0.02106,-0.0301 0.06669,-0.0888 0.06567,-0.10832 -0.01505,-0.004 -0.08357,0.0188 -0.120394,0.0263 -0.08955,0.0264 -0.210963,0.0598 -0.29258,-0.0263 -0.0806,-0.0797 -0.04378,-0.19709 -0.01279,-0.29149 0.009,-0.0301 0.02482,-0.0797 0.0267,-0.10644 -0.01993,0.0113 -0.06368,0.0459 -0.08955,0.0658 -0.07661,0.0598 -0.173163,0.1354 -0.279641,0.0834 -0.104485,-0.0448 -0.10945,-0.16737 -0.112459,-0.26666 -9.93e-4,-0.0301 -0.003,-0.0756 -0.009,-0.10343 -0.01505,0.0188 -0.04081,0.0628 -0.05672,0.0888 -0.05175,0.0834 -0.11543,0.18918 -0.233868,0.17526 -0.113436,-0.007 -0.159209,-0.12036 -0.195053,-0.21213 -0.01091,-0.0264 -0.02971,-0.0714 -0.0448,-0.0955 -0.0061,0.0226 -0.01579,0.0725 -0.02182,0.10037 -0.02106,0.0974 -0.04577,0.21777 -0.161203,0.24372 -0.109449,0.0339 -0.190051,-0.0598 -0.256736,-0.13239 -0.01993,-0.0226 -0.05273,-0.0606 -0.07564,-0.0775 9.97e-4,0.0226 0.0079,0.0745 0.01279,0.10456 0.01279,0.0974 0.03084,0.22002 -0.06965,0.28547 -0.09057,0.0677 -0.199041,0.0113 -0.2866,-0.0339 -0.02896,-0.0151 -0.07861,-0.041 -0.104485,-0.0466 0.0041,0.0226 0.03197,0.0756 0.04776,0.10569 0.04577,0.0884 0.102495,0.19821 0.03272,0.29638 -0.05969,0.0985 -0.185087,0.0895 -0.276632,0.0835 -0.04378,-0.004 -0.124381,-0.007 -0.132355,0.0113 -0.0237,0.0538 -0.08756,0.0786 -0.141306,0.0538 -0.05375,-0.0226 -0.07861,-0.0876 -0.05472,-0.14141 0.06965,-0.15534 0.239848,-0.1433 0.34234,-0.13616 0.02295,0.002 0.05273,0.004 0.07365,0.003 -0.009,-0.0226 -0.02295,-0.0508 -0.03385,-0.0707 -0.04977,-0.0944 -0.124382,-0.2377 -0.0158,-0.35542 0.120394,-0.11736 0.270689,-0.0387 0.362236,0.007 0.01505,0.007 0.03497,0.0188 0.05175,0.0263 -0.002,-0.0188 -0.0041,-0.041 -0.0072,-0.0587 -0.01505,-0.10644 -0.03685,-0.26779 0.104485,-0.33625 0.150258,-0.0646 0.259745,0.0579 0.33038,0.13729 0.01091,0.0113 0.0237,0.0263 0.03685,0.041 0.0041,-0.0188 0.0079,-0.0377 0.01204,-0.0527 0.01993,-0.0985 0.05472,-0.26366 0.211978,-0.28059 0.161203,-0.0113 0.221908,0.1403 0.262716,0.23997 0.0049,0.0151 0.01204,0.0339 0.0188,0.0489 0.0097,-0.0151 0.01993,-0.0301 0.02896,-0.0448 0.05574,-0.0914 0.142322,-0.2298 0.295551,-0.19408 0.157253,0.0448 0.162218,0.21289 0.166205,0.31331 9.93e-4,0.0188 9.93e-4,0.0377 0.002,0.0556 0.0158,-0.0113 0.03197,-0.0226 0.0448,-0.0339 0.08459,-0.0666 0.213973,-0.16699 0.34629,-0.0797 0.133332,0.0974 0.08361,0.25162 0.05175,0.35429 -0.0072,0.0188 -0.01505,0.0448 -0.01993,0.0647 0.01993,-0.004 0.04378,-0.0113 0.0627,-0.0188 0.09753,-0.0263 0.262717,-0.0756 0.357272,0.0606 0.08858,0.14217 -0.0098,0.27081 -0.07462,0.35618 -0.01805,0.0263 -0.04776,0.0635 -0.05574,0.0835 0.01805,0.0519 -0.0072,0.10831 -0.05671,0.13126 -0.01505,0.007 -0.02971,0.0113 -0.0448,0.0113 z"
         id="path720" />
      <circle
         style="fill:#62c4c3;stroke-width:0.995135"
         cx="24.712389"
         cy="426.91507"
         r="0.32043409"
         id="circle722" />
      <circle
         style="fill:#62c4c3;stroke-width:0.995135"
         cx="22.210608"
         cy="428.35989"
         r="0.32043409"
         id="circle724" />
      <path
         style="fill:#62c4c3;stroke-width:0.995135"
         d="m 22.051393,430.96829 c -0.154245,0.0895 -0.205999,0.2866 -0.118401,0.43885 0.08955,0.15308 0.285583,0.20611 0.438854,0.11734 0.153267,-0.0888 0.205999,-0.28472 0.117423,-0.43787 -0.08858,-0.15421 -0.285621,-0.20611 -0.437862,-0.11847 z"
         id="path726" />
      <circle
         style="fill:#62c4c3;stroke-width:0.995135"
         cx="24.712389"
         cy="432.69086"
         r="0.32043409"
         id="circle728" />
      <path
         style="fill:#62c4c3;stroke-width:0.995135"
         d="m 27.373387,430.96829 c -0.154245,-0.0876 -0.349299,-0.0377 -0.438855,0.11847 -0.08756,0.15345 -0.03574,0.34941 0.117423,0.43788 0.153266,0.0888 0.350275,0.0377 0.438855,-0.11735 0.08858,-0.15233 0.03573,-0.34942 -0.117423,-0.43886 z"
         id="path730" />
      <circle
         style="fill:#62c4c3;stroke-width:0.995135"
         cx="27.212181"
         cy="428.35989"
         r="0.32043409"
         id="circle732" />
      <circle
         style="fill:#aa494a;stroke-width:0.995135"
         cx="72.101799"
         cy="436.06723"
         r="2.4868474"
         id="circle734" />
      <circle
         style="fill:#d36767;stroke-width:0.995135"
         cx="72.101799"
         cy="436.06723"
         r="2.2500045"
         id="circle736" />
      <rect
         x="71.983406"
         y="433.10681"
         style="fill:#3a4249;stroke-width:0.995135"
         width="0.23684259"
         height="0.94737035"
         id="rect738" />
      <rect
         x="-111.59171"
         y="424.74008"
         transform="rotate(-23.996824)"
         style="fill:#3a4249;stroke-width:0.995135"
         width="0.23684259"
         height="0.94737035"
         id="rect740" />
      <rect
         x="-198.14212"
         y="392.18558"
         transform="rotate(-36.005856)"
         style="fill:#3a4249;stroke-width:0.995135"
         width="0.23684259"
         height="0.94737035"
         id="rect742" />
      <rect
         x="-341.71033"
         y="277.51892"
         transform="rotate(-59.999271)"
         style="fill:#3a4249;stroke-width:0.995135"
         width="0.23684259"
         height="0.94737035"
         id="rect744" />
      <rect
         x="-426.26392"
         y="114.31646"
         transform="rotate(-84.00147)"
         style="fill:#3a4249;stroke-width:0.995135"
         width="0.23684259"
         height="0.94737035"
         id="rect746" />
      <rect
         x="23.17588"
         y="441.09671"
         transform="rotate(-5.9985305)"
         style="fill:#3a4249;stroke-width:0.995135"
         width="0.94737035"
         height="0.23684259"
         id="rect748" />
      <rect
         x="-158.50217"
         y="413.59845"
         transform="rotate(-29.992926)"
         style="fill:#3a4249;stroke-width:0.995135"
         width="0.94737035"
         height="0.23684259"
         id="rect750" />
      <rect
         x="-313.3602"
         y="314.53424"
         transform="rotate(-53.99874)"
         style="fill:#3a4249;stroke-width:0.995135"
         width="0.94737035"
         height="0.23684259"
         id="rect752" />
      <rect
         x="-372.00684"
         y="243.10855"
         transform="rotate(-66.000867)"
         style="fill:#3a4249;stroke-width:0.995135"
         width="0.94737035"
         height="0.23684259"
         id="rect754" />
      <rect
         x="71.983406"
         y="438.08047"
         style="fill:#3a4249;stroke-width:0.995135"
         width="0.23684259"
         height="0.94737035"
         id="rect756" />
      <rect
         x="-111.5925"
         y="429.71402"
         transform="rotate(-23.996824)"
         style="fill:#3a4249;stroke-width:0.995135"
         width="0.23684259"
         height="0.94737035"
         id="rect758" />
      <rect
         x="-198.14236"
         y="397.15973"
         transform="rotate(-36.005856)"
         style="fill:#3a4249;stroke-width:0.995135"
         width="0.23684259"
         height="0.94737035"
         id="rect760" />
      <rect
         x="-341.71082"
         y="282.49271"
         transform="rotate(-59.999271)"
         style="fill:#3a4249;stroke-width:0.995135"
         width="0.23684259"
         height="0.94737035"
         id="rect762" />
      <rect
         x="-426.26474"
         y="119.28995"
         transform="rotate(-84.00147)"
         style="fill:#3a4249;stroke-width:0.995135"
         width="0.23684259"
         height="0.94737035"
         id="rect764" />
      <rect
         x="28.148952"
         y="441.09683"
         transform="rotate(-5.9985305)"
         style="fill:#3a4249;stroke-width:0.995135"
         width="0.94737035"
         height="0.23684259"
         id="rect766" />
      <rect
         x="-153.52777"
         y="413.59708"
         transform="rotate(-29.992926)"
         style="fill:#3a4249;stroke-width:0.995135"
         width="0.94737035"
         height="0.23684259"
         id="rect768" />
      <rect
         x="-308.38638"
         y="314.53369"
         transform="rotate(-53.99874)"
         style="fill:#3a4249;stroke-width:0.995135"
         width="0.94737035"
         height="0.23684259"
         id="rect770" />
      <rect
         x="-367.03302"
         y="243.10866"
         transform="rotate(-66.000867)"
         style="fill:#3a4249;stroke-width:0.995135"
         width="0.94737035"
         height="0.23684259"
         id="rect772" />
      <path
         style="fill:#f2daae;stroke-width:0.995135"
         d="m 73.522861,436.06735 c -0.04577,0 -0.08858,-0.0264 -0.108472,-0.0696 -0.05574,-0.12525 0.03084,-0.23997 0.09455,-0.32234 0.0237,-0.0301 0.07364,-0.0985 0.07263,-0.12035 -0.01579,-0.004 -0.09256,0.0188 -0.133332,0.0301 -0.0985,0.0263 -0.232853,0.0666 -0.323422,-0.0301 -0.08955,-0.0876 -0.04875,-0.21776 -0.01505,-0.32233 0.0097,-0.0339 0.02783,-0.0888 0.02971,-0.11848 -0.02182,0.0113 -0.07067,0.0508 -0.0985,0.0726 -0.08557,0.0666 -0.192083,0.15045 -0.310483,0.0926 -0.11543,-0.0489 -0.120395,-0.18505 -0.124381,-0.2945 -9.96e-4,-0.0301 -0.003,-0.0847 -0.0097,-0.11547 -0.01579,0.0226 -0.0448,0.0696 -0.06269,0.0985 -0.05672,0.0925 -0.12739,0.20911 -0.25873,0.19407 -0.125396,-0.007 -0.176135,-0.13314 -0.215965,-0.23469 -0.01204,-0.0301 -0.03272,-0.0797 -0.04976,-0.10569 -0.0061,0.0264 -0.01805,0.0797 -0.02408,0.11133 -0.02295,0.10757 -0.05074,0.24071 -0.179143,0.26967 -0.120394,0.0377 -0.209985,-0.0666 -0.283629,-0.14744 -0.02182,-0.0264 -0.05871,-0.0666 -0.08361,-0.0858 9.94e-4,0.0264 0.009,0.0827 0.01392,0.11548 0.01505,0.10832 0.03385,0.24372 -0.07661,0.31631 -0.100504,0.0756 -0.22093,0.0113 -0.317442,-0.0376 -0.03197,-0.0188 -0.08756,-0.0459 -0.116445,-0.0519 0.0049,0.0264 0.03574,0.0835 0.05273,0.11623 0.05074,0.0974 0.114452,0.21889 0.03686,0.32835 -0.06567,0.10831 -0.204983,0.0996 -0.306496,0.0925 -0.04776,-0.004 -0.137319,-0.0113 -0.146271,0.0113 -0.0267,0.0598 -0.09655,0.0865 -0.156238,0.0598 -0.05973,-0.0264 -0.08756,-0.0974 -0.0607,-0.15721 0.07661,-0.17113 0.265687,-0.15835 0.379147,-0.15007 0.02483,0.002 0.05773,0.004 0.08162,0.003 -0.0097,-0.0226 -0.02595,-0.0556 -0.0378,-0.0775 -0.05472,-0.10532 -0.13732,-0.26366 -0.01805,-0.39409 0.133332,-0.12939 0.300514,-0.0429 0.401039,0.007 0.01692,0.007 0.03881,0.0226 0.05773,0.0301 -0.0019,-0.0226 -0.0049,-0.0459 -0.0079,-0.0647 -0.01579,-0.11848 -0.0408,-0.29638 0.116445,-0.37311 0.166205,-0.0714 0.286599,0.0635 0.365207,0.15232 0.01204,0.0113 0.0267,0.0301 0.04081,0.0447 0.0049,-0.0188 0.009,-0.041 0.01279,-0.0576 0.02295,-0.10944 0.0607,-0.29261 0.234846,-0.31141 0.179144,-0.0113 0.24579,0.15609 0.290587,0.26553 0.0061,0.0188 0.01392,0.0377 0.02182,0.0545 0.01091,-0.0151 0.02182,-0.0339 0.03197,-0.0497 0.06168,-0.1016 0.157215,-0.25463 0.326392,-0.21476 0.174141,0.0497 0.180121,0.23582 0.184108,0.34715 9.93e-4,0.0188 0.0019,0.041 0.003,0.0617 0.01692,-0.0113 0.03498,-0.0263 0.04875,-0.038 0.09455,-0.0737 0.236839,-0.18505 0.384122,-0.0884 0.147287,0.10832 0.09256,0.27945 0.05672,0.39308 -0.0072,0.0226 -0.01579,0.0489 -0.02182,0.0714 0.02182,-0.004 0.04875,-0.0113 0.06965,-0.0188 0.108471,-0.0301 0.290586,-0.0835 0.395067,0.0666 0.0985,0.15834 -0.0097,0.30051 -0.08162,0.39506 -0.02106,0.0264 -0.05375,0.0707 -0.06168,0.0926 0.0188,0.0568 -0.0079,0.12036 -0.06367,0.14518 -0.0158,0.007 -0.03272,0.0113 -0.04878,0.0113 z"
         id="path774" />
      <circle
         style="fill:#62c4c3;stroke-width:0.995135"
         cx="72.101799"
         cy="432.8699"
         r="0.35526386"
         id="circle776" />
      <circle
         style="fill:#62c4c3;stroke-width:0.995135"
         cx="69.332329"
         cy="434.46915"
         r="0.35526386"
         id="circle778" />
      <path
         style="fill:#62c4c3;stroke-width:0.995135"
         d="m 69.155206,437.35807 c -0.170155,0.0985 -0.227888,0.31631 -0.130362,0.48559 0.0985,0.16926 0.315448,0.22793 0.485625,0.13051 0.169176,-0.0985 0.227888,-0.31556 0.130361,-0.48559 -0.0985,-0.17039 -0.316463,-0.22793 -0.485624,-0.13051 z"
         id="path780" />
      <circle
         style="fill:#62c4c3;stroke-width:0.995135"
         cx="72.101799"
         cy="439.26468"
         r="0.35526386"
         id="circle782" />
      <path
         style="fill:#62c4c3;stroke-width:0.995135"
         d="m 75.048405,437.35807 c -0.170154,-0.0974 -0.387105,-0.0398 -0.485625,0.13051 -0.09753,0.17 -0.03979,0.38709 0.130362,0.48559 0.169176,0.0974 0.387108,0.0387 0.485628,-0.13051 0.09753,-0.16924 0.03979,-0.38709 -0.130365,-0.48559 z"
         id="path784" />
      <circle
         style="fill:#62c4c3;stroke-width:0.995135"
         cx="74.870293"
         cy="434.46915"
         r="0.35526386"
         id="circle786" />
      <ellipse
         ry="1.523072"
         rx="1.664989"
         style="fill:#aa494a;stroke-width:0.637236"
         cx="75.199539"
         cy="425.32889"
         id="circle788" />
      <ellipse
         ry="1.3780175"
         rx="1.5064185"
         style="fill:#d36767;stroke-width:0.637236"
         cx="75.199539"
         cy="425.32889"
         id="circle790" />
      <rect
         x="75.121056"
         y="423.51556"
         style="fill:#3a4249;stroke-width:0.995135"
         width="0.15822677"
         height="0.58016479"
         id="rect792" />
      <rect
         x="-118.83579"
         y="421.36539"
         transform="matrix(0.92615384,-0.37714594,0.43757887,0.89918003,0,0)"
         style="fill:#3a4249;stroke-width:0.99623"
         width="0.15623651"
         height="0.58941638"
         id="rect794" />
      <rect
         x="-206.49973"
         y="395.38589"
         transform="matrix(0.83278326,-0.55359917,0.62202379,0.78299834,0,0)"
         style="fill:#3a4249;stroke-width:0.996918"
         width="0.15424618"
         height="0.59922785"
         id="rect796" />
      <rect
         x="-342.06622"
         y="289.53247"
         transform="matrix(0.53374288,-0.84564681,0.88424709,0.46701936,0,0)"
         style="fill:#3a4249;stroke-width:0.996621"
         width="0.14927058"
         height="0.62081957"
         id="rect798" />
      <rect
         x="-416.32687"
         y="121.28703"
         transform="matrix(0.11411901,-0.99346709,0.99541209,0.09568057,0,0)"
         style="fill:#3a4249;stroke-width:0.995226"
         width="0.14528999"
         height="0.63401109"
         id="rect800" />
      <rect
         x="24.194838"
         y="430.57465"
         transform="matrix(0.99541205,-0.095681,0.11411838,0.99346716,0,0)"
         style="fill:#3a4249;stroke-width:0.995226"
         width="0.63390213"
         height="0.14531498"
         id="rect802" />
      <rect
         x="-165.79568"
         y="412.38437"
         transform="matrix(0.88430801,-0.466904,0.53362318,0.84572235,0,0)"
         style="fill:#3a4249;stroke-width:0.996621"
         width="0.62096548"
         height="0.14771906"
         id="rect804" />
      <rect
         x="-315.59601"
         y="324.50693"
         transform="matrix(0.62195891,-0.78304988,0.83282623,0.55353453,0,0)"
         style="fill:#3a4249;stroke-width:0.996918"
         width="0.60006768"
         height="0.15480033"
         id="rect806" />
      <rect
         x="-368.19473"
         y="254.22562"
         transform="matrix(0.43761679,-0.89916158,0.92613947,0.37718123,0,0)"
         style="fill:#3a4249;stroke-width:0.99623"
         width="0.5901165"
         height="0.15558206"
         id="rect808" />
      <rect
         x="75.121056"
         y="426.56268"
         style="fill:#3a4249;stroke-width:0.995135"
         width="0.15822677"
         height="0.58016479"
         id="rect810" />
      <rect
         x="-118.83626"
         y="424.46136"
         transform="matrix(0.92615384,-0.37714594,0.43757887,0.89918003,0,0)"
         style="fill:#3a4249;stroke-width:0.99623"
         width="0.15623651"
         height="0.58941638"
         id="rect812" />
      <rect
         x="-206.49966"
         y="398.53363"
         transform="matrix(0.83278326,-0.55359917,0.62202379,0.78299834,0,0)"
         style="fill:#3a4249;stroke-width:0.996918"
         width="0.15424618"
         height="0.59922785"
         id="rect814" />
      <rect
         x="-342.06705"
         y="292.7941"
         transform="matrix(0.53374288,-0.84564681,0.88424709,0.46701936,0,0)"
         style="fill:#3a4249;stroke-width:0.996621"
         width="0.14927058"
         height="0.62081957"
         id="rect816" />
      <rect
         x="-416.32742"
         y="124.61378"
         transform="matrix(0.11411901,-0.99346709,0.99541209,0.09568057,0,0)"
         style="fill:#3a4249;stroke-width:0.995226"
         width="0.14528999"
         height="0.63401109"
         id="rect818" />
      <rect
         x="27.520885"
         y="430.57385"
         transform="matrix(0.99541205,-0.095681,0.11411838,0.99346716,0,0)"
         style="fill:#3a4249;stroke-width:0.995226"
         width="0.63390213"
         height="0.14531498"
         id="rect820" />
      <rect
         x="-162.53447"
         y="412.38379"
         transform="matrix(0.88430801,-0.466904,0.53362318,0.84572235,0,0)"
         style="fill:#3a4249;stroke-width:0.996621"
         width="0.62096548"
         height="0.14771906"
         id="rect822" />
      <rect
         x="-312.44882"
         y="324.50623"
         transform="matrix(0.62195891,-0.78304988,0.83282623,0.55353453,0,0)"
         style="fill:#3a4249;stroke-width:0.996918"
         width="0.60006768"
         height="0.15480033"
         id="rect824" />
      <rect
         x="-365.09976"
         y="254.22655"
         transform="matrix(0.43761679,-0.89916158,0.92613947,0.37718123,0,0)"
         style="fill:#3a4249;stroke-width:0.99623"
         width="0.5901165"
         height="0.15558206"
         id="rect826" />
      <path
         style="fill:#f2daae;stroke-width:0.995135"
         d="m 76.151019,425.32983 c -0.03084,0 -0.05973,-0.0151 -0.07267,-0.0429 -0.03686,-0.0768 0.02106,-0.14744 0.06368,-0.19821 0.01579,-0.0188 0.04875,-0.0598 0.04875,-0.0737 -0.01091,-0.003 -0.0627,0.0113 -0.08955,0.0188 -0.06567,0.0188 -0.155222,0.0411 -0.215926,-0.0188 -0.05973,-0.0538 -0.03272,-0.13352 -0.01091,-0.19708 0.0072,-0.0188 0.0188,-0.0545 0.01993,-0.0726 -0.01392,0.007 -0.04675,0.0301 -0.06567,0.0447 -0.05672,0.0398 -0.128368,0.0915 -0.206976,0.0568 -0.07763,-0.0301 -0.08158,-0.11434 -0.08357,-0.1813 -9.92e-4,-0.0188 -0.002,-0.0519 -0.0072,-0.0707 -0.01091,0.015 -0.03084,0.0429 -0.04179,0.0598 -0.0378,0.0576 -0.08557,0.12938 -0.173164,0.11922 -0.08459,-0.004 -0.117423,-0.0816 -0.145292,-0.14443 -0.0079,-0.0188 -0.02182,-0.0489 -0.03272,-0.0635 -0.0041,0.0151 -0.01204,0.0489 -0.01579,0.0677 -0.01505,0.0658 -0.03385,0.14743 -0.120432,0.16512 -0.0806,0.0226 -0.140328,-0.041 -0.189073,-0.0895 -0.01505,-0.0151 -0.03979,-0.0406 -0.05672,-0.0526 9.96e-4,0.0151 0.0061,0.0497 0.0097,0.0707 0.009,0.0666 0.02295,0.14931 -0.05175,0.19294 -0.06766,0.0466 -0.148265,0.007 -0.211979,-0.0226 -0.02182,-0.0113 -0.05969,-0.0263 -0.0786,-0.0301 0.0041,0.0151 0.02483,0.0519 0.03574,0.0714 0.03385,0.0598 0.07661,0.13427 0.02483,0.20084 -0.04378,0.0666 -0.138334,0.0605 -0.205998,0.0568 -0.03197,-0.003 -0.09154,-0.007 -0.09753,0.007 -0.01805,0.0377 -0.06469,0.0526 -0.104484,0.0377 -0.0408,-0.0151 -0.05871,-0.0598 -0.0408,-0.0955 0.05175,-0.10456 0.178127,-0.0974 0.253764,-0.0926 0.01692,0.002 0.03881,0.002 0.05472,0.002 -0.0072,-0.0151 -0.01692,-0.0339 -0.02483,-0.0477 -0.03686,-0.0635 -0.09256,-0.16135 -0.01279,-0.24185 0.09057,-0.0786 0.202012,-0.0264 0.268696,0.007 0.01091,0.004 0.02596,0.0113 0.03881,0.0188 -9.96e-4,-0.0113 -0.0041,-0.0263 -0.0049,-0.0398 -0.01091,-0.0714 -0.02783,-0.18129 0.07763,-0.22906 0.111443,-0.0436 0.192044,0.0398 0.244814,0.0944 0.0079,0.007 0.01805,0.0188 0.0267,0.0264 0.0041,-0.0113 0.0061,-0.0264 0.009,-0.0377 0.01505,-0.0666 0.04081,-0.17903 0.157215,-0.19106 0.119417,-0.007 0.16519,0.0967 0.195053,0.16323 0.003,0.0113 0.0079,0.0226 0.01504,0.0339 0.0072,-0.0113 0.01392,-0.0226 0.02106,-0.0301 0.04081,-0.0617 0.104484,-0.15533 0.21792,-0.13126 0.116445,0.0301 0.120394,0.14442 0.123404,0.21288 9.96e-4,0.0113 9.96e-4,0.0264 0.0019,0.0377 0.01204,-0.007 0.02295,-0.0151 0.03272,-0.0226 0.06367,-0.0459 0.158231,-0.11433 0.256736,-0.0549 0.0985,0.0658 0.0627,0.17113 0.0378,0.23996 -0.0041,0.0151 -0.01091,0.0301 -0.01392,0.0448 0.01392,-0.003 0.03272,-0.007 0.04679,-0.0113 0.07165,-0.0188 0.194037,-0.0508 0.26471,0.041 0.06567,0.0974 -0.0072,0.18392 -0.05472,0.24184 -0.01392,0.0188 -0.03574,0.0436 -0.04179,0.0567 0.01279,0.0339 -0.0061,0.0748 -0.04281,0.0895 -0.0097,0.004 -0.02182,0.007 -0.03272,0.007 z"
         id="path828" />
      <ellipse
         ry="0.21758172"
         rx="0.23785555"
         style="fill:#62c4c3;stroke-width:0.637236"
         cx="75.199539"
         cy="423.37064"
         id="circle830" />
      <ellipse
         ry="0.21758172"
         rx="0.23785555"
         style="fill:#62c4c3;stroke-width:0.637236"
         cx="73.345306"
         cy="424.35004"
         id="circle832" />
      <path
         style="fill:#62c4c3;stroke-width:0.995135"
         d="m 73.227306,426.11896 c -0.114452,0.0605 -0.153267,0.19521 -0.08756,0.29751 0.06567,0.10456 0.211978,0.14029 0.325414,0.0805 0.113436,-0.0598 0.153267,-0.19295 0.08658,-0.29751 -0.06567,-0.10455 -0.211978,-0.13916 -0.324398,-0.0805 z"
         id="path834" />
      <ellipse
         ry="0.21758172"
         rx="0.23785555"
         style="fill:#62c4c3;stroke-width:0.637236"
         cx="75.199539"
         cy="427.28705"
         id="circle836" />
      <path
         style="fill:#62c4c3;stroke-width:0.995135"
         d="m 77.172027,426.11896 c -0.113436,-0.0587 -0.25775,-0.0226 -0.324398,0.0805 -0.06567,0.10456 -0.0267,0.23771 0.08756,0.29751 0.113436,0.0598 0.25873,0.0226 0.325415,-0.0805 0.06469,-0.10232 0.02595,-0.23696 -0.08858,-0.29751 z"
         id="path838" />
      <ellipse
         ry="0.21758172"
         rx="0.23785555"
         style="fill:#62c4c3;stroke-width:0.637236"
         cx="77.053047"
         cy="424.35004"
         id="circle840" />
      <ellipse
         ry="1.3303165"
         rx="1.5006133"
         style="fill:#aa494a;stroke-width:0.565387"
         cx="57.093903"
         cy="426.2926"
         id="circle842" />
      <ellipse
         ry="1.2036196"
         rx="1.3576976"
         style="fill:#d36767;stroke-width:0.565387"
         cx="57.093903"
         cy="426.2926"
         id="circle844" />
      <rect
         x="57.022484"
         y="424.70871"
         style="fill:#3a4249;stroke-width:0.995135"
         width="0.1432997"
         height="0.50652474"
         id="rect846" />
      <rect
         x="-140.90991"
         y="417.54865"
         transform="matrix(0.93018503,-0.36709101,0.44874916,0.89365776,0,0)"
         style="fill:#3a4249;stroke-width:0.997137"
         width="0.14031431"
         height="0.51855099"
         id="rect848" />
      <rect
         x="-227.64961"
         y="390.18695"
         transform="matrix(0.84065381,-0.54157287,0.6339525,0.77337198,0,0)"
         style="fill:#3a4249;stroke-width:0.9984"
         width="0.13732892"
         height="0.52988809"
         id="rect850" />
      <rect
         x="-355.45239"
         y="280.27902"
         transform="matrix(0.54574096,-0.83795394,0.89017001,0.45562852,0,0)"
         style="fill:#3a4249;stroke-width:0.997844"
         width="0.13135809"
         height="0.55631316"
         id="rect852" />
      <rect
         x="-419.35498"
         y="105.12325"
         transform="matrix(0.11770606,-0.99304848,0.99568926,0.09275177,0,0)"
         style="fill:#3a4249;stroke-width:0.995298"
         width="0.12638234"
         height="0.57138854"
         id="rect854" />
      <rect
         x="4.7381511"
         y="429.82306"
         transform="matrix(0.99568924,-0.09275202,0.11770596,0.99304849,0,0)"
         style="fill:#3a4249;stroke-width:0.995298"
         width="0.57120848"
         height="0.12642217"
         id="rect856" />
      <rect
         x="-187.4921"
         y="407.65051"
         transform="matrix(0.89022768,-0.45551584,0.5456198,0.83803284,0,0)"
         style="fill:#3a4249;stroke-width:0.997844"
         width="0.55628175"
         height="0.13107356"
         id="rect858" />
      <rect
         x="-331.2735"
         y="316.37766"
         transform="matrix(0.63388793,-0.77342491,0.84069486,0.54150914,0,0)"
         style="fill:#3a4249;stroke-width:0.9984"
         width="0.53040802"
         height="0.13722974"
         id="rect860" />
      <rect
         x="-378.69318"
         y="243.23973"
         transform="matrix(0.4487881,-0.8936382,0.93017165,0.36712492,0,0)"
         style="fill:#3a4249;stroke-width:0.997137"
         width="0.51747108"
         height="0.13987894"
         id="rect862" />
      <rect
         x="57.022484"
         y="427.36984"
         style="fill:#3a4249;stroke-width:0.995135"
         width="0.1432997"
         height="0.50652474"
         id="rect864" />
      <rect
         x="-140.90956"
         y="420.2677"
         transform="matrix(0.93018503,-0.36709101,0.44874916,0.89365776,0,0)"
         style="fill:#3a4249;stroke-width:0.997137"
         width="0.14031431"
         height="0.51855099"
         id="rect866" />
      <rect
         x="-227.64972"
         y="392.97031"
         transform="matrix(0.84065381,-0.54157287,0.6339525,0.77337198,0,0)"
         style="fill:#3a4249;stroke-width:0.9984"
         width="0.13732892"
         height="0.52988809"
         id="rect868" />
      <rect
         x="-355.45239"
         y="283.19882"
         transform="matrix(0.54574096,-0.83795394,0.89017001,0.45562852,0,0)"
         style="fill:#3a4249;stroke-width:0.997844"
         width="0.13135809"
         height="0.55631316"
         id="rect870" />
      <rect
         x="-419.35498"
         y="108.12132"
         transform="matrix(0.11770606,-0.99304848,0.99568926,0.09275177,0,0)"
         style="fill:#3a4249;stroke-width:0.995298"
         width="0.12638234"
         height="0.57138854"
         id="rect872" />
      <rect
         x="7.7350035"
         y="429.82272"
         transform="matrix(0.99568924,-0.09275202,0.11770596,0.99304849,0,0)"
         style="fill:#3a4249;stroke-width:0.995298"
         width="0.57120848"
         height="0.12642217"
         id="rect874" />
      <rect
         x="-184.57217"
         y="407.64923"
         transform="matrix(0.89022768,-0.45551584,0.5456198,0.83803284,0,0)"
         style="fill:#3a4249;stroke-width:0.997844"
         width="0.55628175"
         height="0.13107356"
         id="rect876" />
      <rect
         x="-328.49142"
         y="316.37628"
         transform="matrix(0.63388793,-0.77342491,0.84069486,0.54150914,0,0)"
         style="fill:#3a4249;stroke-width:0.9984"
         width="0.53040802"
         height="0.13722974"
         id="rect878" />
      <rect
         x="-375.97296"
         y="243.23996"
         transform="matrix(0.4487881,-0.8936382,0.93017165,0.36712492,0,0)"
         style="fill:#3a4249;stroke-width:0.997137"
         width="0.51747108"
         height="0.13987894"
         id="rect880" />
      <path
         style="fill:#f2daae;stroke-width:0.995135"
         d="m 57.951955,426.29213 c -0.02783,0 -0.05375,-0.0151 -0.06567,-0.0377 -0.03385,-0.0666 0.01805,-0.12825 0.05672,-0.17226 0.01505,-0.0151 0.04378,-0.0538 0.04378,-0.0646 -0.0097,-0.002 -0.05574,0.0113 -0.0806,0.0151 -0.05973,0.0151 -0.140329,0.0376 -0.195053,-0.0151 -0.05375,-0.0467 -0.02971,-0.1166 -0.009,-0.17227 0.0061,-0.0188 0.01692,-0.0478 0.01805,-0.0635 -0.01279,0.007 -0.04281,0.0264 -0.05973,0.0387 -0.05074,0.0377 -0.11543,0.0805 -0.18708,0.0489 -0.06965,-0.0263 -0.07263,-0.0985 -0.07564,-0.15609 0,-0.0188 -9.96e-4,-0.0459 -0.0061,-0.0628 -0.009,0.0113 -0.0267,0.038 -0.0378,0.0538 -0.03272,0.0489 -0.07661,0.11057 -0.155223,0.10343 -0.07564,-0.004 -0.106478,-0.0714 -0.130361,-0.12638 -0.0079,-0.0151 -0.01993,-0.0418 -0.03084,-0.0556 -0.003,0.0151 -0.01091,0.0418 -0.01392,0.0598 -0.01392,0.0567 -0.02971,0.12826 -0.107494,0.1433 -0.07365,0.0188 -0.12739,-0.0339 -0.172148,-0.0786 -0.01204,-0.0113 -0.03497,-0.0377 -0.04976,-0.0459 0,0.0151 0.0049,0.0448 0.0079,0.0617 0.009,0.0579 0.02106,0.13051 -0.04675,0.17001 -0.05969,0.0398 -0.132354,0.007 -0.190088,-0.0226 -0.01993,-0.007 -0.05375,-0.0226 -0.07165,-0.0263 0.0041,0.0151 0.02182,0.0447 0.03272,0.0628 0.03084,0.0519 0.06868,0.1166 0.02182,0.17527 -0.03979,0.0587 -0.123403,0.0538 -0.185086,0.0497 -0.02783,-0.002 -0.08259,-0.004 -0.08756,0.004 -0.01579,0.0301 -0.05871,0.0466 -0.09455,0.0301 -0.03573,-0.0151 -0.05273,-0.0508 -0.03686,-0.0827 0.04577,-0.0914 0.160226,-0.0858 0.228866,-0.0816 0.01505,0.002 0.03498,0.003 0.04977,0.002 -0.0061,-0.0113 -0.0158,-0.0301 -0.02295,-0.0418 -0.03385,-0.0568 -0.08357,-0.14029 -0.01091,-0.20987 0.07962,-0.0696 0.1811,-0.0226 0.240826,0.004 0.01091,0.004 0.02407,0.0113 0.03573,0.0151 -0.002,-0.0113 -0.003,-0.0264 -0.0049,-0.0339 -0.009,-0.0635 -0.02483,-0.15834 0.06965,-0.19896 0.101509,-0.0387 0.173162,0.0339 0.22093,0.0805 0.0072,0.007 0.01692,0.0151 0.02482,0.0264 0.003,-0.0113 0.0049,-0.0226 0.0079,-0.0301 0.01279,-0.0587 0.03572,-0.15608 0.141305,-0.16624 0.108472,-0.007 0.148265,0.0835 0.175157,0.14217 0.0041,0.007 0.009,0.0188 0.01279,0.0301 0.0072,-0.007 0.01392,-0.0188 0.01993,-0.0263 0.03686,-0.0538 0.09455,-0.13541 0.196031,-0.11434 0.105463,0.0264 0.10945,0.12636 0.111443,0.18616 9.93e-4,0.0113 0.002,0.0226 0.002,0.0339 0.01091,-0.007 0.02106,-0.0151 0.02896,-0.0226 0.05774,-0.0388 0.143299,-0.0985 0.232852,-0.0466 0.08858,0.0579 0.05574,0.14931 0.03385,0.20986 -0.0049,0.0113 -0.0098,0.0264 -0.01279,0.0388 0.01279,-0.003 0.02896,-0.007 0.04179,-0.0113 0.06567,-0.0151 0.175157,-0.0436 0.237854,0.0376 0.0607,0.0847 -0.0049,0.16136 -0.04878,0.211 -0.01204,0.0151 -0.03272,0.0388 -0.0378,0.0497 0.01204,0.0301 -0.0041,0.0646 -0.0378,0.0775 -0.0097,0.004 -0.01993,0.007 -0.02896,0.007 z"
         id="path882" />
      <ellipse
         ry="0.19004524"
         rx="0.21437334"
         style="fill:#62c4c3;stroke-width:0.565387"
         cx="57.093903"
         cy="424.58224"
         id="circle884" />
      <ellipse
         ry="0.19004524"
         rx="0.21437334"
         style="fill:#62c4c3;stroke-width:0.565387"
         cx="55.422752"
         cy="425.43771"
         id="circle886" />
      <path
         style="fill:#62c4c3;stroke-width:0.995135"
         d="m 55.315838,426.98275 c -0.102495,0.0527 -0.13732,0.16925 -0.0786,0.26065 0.05973,0.0895 0.190089,0.12148 0.29258,0.0689 0.102494,-0.0527 0.138335,-0.16924 0.07962,-0.25989 -0.0607,-0.0906 -0.191066,-0.12148 -0.293558,-0.0696 z"
         id="path888" />
      <ellipse
         ry="0.19004524"
         rx="0.21437334"
         style="fill:#62c4c3;stroke-width:0.565387"
         cx="57.093903"
         cy="428.00308"
         id="circle890" />
      <path
         style="fill:#62c4c3;stroke-width:0.995135"
         d="m 58.872454,426.98275 c -0.102495,-0.0519 -0.233868,-0.0226 -0.293558,0.0696 -0.05871,0.0906 -0.0237,0.20686 0.0786,0.25989 0.102495,0.0527 0.232854,0.0226 0.29258,-0.0689 0.05973,-0.0914 0.02483,-0.208 -0.07763,-0.26065 z"
         id="path892" />
      <ellipse
         ry="0.19004524"
         rx="0.21437334"
         style="fill:#62c4c3;stroke-width:0.565387"
         cx="58.764458"
         cy="425.43771"
         id="circle894" />
      <g
         transform="matrix(0.0121775,0,0,0.0121775,41.316682,445.52399)"
         id="g977">
        <g
           id="XMLID_351_">
          <g
             id="g910">
            <g
               id="XMLID_1216_">
              <g
                 id="XMLID_1218_">
                <g
                   id="XMLID_1219_">
                  <g
                     id="XMLID_1220_">
                    <g
                       id="XMLID_1231_">
                      <g
                         id="XMLID_1233_">
                        <g
                           id="XMLID_1234_">
                          <g
                             id="XMLID_1236_">
                            <g
                               id="XMLID_1237_">
                              <g
                                 id="XMLID_1241_">
                                <g
                                   id="XMLID_1242_">
                                <g
                                   id="XMLID_1243_">
                                <g
                                   id="XMLID_1244_">
                                <circle
                                   id="XMLID_1245_"
                                   cx="256"
                                   cy="256"
                                   fill="#436375"
                                   r="256" />
                                </g>
                                </g>
                                </g>
                              </g>
                            </g>
                          </g>
                        </g>
                      </g>
                    </g>
                  </g>
                </g>
              </g>
            </g>
          </g>
        </g>
        <path
           d="m 512,256 c 0,-34.058 -6.668,-66.555 -18.742,-96.278 L 393.12,59.583 118.88,272.87 172.245,325.255 86.058,433 l 48.31,48.309 C 170.549,500.883 211.975,512 256,512 397.385,512 512,397.385 512,256 Z"
           fill="#274a59"
           id="path913" />
        <g
           id="g975">
          <path
             d="M 393.12,59.583 V 272.87 h -62.48 l -75.13,-19.42 -74.15,19.42 H 118.88 V 59.583 Z"
             fill="#ffffff"
             id="path915" />
          <path
             d="M 393.12,59.58 V 272.87 H 330.64 L 256,253.58 v -194 z"
             fill="#e9edf5"
             id="path917" />
          <g
             id="g933">
            <g
               id="g931">
              <path
                 id="XMLID_504_"
                 d="m 277.7,185.402 v 23.07 l -22.188,32.656 -21.255,-32.656 v -23.07 z"
                 fill="#ffc473" />
              <path
                 d="m 277.703,185.402 v 23.071 l -0.216,0.392 -21.975,32.263 v -55.726 z"
                 fill="#ffb74f"
                 id="path920" />
              <path
                 d="m 330.64,238.6 v 34.27 H 181.36 V 238.6 c 0,-10.54 7.28,-19.68 17.55,-22.03 l 35.35,-8.1 8.89,13.66 c 2.91,4.48 7.62,6.77 12.36,6.85 4.83,0.1 9.7,-2.09 12.76,-6.59 l 9.2,-13.52 0.27,-0.4 35.35,8.1 c 10.27,2.35 17.55,11.49 17.55,22.03 z"
                 fill="#005fd2"
                 id="path922" />
              <path
                 d="m 330.64,238.6 v 34.27 h -75.13 v -43.89 c 4.83,0.1 9.7,-2.09 12.76,-6.59 l 9.2,-13.52 0.02,-0.01 0.25,-0.39 35.35,8.1 c 10.27,2.35 17.55,11.49 17.55,22.03 z"
                 fill="#00459f"
                 id="path924" />
              <g
                 id="g929">
                <path
                   id="XMLID_352_"
                   d="m 297.017,145.974 c -1.713,-25.223 -23.224,-39.539 -41.039,-39.539 -17.814,0 -39.325,14.316 -41.039,39.539 -4.61,0.863 -7.881,5.171 -7.368,9.908 l 0.794,7.329 c 0.538,4.972 5.047,8.6 10.02,8.061 l 0.856,-0.093 c 10.179,26.495 26.604,33.316 36.737,34.866 10.133,-1.55 26.559,-8.371 36.737,-34.866 l 0.856,0.093 c 4.972,0.538 9.481,-3.089 10.02,-8.061 l 0.794,-7.329 c 0.513,-4.737 -2.758,-9.045 -7.368,-9.908 z"
                   fill="#ffd097" />
                <path
                   d="m 304.382,155.883 -0.792,7.328 c -0.536,4.976 -5.048,8.6 -10.016,8.064 l -0.856,-0.096 c -4.232,10.999 -9.536,18.607 -15.015,23.855 -7.72,7.4 -15.799,10.112 -21.727,11.016 -0.152,-0.024 -0.304,-0.048 -0.464,-0.08 v -99.524 c 0.16,-0.008 0.312,-0.008 0.464,-0.008 17.815,0 39.326,14.312 41.038,39.534 4.616,0.863 7.888,5.175 7.368,9.911 z"
                   fill="#ffc473"
                   id="path927" />
              </g>
            </g>
          </g>
          <path
             d="m 293.51,101.851 c -3.798,-4.337 -10.401,-7.226 -17.019,-9.137 -13.393,-3.866 -27.59,-3.866 -40.983,0 -6.618,1.91 -13.221,4.8 -17.018,9.137 -9.667,11.039 -11.667,29.245 -3.667,52.455 h 8 l 1.64,-14.677 c 0.867,-7.754 8.355,-12.646 15.336,-10.018 l 2.884,1.086 c 8.611,3.242 18.022,3.242 26.634,0 l 2.884,-1.086 c 6.981,-2.628 14.469,2.264 15.336,10.018 l 1.64,14.677 h 8 c 8,-23.21 6,-41.416 -3.667,-52.455 z"
             fill="#bc6533"
             id="path935" />
          <g
             id="g973">
            <g
               id="g947">
              <path
                 d="M 200.053,433 H 86.058 v -20.913 c 0,-20.764 16.832,-37.596 37.596,-37.596 h 38.803 c 20.763,0 37.596,16.832 37.596,37.596 z"
                 fill="#fa4c4f"
                 id="path937" />
              <path
                 d="M 200.052,414.611 V 433 h -56.996 v -58.513 h 16.882 c 2.796,0 5.528,0.288 8.174,0.832 18.227,3.778 31.94,19.935 31.94,39.292 z"
                 fill="#e4186b"
                 id="path939" />
              <circle
                 cx="143.056"
                 cy="350.332"
                 fill="#ffd097"
                 r="39.373001"
                 id="circle941" />
              <g
                 id="g945">
                <path
                   d="m 182.433,350.331 c 0,12.229 -5.57,23.157 -14.321,30.371 -6.798,5.624 -15.537,9.007 -25.056,9.007 v -78.755 c 21.748,0 39.377,17.629 39.377,39.377 z"
                   fill="#ffc473"
                   id="path943" />
              </g>
            </g>
            <g
               id="g959">
              <path
                 d="M 312.997,433 H 199.003 v -20.913 c 0,-20.764 16.832,-37.596 37.596,-37.596 h 38.803 c 20.763,0 37.596,16.832 37.596,37.596 V 433 Z"
                 fill="#ffaa20"
                 id="path949" />
              <path
                 d="M 312.996,414.611 V 433 H 256 v -58.513 h 16.882 c 2.796,0 5.528,0.288 8.174,0.832 18.227,3.778 31.94,19.935 31.94,39.292 z"
                 fill="#ff8900"
                 id="path951" />
              <circle
                 cx="256"
                 cy="350.332"
                 fill="#ffd097"
                 r="39.373001"
                 id="circle953" />
              <g
                 id="g957">
                <path
                   d="m 295.377,350.331 c 0,12.229 -5.57,23.157 -14.321,30.371 -6.798,5.624 -15.538,9.007 -25.056,9.007 v -78.755 c 21.748,0 39.377,17.629 39.377,39.377 z"
                   fill="#ffc473"
                   id="path955" />
              </g>
            </g>
            <g
               id="g971">
              <path
                 d="M 425.941,433 H 311.947 v -20.913 c 0,-20.764 16.832,-37.596 37.596,-37.596 h 38.803 c 20.764,0 37.596,16.832 37.596,37.596 V 433 Z"
                 fill="#21d461"
                 id="path961" />
              <path
                 d="M 425.94,414.611 V 433 h -56.996 v -58.513 h 16.882 c 2.796,0 5.528,0.288 8.174,0.832 18.227,3.778 31.94,19.935 31.94,39.292 z"
                 fill="#1cae4f"
                 id="path963" />
              <circle
                 cx="368.944"
                 cy="350.332"
                 fill="#ffc473"
                 r="39.373001"
                 id="circle965" />
              <g
                 id="g969">
                <path
                   d="m 408.321,350.331 c 0,12.229 -5.57,23.157 -14.321,30.371 -6.798,5.624 -15.537,9.007 -25.056,9.007 v -78.755 c 21.748,0 39.377,17.629 39.377,39.377 z"
                   fill="#ffb74f"
                   id="path967" />
              </g>
            </g>
          </g>
        </g>
      </g>
    </g>
  </g>
</svg>
